M48
; DRILL file {KiCad (5.1.5)-3} date 4/30/2020 4:40:17 PM
; FORMAT={-:-/ absolute / inch / decimal}
; #@! TF.CreationDate,2020-04-30T16:40:17-04:00
; #@! TF.GenerationSoftware,Kicad,Pcbnew,(5.1.5)-3
; #@! TF.FileFunction,NonPlated,1,2,NPTH
FMAT,2
INCH
T1C0.0689
T2C0.1200
T3C0.1570
%
G90
G05
T1
X8.05Y-4.375
X8.45Y-4.375
X8.1437Y-2.875
X8.5437Y-2.875
X8.3312Y-3.625
X8.7312Y-3.625
X12.2062Y-4.375
X12.6062Y-4.375
X11.1437Y-3.625
X11.5437Y-3.625
X5.6125Y-5.875
X6.0125Y-5.875
X1.2063Y-5.125
X1.6062Y-5.125
X4.9562Y-5.125
X5.3563Y-5.125
X1.0188Y-2.875
X1.4187Y-2.875
X1.4563Y-0.2188
X1.8562Y-0.2188
X-0.1062Y-3.625
X0.2938Y-3.625
X7.8625Y-5.125
X8.2625Y-5.125
X7.4875Y-5.875
X7.8875Y-5.875
X9.6437Y-3.625
X10.0437Y-3.625
X13.7062Y-5.125
X14.1062Y-5.125
X3.3312Y-0.2188
X3.7312Y-0.2188
X13.7062Y-5.875
X14.1062Y-5.875
X3.6437Y-3.625
X4.0438Y-3.625
X5.5187Y-2.875
X5.9188Y-2.875
X2.8937Y-3.625
X3.2937Y-3.625
X3.2687Y-2.875
X3.6687Y-2.875
X1.5813Y-4.375
X1.9812Y-4.375
X2.5812Y-0.2188
X2.9812Y-0.2188
X-1.9812Y-2.875
X-1.5813Y-2.875
X2.8Y-5.875
X3.2Y-5.875
X14.6562Y-5.3
X14.6562Y-5.7
X6.2687Y-2.875
X6.6688Y-2.875
X8.425Y-5.875
X8.825Y-5.875
X11.1437Y-5.875
X11.5437Y-5.875
X11.1437Y-2.875
X11.5437Y-2.875
X5.8937Y-3.625
X6.2938Y-3.625
X10.3937Y-5.125
X10.7937Y-5.125
X6.0812Y-4.375
X6.4813Y-4.375
X0.0813Y-4.375
X0.4813Y-4.375
X5.7062Y-5.125
X6.1063Y-5.125
X1.7688Y-2.875
X2.1687Y-2.875
X5.9562Y-0.2188
X6.3563Y-0.2188
X-0.6687Y-4.375
X-0.2687Y-4.375
X-1.9812Y-0.2188
X-1.5813Y-0.2188
X-0.8562Y-3.625
X-0.4562Y-3.625
X7.0187Y-2.875
X7.4188Y-2.875
X9.6437Y-2.875
X10.0437Y-2.875
X12.5812Y-5.875
X12.9812Y-5.875
X12.2062Y-5.125
X12.6062Y-5.125
X11.1437Y-0.2188
X11.5437Y-0.2188
X12.9562Y-5.125
X13.3562Y-5.125
X4.2062Y-5.125
X4.6063Y-5.125
X0.4562Y-5.125
X0.8562Y-5.125
X4.7687Y-2.875
X5.1688Y-2.875
X0.8312Y-4.375
X1.2312Y-4.375
X4.0187Y-2.875
X4.4188Y-2.875
X2.1437Y-3.625
X2.5437Y-3.625
X0.7062Y-0.2188
X1.1062Y-0.2188
X-0.0437Y-0.2188
X0.3563Y-0.2188
X-1.7Y-4.375
X-1.3Y-4.375
X-1.7937Y-3.625
X-1.3938Y-3.625
X-0.4813Y-2.875
X-0.0813Y-2.875
X6.6437Y-3.625
X7.0438Y-3.625
X10.3937Y-5.875
X10.7937Y-5.875
X12.9562Y-4.375
X13.3562Y-4.375
X13.7062Y-4.375
X14.1062Y-4.375
X13.7062Y-2.875
X14.1062Y-2.875
X12.2062Y-2.875
X12.6062Y-2.875
X7.4562Y-0.2188
X7.8563Y-0.2188
X4.3937Y-3.625
X4.7938Y-3.625
X3.0812Y-4.375
X3.4812Y-4.375
X4.5812Y-4.375
X4.9813Y-4.375
X0.2687Y-2.875
X0.6687Y-2.875
X3.8312Y-4.375
X4.2313Y-4.375
X2.5187Y-2.875
X2.9187Y-2.875
X4.0812Y-0.2188
X4.4813Y-0.2188
X-0.2938Y-5.125
X0.1062Y-5.125
X-1.8875Y-5.875
X-1.4875Y-5.875
X9.6437Y-5.875
X10.0437Y-5.875
X6.8312Y-4.375
X7.2313Y-4.375
X6.55Y-5.875
X6.95Y-5.875
X14.6562Y-2.675
X14.6562Y-3.075
X14.6562Y-3.8
X14.6562Y-4.2
X8.2062Y-0.2188
X8.6062Y-0.2188
X12.9562Y-3.625
X13.3562Y-3.625
X10.3937Y-0.2188
X10.7937Y-0.2188
X5.1437Y-3.625
X5.5438Y-3.625
X2.7062Y-5.125
X3.1062Y-5.125
X5.3312Y-4.375
X5.7313Y-4.375
X0.6437Y-3.625
X1.0437Y-3.625
X1.3938Y-3.625
X1.7937Y-3.625
X-0.7937Y-0.2188
X-0.3937Y-0.2188
X-1.2312Y-2.875
X-0.8312Y-2.875
X10.3937Y-3.625
X10.7937Y-3.625
X7.3937Y-3.625
X7.7938Y-3.625
X10.3937Y-2.875
X10.7937Y-2.875
X13.7062Y-3.625
X14.1062Y-3.625
X-1.5125Y-5.125
X-1.1125Y-5.125
X12.9562Y-2.875
X13.3562Y-2.875
X9.6437Y-0.2188
X10.0437Y-0.2188
X12.2062Y-3.625
X12.6062Y-3.625
X4.8312Y-0.2188
X5.2313Y-0.2188
X6.4562Y-5.125
X6.8563Y-5.125
X-0.0125Y-5.875
X0.3875Y-5.875
X3.4562Y-5.125
X3.8562Y-5.125
X1.9563Y-5.125
X2.3562Y-5.125
X2.3312Y-4.375
X2.7312Y-4.375
X6.7062Y-0.2188
X7.1063Y-0.2188
X-0.95Y-5.875
X-0.55Y-5.875
T2
X1.0315Y-5.6
X4.9685Y-5.6
X14.3812Y-5.03
X14.3812Y-5.97
X12.3112Y-5.6
X13.2512Y-5.6
X14.3812Y-3.53
X14.3812Y-4.47
X-1.7825Y-4.85
X-0.8425Y-4.85
X7.78Y-4.1
X8.72Y-4.1
X7.8738Y-2.6
X8.8138Y-2.6
X7.5925Y-4.85
X8.5325Y-4.85
T3
X7.78Y-4.7
X8.25Y-4.375
X8.72Y-4.7
X7.8738Y-3.2
X8.3438Y-2.875
X8.8138Y-3.2
X8.5312Y-3.625
X12.4062Y-4.375
X11.3438Y-3.625
X5.8125Y-5.875
X1.4062Y-5.125
X5.1562Y-5.125
X1.2188Y-2.875
X1.6562Y-0.2188
X0.0938Y-3.625
X7.5925Y-5.45
X8.0625Y-5.125
X8.5325Y-5.45
X7.6875Y-5.875
X9.8438Y-3.625
X13.9062Y-5.125
X3.5312Y-0.2188
X13.9062Y-5.875
X3.8438Y-3.625
X5.7188Y-2.875
X3.0938Y-3.625
X3.4688Y-2.875
X1.7812Y-4.375
X2.7812Y-0.2188
X-1.7812Y-2.875
X1.0315Y-6.2
X3.0Y-5.875
X4.9685Y-6.2
X14.6562Y-5.5
X14.9812Y-5.03
X14.9812Y-5.97
X6.4688Y-2.875
X8.625Y-5.875
X11.3438Y-5.875
X11.3438Y-2.875
X6.0938Y-3.625
X10.5938Y-5.125
X6.2812Y-4.375
X0.2812Y-4.375
X5.9062Y-5.125
X1.9688Y-2.875
X6.1562Y-0.2188
X-0.4688Y-4.375
X-1.7812Y-0.2188
X-0.6562Y-3.625
X7.2188Y-2.875
X9.8438Y-2.875
X12.3112Y-6.2
X12.7812Y-5.875
X13.2512Y-6.2
X12.4062Y-5.125
X11.3438Y-0.2188
X13.1562Y-5.125
X4.4062Y-5.125
X0.6562Y-5.125
X4.9688Y-2.875
X1.0312Y-4.375
X4.2188Y-2.875
X2.3438Y-3.625
X0.9062Y-0.2188
X0.1562Y-0.2188
X-1.5Y-4.375
X-1.5938Y-3.625
X-0.2812Y-2.875
X6.8438Y-3.625
X10.5938Y-5.875
X13.1562Y-4.375
X13.9062Y-4.375
X13.9062Y-2.875
X12.4062Y-2.875
X7.6562Y-0.2188
X4.5938Y-3.625
X3.2812Y-4.375
X4.7812Y-4.375
X0.4688Y-2.875
X4.0312Y-4.375
X2.7188Y-2.875
X4.2812Y-0.2188
X-0.0938Y-5.125
X-1.6875Y-5.875
X9.8438Y-5.875
X7.0312Y-4.375
X6.75Y-5.875
X14.6562Y-2.875
X14.6562Y-4.0
X14.9812Y-3.53
X14.9812Y-4.47
X8.4062Y-0.2188
X13.1562Y-3.625
X10.5938Y-0.2188
X5.3438Y-3.625
X2.9062Y-5.125
X5.5312Y-4.375
X0.8438Y-3.625
X1.5938Y-3.625
X-0.5938Y-0.2188
X-1.0312Y-2.875
X10.5938Y-3.625
X7.5938Y-3.625
X10.5938Y-2.875
X13.9062Y-3.625
X-1.7825Y-5.45
X-1.3125Y-5.125
X-0.8425Y-5.45
X13.1562Y-2.875
X9.8438Y-0.2188
X12.4062Y-3.625
X5.0312Y-0.2188
X6.6562Y-5.125
X0.1875Y-5.875
X3.6562Y-5.125
X2.1562Y-5.125
X2.5312Y-4.375
X6.9062Y-0.2188
X-0.75Y-5.875
T0
M30
