M48
; DRILL file {KiCad (5.1.5)-3} date 4/30/2020 4:40:17 PM
; FORMAT={-:-/ absolute / inch / decimal}
; #@! TF.CreationDate,2020-04-30T16:40:17-04:00
; #@! TF.GenerationSoftware,Kicad,Pcbnew,(5.1.5)-3
; #@! TF.FileFunction,Plated,1,2,PTH
FMAT,2
INCH
T1C0.0157
T2C0.0315
T3C0.0430
T4C0.0579
%
G90
G05
T1
X12.9062Y-0.25
X13.375Y0.2812
X13.375Y-0.75
X13.4062Y0.25
X13.4062Y-0.7188
X13.4375Y0.2188
X13.4375Y-0.6875
X13.4688Y0.1875
X13.4688Y-0.6562
X13.5Y0.1562
X13.5Y-0.625
T2
X2.5312Y-1.2188
X2.6373Y-1.3248
X5.4062Y-1.5938
X5.5123Y-1.6998
X8.6875Y-1.5938
X8.7936Y-1.6998
X5.9062Y-1.7812
X6.0123Y-1.8873
X5.4688Y-1.9688
X5.5748Y-2.0748
X11.0312Y-1.4062
X11.1373Y-1.5123
X6.7812Y-1.4062
X6.8873Y-1.5123
X12.8314Y-0.0189
X12.9375Y-0.125
X4.4688Y-1.5938
X4.5748Y-1.6998
X10.1562Y-1.7812
X10.2623Y-1.8873
X5.0Y-1.9688
X5.1061Y-2.0748
X4.5312Y-1.9688
X4.6373Y-2.0748
X11.9375Y-1.2188
X12.0436Y-1.3248
X12.5189Y-0.0189
X12.625Y-0.125
X12.0312Y-1.7812
X12.1373Y-1.8873
X3.4688Y-1.2188
X3.5748Y-1.3248
X5.3438Y-1.2188
X5.4498Y-1.3248
X5.9375Y-1.9688
X6.0436Y-2.0748
X9.7188Y-1.9688
X9.8248Y-2.0748
X9.6875Y-1.7812
X9.7936Y-1.8873
X5.4375Y-1.7812
X5.5436Y-1.8873
X11.5312Y-1.5938
X11.6373Y-1.6998
X6.4062Y-1.9688
X6.5123Y-2.0748
X12.2064Y-0.0189
X12.3125Y-0.125
X10.0625Y-1.2188
X10.1686Y-1.3248
X3.0312Y-1.4062
X3.1373Y-1.5123
X12.8438Y-0.3438
X12.9498Y-0.4498
X12.0Y-1.5938
X12.1061Y-1.6998
X12.6875Y-0.3438
X12.7936Y-0.4498
X7.2188Y-1.2188
X7.3248Y-1.3248
X8.1562Y-1.2188
X8.2623Y-1.3248
X6.3125Y-1.4062
X6.4186Y-1.5123
X6.8125Y-1.5938
X6.9186Y-1.6998
X3.5312Y-1.5938
X3.6373Y-1.6998
X4.9375Y-1.5938
X5.0436Y-1.6998
X3.0625Y-1.5938
X3.1686Y-1.6998
X10.1875Y-1.9688
X10.2936Y-2.0748
X5.8438Y-1.4062
X5.9498Y-1.5123
X10.5312Y-1.2188
X10.6373Y-1.3248
X6.3438Y-1.5938
X6.4498Y-1.6998
X2.5625Y-1.4062
X2.6686Y-1.5123
X10.6562Y-1.9688
X10.7623Y-2.0748
X4.5Y-1.7812
X4.6061Y-1.8873
X12.375Y-0.3438
X12.4811Y-0.4498
X6.8438Y-1.7812
X6.9498Y-1.8873
X7.75Y-1.5938
X7.8561Y-1.6998
X6.375Y-1.7812
X6.4811Y-1.8873
X11.0Y-1.2188
X11.1061Y-1.3248
X7.3438Y-1.9688
X7.4498Y-2.0748
X11.0938Y-1.7812
X11.1998Y-1.8873
X7.7812Y-1.7812
X7.8873Y-1.8873
X2.6562Y-1.9688
X2.7623Y-2.0748
X11.125Y-1.9688
X11.2311Y-2.0748
X12.2188Y-0.3438
X12.3248Y-0.4498
X4.0625Y-1.9688
X4.1686Y-2.0748
X13.0Y-0.3438
X13.1061Y-0.4498
X8.75Y-1.9688
X8.8561Y-2.0748
X4.9688Y-1.7812
X5.0748Y-1.8873
X8.2812Y-1.9688
X8.3873Y-2.0748
X10.0938Y-1.4062
X10.1998Y-1.5123
X7.8125Y-1.9688
X7.9186Y-2.0748
X11.5938Y-1.9688
X11.6998Y-2.0748
X7.3125Y-1.7812
X7.4186Y-1.8873
X3.5Y-1.4062
X3.6061Y-1.5123
X11.5625Y-1.7812
X11.6686Y-1.8873
X13.1439Y-0.0189
X13.25Y-0.125
X4.0312Y-1.7812
X4.1373Y-1.8873
X12.5Y-1.7812
X12.6061Y-1.8873
X12.5312Y-0.3438
X12.6373Y-0.4498
X7.6875Y-1.2188
X7.7936Y-1.3248
X7.25Y-1.4062
X7.3561Y-1.5123
X3.5625Y-1.7812
X3.6686Y-1.8873
X5.375Y-1.4062
X5.4811Y-1.5123
X2.5938Y-1.5938
X2.6998Y-1.6998
X4.9062Y-1.4062
X5.0123Y-1.5123
X10.625Y-1.7812
X10.7311Y-1.8873
X8.6562Y-1.4062
X8.7623Y-1.5123
X12.6752Y-0.0189
X12.7812Y-0.125
X3.9688Y-1.4062
X4.0748Y-1.5123
X12.0625Y-1.9688
X12.1686Y-2.0748
X8.25Y-1.7812
X8.3561Y-1.8873
X3.5938Y-1.9688
X3.6998Y-2.0748
X11.5Y-1.4062
X11.6061Y-1.5123
X13.3002Y-0.0189
X13.4062Y-0.125
X3.0938Y-1.7812
X3.1998Y-1.8873
X11.9688Y-1.4062
X12.0748Y-1.5123
X13.3438Y-0.3438
X13.4498Y-0.4498
X3.0Y-1.2188
X3.1061Y-1.3248
X8.7188Y-1.7812
X8.8248Y-1.8873
X4.0Y-1.5938
X4.1061Y-1.6998
X6.875Y-1.9688
X6.9811Y-2.0748
X3.125Y-1.9688
X3.2311Y-2.0748
X5.875Y-1.5938
X5.9811Y-1.6998
X11.0625Y-1.5938
X11.1686Y-1.6998
X7.2812Y-1.5938
X7.3873Y-1.6998
X12.3627Y-0.0189
X12.4688Y-0.125
X9.5938Y-1.2188
X9.6998Y-1.3248
X4.4375Y-1.4062
X4.5436Y-1.5123
X2.625Y-1.7812
X2.7311Y-1.8873
X12.4375Y-1.4062
X12.5436Y-1.5123
X12.9877Y-0.0189
X13.0938Y-0.125
X12.5312Y-1.9688
X12.6373Y-2.0748
X13.1562Y-0.3438
X13.2623Y-0.4498
X8.625Y-1.2188
X8.7311Y-1.3248
T3
X13.7Y0.041
X13.7Y-0.05
X13.7Y-0.15
X13.7Y-0.25
X13.7Y-0.35
X13.7Y-0.45
X13.7Y-0.55
X13.8Y0.05
X13.8Y-0.55
X13.9Y0.05
X13.9Y-0.55
X14.0Y0.05
X14.0Y-0.55
X14.1Y0.05
X14.1Y-0.55
X14.2Y0.05
X14.2Y-0.55
X14.3Y0.05
X14.3Y-0.55
X14.4Y0.05
X14.4Y-0.55
X14.5Y0.05
X14.5Y-0.55
X14.6Y0.05
X14.6Y-0.55
X14.7Y0.05
X14.7Y-0.55
X14.8Y0.05
X14.8Y-0.55
X-1.9563Y-1.3875
X-1.9563Y-1.9875
X-1.8562Y-1.3875
X-1.8562Y-1.9875
X-1.7562Y-1.3875
X-1.7562Y-1.9875
X-1.6562Y-1.3875
X-1.6562Y-1.9875
X-1.5562Y-1.3875
X-1.5562Y-1.9875
X-1.4563Y-1.3875
X-1.4563Y-1.9875
X-1.3562Y-1.3875
X-1.3562Y-1.9875
X-1.2562Y-1.3875
X-1.2562Y-1.9875
X-1.1562Y-1.3875
X-1.1562Y-1.9875
X-1.0562Y-1.3875
X-1.0562Y-1.9875
X-0.9562Y-1.3875
X-0.9562Y-1.9875
X-0.8562Y-1.3875
X-0.8562Y-1.4875
X-0.8562Y-1.5875
X-0.8562Y-1.6875
X-0.8562Y-1.7875
X-0.8562Y-1.8875
X-0.8562Y-1.9785
X13.7Y-1.5215
X13.7Y-1.6125
X13.7Y-1.7125
X13.7Y-1.8125
X13.7Y-1.9125
X13.7Y-2.0125
X13.7Y-2.1125
X13.8Y-1.5125
X13.8Y-2.1125
X13.9Y-1.5125
X13.9Y-2.1125
X14.0Y-1.5125
X14.0Y-2.1125
X14.1Y-1.5125
X14.1Y-2.1125
X14.2Y-1.5125
X14.2Y-2.1125
X14.3Y-1.5125
X14.3Y-2.1125
X14.4Y-1.5125
X14.4Y-2.1125
X14.5Y-1.5125
X14.5Y-2.1125
X14.6Y-1.5125
X14.6Y-2.1125
X14.7Y-1.5125
X14.7Y-2.1125
X14.8Y-1.5125
X14.8Y-2.1125
T4
X8.1Y-4.275
X8.1516Y-4.2175
X8.3484Y-4.1978
X8.35Y-4.175
X8.1937Y-2.775
X8.2453Y-2.7175
X8.4422Y-2.6978
X8.4437Y-2.675
X8.3812Y-3.525
X8.4328Y-3.4675
X8.6297Y-3.4478
X8.6312Y-3.425
X12.2562Y-4.275
X12.3078Y-4.2175
X12.5047Y-4.1978
X12.5062Y-4.175
X11.1937Y-3.525
X11.2453Y-3.4675
X11.4422Y-3.4478
X11.4437Y-3.425
X5.6625Y-5.775
X5.7141Y-5.7175
X5.9109Y-5.6978
X5.9125Y-5.675
X1.2562Y-5.025
X1.3078Y-4.9675
X1.5047Y-4.9478
X1.5062Y-4.925
X5.0062Y-5.025
X5.0578Y-4.9675
X5.2547Y-4.9478
X5.2562Y-4.925
X1.0687Y-2.775
X1.1203Y-2.7175
X1.3172Y-2.6978
X1.3187Y-2.675
X1.5562Y-0.4188
X1.5578Y-0.3959
X1.7547Y-0.3762
X1.8062Y-0.3187
X-0.0563Y-3.525
X-0.0047Y-3.4675
X0.1922Y-3.4478
X0.1938Y-3.425
X7.9125Y-5.025
X7.9641Y-4.9675
X8.1609Y-4.9478
X8.1625Y-4.925
X7.5375Y-5.775
X7.5891Y-5.7175
X7.7859Y-5.6978
X7.7875Y-5.675
X9.6937Y-3.525
X9.7453Y-3.4675
X9.9422Y-3.4478
X9.9437Y-3.425
X13.7562Y-5.025
X13.8078Y-4.9675
X14.0047Y-4.9478
X14.0062Y-4.925
X3.4312Y-0.4188
X3.4328Y-0.3959
X3.6297Y-0.3762
X3.6812Y-0.3187
X13.7562Y-5.775
X13.8078Y-5.7175
X14.0047Y-5.6978
X14.0062Y-5.675
X3.6938Y-3.525
X3.7453Y-3.4675
X3.9422Y-3.4478
X3.9438Y-3.425
X5.5687Y-2.775
X5.6203Y-2.7175
X5.8172Y-2.6978
X5.8187Y-2.675
X2.9438Y-3.525
X2.9953Y-3.4675
X3.1922Y-3.4478
X3.1938Y-3.425
X3.3188Y-2.775
X3.3703Y-2.7175
X3.5672Y-2.6978
X3.5688Y-2.675
X1.6312Y-4.275
X1.6828Y-4.2175
X1.8797Y-4.1978
X1.8812Y-4.175
X2.6812Y-0.4188
X2.6828Y-0.3959
X2.8797Y-0.3762
X2.9312Y-0.3187
X-1.9312Y-2.775
X-1.8797Y-2.7175
X-1.6828Y-2.6978
X-1.6812Y-2.675
X2.85Y-5.775
X2.9016Y-5.7175
X3.0984Y-5.6978
X3.1Y-5.675
X14.4562Y-5.4
X14.4791Y-5.4016
X14.4988Y-5.5984
X14.5563Y-5.65
X6.3187Y-2.775
X6.3703Y-2.7175
X6.5672Y-2.6978
X6.5687Y-2.675
X8.475Y-5.775
X8.5266Y-5.7175
X8.7234Y-5.6978
X8.725Y-5.675
X11.1937Y-5.775
X11.2453Y-5.7175
X11.4422Y-5.6978
X11.4437Y-5.675
X11.1937Y-2.775
X11.2453Y-2.7175
X11.4422Y-2.6978
X11.4437Y-2.675
X5.9437Y-3.525
X5.9953Y-3.4675
X6.1922Y-3.4478
X6.1937Y-3.425
X10.4437Y-5.025
X10.4953Y-4.9675
X10.6922Y-4.9478
X10.6937Y-4.925
X6.1312Y-4.275
X6.1828Y-4.2175
X6.3797Y-4.1978
X6.3812Y-4.175
X0.1313Y-4.275
X0.1828Y-4.2175
X0.3797Y-4.1978
X0.3812Y-4.175
X5.7562Y-5.025
X5.8078Y-4.9675
X6.0047Y-4.9478
X6.0062Y-4.925
X1.8187Y-2.775
X1.8703Y-2.7175
X2.0672Y-2.6978
X2.0688Y-2.675
X6.0062Y-0.1187
X6.0578Y-0.0613
X6.2547Y-0.0416
X6.2562Y-0.0187
X-0.6188Y-4.275
X-0.5672Y-4.2175
X-0.3703Y-4.1978
X-0.3687Y-4.175
X-1.8812Y-0.4188
X-1.8797Y-0.3959
X-1.6828Y-0.3762
X-1.6312Y-0.3187
X-0.8063Y-3.525
X-0.7547Y-3.4675
X-0.5578Y-3.4478
X-0.5563Y-3.425
X7.0687Y-2.775
X7.1203Y-2.7175
X7.3172Y-2.6978
X7.3187Y-2.675
X9.6937Y-2.775
X9.7453Y-2.7175
X9.9422Y-2.6978
X9.9437Y-2.675
X12.6312Y-5.775
X12.6828Y-5.7175
X12.8797Y-5.6978
X12.8812Y-5.675
X12.2562Y-5.025
X12.3078Y-4.9675
X12.5047Y-4.9478
X12.5062Y-4.925
X11.1937Y-0.1187
X11.2453Y-0.0613
X11.4422Y-0.0416
X11.4437Y-0.0187
X13.0062Y-5.025
X13.0578Y-4.9675
X13.2547Y-4.9478
X13.2562Y-4.925
X4.2562Y-5.025
X4.3078Y-4.9675
X4.5047Y-4.9478
X4.5062Y-4.925
X0.5062Y-5.025
X0.5578Y-4.9675
X0.7547Y-4.9478
X0.7562Y-4.925
X4.8187Y-2.775
X4.8703Y-2.7175
X5.0672Y-2.6978
X5.0687Y-2.675
X0.8812Y-4.275
X0.9328Y-4.2175
X1.1297Y-4.1978
X1.1312Y-4.175
X4.0687Y-2.775
X4.1203Y-2.7175
X4.3172Y-2.6978
X4.3187Y-2.675
X2.1938Y-3.525
X2.2453Y-3.4675
X2.4422Y-3.4478
X2.4438Y-3.425
X0.8063Y-0.4188
X0.8078Y-0.3959
X1.0047Y-0.3762
X1.0562Y-0.3187
X0.0563Y-0.4188
X0.0578Y-0.3959
X0.2547Y-0.3762
X0.3062Y-0.3187
X-1.65Y-4.275
X-1.5984Y-4.2175
X-1.4016Y-4.1978
X-1.4Y-4.175
X-1.7437Y-3.525
X-1.6922Y-3.4675
X-1.4953Y-3.4478
X-1.4937Y-3.425
X-0.4312Y-2.775
X-0.3797Y-2.7175
X-0.1828Y-2.6978
X-0.1812Y-2.675
X6.6937Y-3.525
X6.7453Y-3.4675
X6.9422Y-3.4478
X6.9437Y-3.425
X10.4437Y-5.775
X10.4953Y-5.7175
X10.6922Y-5.6978
X10.6937Y-5.675
X13.0062Y-4.275
X13.0578Y-4.2175
X13.2547Y-4.1978
X13.2562Y-4.175
X13.7562Y-4.275
X13.8078Y-4.2175
X14.0047Y-4.1978
X14.0062Y-4.175
X13.7562Y-2.775
X13.8078Y-2.7175
X14.0047Y-2.6978
X14.0062Y-2.675
X12.2562Y-2.775
X12.3078Y-2.7175
X12.5047Y-2.6978
X12.5062Y-2.675
X7.5062Y-0.1187
X7.5578Y-0.0613
X7.7547Y-0.0416
X7.7562Y-0.0187
X4.4437Y-3.525
X4.4953Y-3.4675
X4.6922Y-3.4478
X4.6937Y-3.425
X3.1313Y-4.275
X3.1828Y-4.2175
X3.3797Y-4.1978
X3.3813Y-4.175
X4.6312Y-4.275
X4.6828Y-4.2175
X4.8797Y-4.1978
X4.8812Y-4.175
X0.3187Y-2.775
X0.3703Y-2.7175
X0.5672Y-2.6978
X0.5687Y-2.675
X3.8813Y-4.275
X3.9328Y-4.2175
X4.1297Y-4.1978
X4.1312Y-4.175
X2.5688Y-2.775
X2.6203Y-2.7175
X2.8172Y-2.6978
X2.8188Y-2.675
X4.1812Y-0.4188
X4.1828Y-0.3959
X4.3797Y-0.3762
X4.4312Y-0.3187
X-0.2437Y-5.025
X-0.1922Y-4.9675
X0.0047Y-4.9478
X0.0062Y-4.925
X-1.8375Y-5.775
X-1.7859Y-5.7175
X-1.5891Y-5.6978
X-1.5875Y-5.675
X9.6937Y-5.775
X9.7453Y-5.7175
X9.9422Y-5.6978
X9.9437Y-5.675
X6.8812Y-4.275
X6.9328Y-4.2175
X7.1297Y-4.1978
X7.1312Y-4.175
X6.6Y-5.775
X6.6516Y-5.7175
X6.8484Y-5.6978
X6.85Y-5.675
X14.4562Y-2.775
X14.4791Y-2.7766
X14.4988Y-2.9734
X14.5563Y-3.025
X14.4562Y-3.9
X14.4791Y-3.9016
X14.4988Y-4.0984
X14.5563Y-4.15
X8.2562Y-0.1187
X8.3078Y-0.0613
X8.5047Y-0.0416
X8.5062Y-0.0187
X13.0062Y-3.525
X13.0578Y-3.4675
X13.2547Y-3.4478
X13.2562Y-3.425
X10.4437Y-0.1187
X10.4953Y-0.0613
X10.6922Y-0.0416
X10.6937Y-0.0187
X5.1937Y-3.525
X5.2453Y-3.4675
X5.4422Y-3.4478
X5.4437Y-3.425
X2.7563Y-5.025
X2.8078Y-4.9675
X3.0047Y-4.9478
X3.0063Y-4.925
X5.3812Y-4.275
X5.4328Y-4.2175
X5.6297Y-4.1978
X5.6312Y-4.175
X0.6937Y-3.525
X0.7453Y-3.4675
X0.9422Y-3.4478
X0.9437Y-3.425
X1.4437Y-3.525
X1.4953Y-3.4675
X1.6922Y-3.4478
X1.6937Y-3.425
X-0.6937Y-0.4188
X-0.6922Y-0.3959
X-0.4953Y-0.3762
X-0.4437Y-0.3187
X-1.1812Y-2.775
X-1.1297Y-2.7175
X-0.9328Y-2.6978
X-0.9313Y-2.675
X10.4437Y-3.525
X10.4953Y-3.4675
X10.6922Y-3.4478
X10.6937Y-3.425
X7.4437Y-3.525
X7.4953Y-3.4675
X7.6922Y-3.4478
X7.6937Y-3.425
X10.4437Y-2.775
X10.4953Y-2.7175
X10.6922Y-2.6978
X10.6937Y-2.675
X13.7562Y-3.525
X13.8078Y-3.4675
X14.0047Y-3.4478
X14.0062Y-3.425
X-1.4625Y-5.025
X-1.4109Y-4.9675
X-1.2141Y-4.9478
X-1.2125Y-4.925
X13.0062Y-2.775
X13.0578Y-2.7175
X13.2547Y-2.6978
X13.2562Y-2.675
X9.6937Y-0.1187
X9.7453Y-0.0613
X9.9422Y-0.0416
X9.9437Y-0.0187
X12.2562Y-3.525
X12.3078Y-3.4675
X12.5047Y-3.4478
X12.5062Y-3.425
X4.8812Y-0.1187
X4.9328Y-0.0613
X5.1297Y-0.0416
X5.1312Y-0.0187
X6.5062Y-5.025
X6.5578Y-4.9675
X6.7547Y-4.9478
X6.7562Y-4.925
X0.0375Y-5.775
X0.0891Y-5.7175
X0.2859Y-5.6978
X0.2875Y-5.675
X3.5063Y-5.025
X3.5578Y-4.9675
X3.7547Y-4.9478
X3.7563Y-4.925
X2.0063Y-5.025
X2.0578Y-4.9675
X2.2547Y-4.9478
X2.2563Y-4.925
X2.3813Y-4.275
X2.4328Y-4.2175
X2.6297Y-4.1978
X2.6313Y-4.175
X6.7562Y-0.1187
X6.8078Y-0.0613
X7.0047Y-0.0416
X7.0062Y-0.0187
X-0.9Y-5.775
X-0.8484Y-5.7175
X-0.6516Y-5.6978
X-0.65Y-5.675
T0
M30
