G04 #@! TF.GenerationSoftware,KiCad,Pcbnew,(5.1.5)-3*
G04 #@! TF.CreationDate,2020-04-30T16:40:08-04:00*
G04 #@! TF.ProjectId,MiniVan,4d696e69-5661-46e2-9e6b-696361645f70,rev?*
G04 #@! TF.SameCoordinates,Original*
G04 #@! TF.FileFunction,Profile,NP*
%FSLAX46Y46*%
G04 Gerber Fmt 4.6, Leading zero omitted, Abs format (unit mm)*
G04 Created by KiCad (PCBNEW (5.1.5)-3) date 2020-04-30 16:40:08*
%MOMM*%
%LPD*%
G04 APERTURE LIST*
%ADD10C,0.050000*%
G04 APERTURE END LIST*
D10*
X-58737500Y-15081250D02*
X-58737500Y-17462500D01*
X385762500Y-15081250D02*
X385762500Y-17462500D01*
X-58737500Y4762500D02*
X-58737500Y-15081250D01*
X385762500Y4762500D02*
X385762500Y-15081250D01*
X234156250Y-148431250D02*
X234156250Y-147637500D01*
X237331250Y-148431250D02*
X234156250Y-148431250D01*
X237331250Y-147637500D02*
X237331250Y-148431250D01*
X234156250Y-147637500D02*
X237331250Y-147637500D01*
X234156250Y-146843750D02*
X234156250Y-146050000D01*
X237331250Y-146843750D02*
X234156250Y-146843750D01*
X237331250Y-146050000D02*
X237331250Y-146843750D01*
X234156250Y-146050000D02*
X237331250Y-146050000D01*
X237331250Y-115093750D02*
X234156250Y-115093750D01*
X237331250Y-115887500D02*
X237331250Y-115093750D01*
X234156250Y-115887500D02*
X237331250Y-115887500D01*
X234156250Y-115093750D02*
X234156250Y-115887500D01*
X234156250Y-117475000D02*
X234156250Y-116681250D01*
X237331250Y-117475000D02*
X234156250Y-117475000D01*
X237331250Y-116681250D02*
X237331250Y-117475000D01*
X234156250Y-116681250D02*
X237331250Y-116681250D01*
X237331250Y-41275000D02*
X234156250Y-41275000D01*
X237331250Y-42068750D02*
X237331250Y-41275000D01*
X234156250Y-42068750D02*
X237331250Y-42068750D01*
X234156250Y-41275000D02*
X234156250Y-42068750D01*
X237331250Y-39687500D02*
X234156250Y-39687500D01*
X237331250Y-40481250D02*
X237331250Y-39687500D01*
X234156250Y-40481250D02*
X237331250Y-40481250D01*
X234156250Y-39687500D02*
X234156250Y-40481250D01*
X237331250Y-70643750D02*
X234156250Y-70643750D01*
X237331250Y-71437500D02*
X237331250Y-70643750D01*
X234156250Y-71437500D02*
X237331250Y-71437500D01*
X234156250Y-70643750D02*
X234156250Y-71437500D01*
X237331250Y-72231250D02*
X234156250Y-72231250D01*
X237331250Y-73025000D02*
X237331250Y-72231250D01*
X234156250Y-73025000D02*
X237331250Y-73025000D01*
X234156250Y-72231250D02*
X234156250Y-73025000D01*
X309562500Y-24606250D02*
X309562500Y-21431250D01*
X311150000Y-24606250D02*
X309562500Y-24606250D01*
X311150000Y-21431250D02*
X311150000Y-24606250D01*
X309562500Y-21431250D02*
X311150000Y-21431250D01*
X87312500Y-24606250D02*
X87312500Y-21431250D01*
X90487500Y-24606250D02*
X87312500Y-24606250D01*
X90487500Y-21431250D02*
X90487500Y-24606250D01*
X87312500Y-21431250D02*
X90487500Y-21431250D01*
X98425000Y-21431250D02*
X97631250Y-21431250D01*
X91281250Y-21431250D02*
X91281250Y-24606250D01*
X93662500Y-24606250D02*
X93662500Y-21431250D01*
X99218750Y-21431250D02*
X99218750Y-24606250D01*
X92075000Y-21431250D02*
X91281250Y-21431250D01*
X99218750Y-21431250D02*
X100012500Y-21431250D01*
X97631250Y-21431250D02*
X97631250Y-24606250D01*
X97631250Y-24606250D02*
X98425000Y-24606250D01*
X98425000Y-24606250D02*
X98425000Y-21431250D01*
X94456250Y-24606250D02*
X95250000Y-24606250D01*
X95250000Y-24606250D02*
X95250000Y-21431250D01*
X99218750Y-24606250D02*
X100012500Y-24606250D01*
X92868750Y-21431250D02*
X92868750Y-24606250D01*
X92868750Y-24606250D02*
X93662500Y-24606250D01*
X93662500Y-21431250D02*
X92868750Y-21431250D01*
X96043750Y-21431250D02*
X96043750Y-24606250D01*
X95250000Y-21431250D02*
X94456250Y-21431250D01*
X100012500Y-21431250D02*
X100012500Y-24606250D01*
X92075000Y-24606250D02*
X92075000Y-21431250D01*
X96837500Y-24606250D02*
X96837500Y-21431250D01*
X96043750Y-24606250D02*
X96837500Y-24606250D01*
X96837500Y-21431250D02*
X96043750Y-21431250D01*
X91281250Y-24606250D02*
X92075000Y-24606250D01*
X94456250Y-21431250D02*
X94456250Y-24606250D01*
X84931250Y-21431250D02*
X84137500Y-21431250D01*
X77787500Y-21431250D02*
X77787500Y-24606250D01*
X80168750Y-24606250D02*
X80168750Y-21431250D01*
X85725000Y-21431250D02*
X85725000Y-24606250D01*
X78581250Y-21431250D02*
X77787500Y-21431250D01*
X85725000Y-21431250D02*
X86518750Y-21431250D01*
X84137500Y-21431250D02*
X84137500Y-24606250D01*
X84137500Y-24606250D02*
X84931250Y-24606250D01*
X84931250Y-24606250D02*
X84931250Y-21431250D01*
X80962500Y-24606250D02*
X81756250Y-24606250D01*
X81756250Y-24606250D02*
X81756250Y-21431250D01*
X85725000Y-24606250D02*
X86518750Y-24606250D01*
X79375000Y-21431250D02*
X79375000Y-24606250D01*
X79375000Y-24606250D02*
X80168750Y-24606250D01*
X80168750Y-21431250D02*
X79375000Y-21431250D01*
X82550000Y-21431250D02*
X82550000Y-24606250D01*
X81756250Y-21431250D02*
X80962500Y-21431250D01*
X86518750Y-21431250D02*
X86518750Y-24606250D01*
X78581250Y-24606250D02*
X78581250Y-21431250D01*
X83343750Y-24606250D02*
X83343750Y-21431250D01*
X82550000Y-24606250D02*
X83343750Y-24606250D01*
X83343750Y-21431250D02*
X82550000Y-21431250D01*
X77787500Y-24606250D02*
X78581250Y-24606250D01*
X80962500Y-21431250D02*
X80962500Y-24606250D01*
X288131250Y-21431250D02*
X288131250Y-24606250D01*
X288131250Y-24606250D02*
X308768750Y-24606250D01*
X308768750Y-21431250D02*
X288131250Y-21431250D01*
X308768750Y-24606250D02*
X308768750Y-21431250D01*
X311943750Y-21431250D02*
X311943750Y-24606250D01*
X311943750Y-24606250D02*
X332581250Y-24606250D01*
X332581250Y-21431250D02*
X311943750Y-21431250D01*
X332581250Y-24606250D02*
X332581250Y-21431250D01*
X100806250Y-21431250D02*
X100806250Y-24606250D01*
X100806250Y-24606250D02*
X121443750Y-24606250D01*
X121443750Y-21431250D02*
X100806250Y-21431250D01*
X121443750Y-24606250D02*
X121443750Y-21431250D01*
X162718750Y-21431250D02*
X162718750Y-24606250D01*
X162718750Y-24606250D02*
X183356250Y-24606250D01*
X183356250Y-21431250D02*
X162718750Y-21431250D01*
X183356250Y-24606250D02*
X183356250Y-21431250D01*
X159543750Y-21431250D02*
X159543750Y-24606250D01*
X160337500Y-24606250D02*
X160337500Y-21431250D01*
X161131250Y-21431250D02*
X161131250Y-24606250D01*
X159543750Y-24606250D02*
X160337500Y-24606250D01*
X156368750Y-24606250D02*
X157162500Y-24606250D01*
X161131250Y-21431250D02*
X161925000Y-21431250D01*
X161131250Y-24606250D02*
X161925000Y-24606250D01*
X155575000Y-21431250D02*
X154781250Y-21431250D01*
X156368750Y-21431250D02*
X156368750Y-24606250D01*
X155575000Y-24606250D02*
X155575000Y-21431250D01*
X157162500Y-24606250D02*
X157162500Y-21431250D01*
X158750000Y-21431250D02*
X157956250Y-21431250D01*
X124618750Y-24606250D02*
X124618750Y-21431250D01*
X122237500Y-21431250D02*
X122237500Y-24606250D01*
X130175000Y-21431250D02*
X130968750Y-21431250D01*
X129381250Y-21431250D02*
X128587500Y-21431250D01*
X131762500Y-21431250D02*
X131762500Y-24606250D01*
X123031250Y-21431250D02*
X122237500Y-21431250D01*
X130175000Y-21431250D02*
X130175000Y-24606250D01*
X130175000Y-24606250D02*
X130968750Y-24606250D01*
X123825000Y-21431250D02*
X123825000Y-24606250D01*
X127000000Y-21431250D02*
X127000000Y-24606250D01*
X131762500Y-24606250D02*
X152400000Y-24606250D01*
X123825000Y-24606250D02*
X124618750Y-24606250D01*
X126206250Y-21431250D02*
X125412500Y-21431250D01*
X130968750Y-21431250D02*
X130968750Y-24606250D01*
X127793750Y-24606250D02*
X127793750Y-21431250D01*
X127000000Y-24606250D02*
X127793750Y-24606250D01*
X123031250Y-24606250D02*
X123031250Y-21431250D01*
X122237500Y-24606250D02*
X123031250Y-24606250D01*
X158750000Y-24606250D02*
X158750000Y-21431250D01*
X128587500Y-21431250D02*
X128587500Y-24606250D01*
X128587500Y-24606250D02*
X129381250Y-24606250D01*
X152400000Y-24606250D02*
X152400000Y-21431250D01*
X154781250Y-21431250D02*
X154781250Y-24606250D01*
X129381250Y-24606250D02*
X129381250Y-21431250D01*
X153987500Y-21431250D02*
X153193750Y-21431250D01*
X127793750Y-21431250D02*
X127000000Y-21431250D01*
X152400000Y-21431250D02*
X131762500Y-21431250D01*
X153193750Y-24606250D02*
X153987500Y-24606250D01*
X125412500Y-24606250D02*
X126206250Y-24606250D01*
X126206250Y-24606250D02*
X126206250Y-21431250D01*
X125412500Y-21431250D02*
X125412500Y-24606250D01*
X157956250Y-21431250D02*
X157956250Y-24606250D01*
X154781250Y-24606250D02*
X155575000Y-24606250D01*
X153987500Y-24606250D02*
X153987500Y-21431250D01*
X157956250Y-24606250D02*
X158750000Y-24606250D01*
X160337500Y-21431250D02*
X159543750Y-21431250D01*
X161925000Y-21431250D02*
X161925000Y-24606250D01*
X153193750Y-21431250D02*
X153193750Y-24606250D01*
X124618750Y-21431250D02*
X123825000Y-21431250D01*
X157162500Y-21431250D02*
X156368750Y-21431250D01*
X370681250Y-21431250D02*
X370681250Y-24606250D01*
X371475000Y-24606250D02*
X371475000Y-21431250D01*
X372268750Y-21431250D02*
X372268750Y-24606250D01*
X370681250Y-24606250D02*
X371475000Y-24606250D01*
X367506250Y-24606250D02*
X368300000Y-24606250D01*
X372268750Y-21431250D02*
X373062500Y-21431250D01*
X372268750Y-24606250D02*
X373062500Y-24606250D01*
X366712500Y-21431250D02*
X365918750Y-21431250D01*
X367506250Y-21431250D02*
X367506250Y-24606250D01*
X366712500Y-24606250D02*
X366712500Y-21431250D01*
X368300000Y-24606250D02*
X368300000Y-21431250D01*
X369887500Y-21431250D02*
X369093750Y-21431250D01*
X335756250Y-24606250D02*
X335756250Y-21431250D01*
X333375000Y-21431250D02*
X333375000Y-24606250D01*
X341312500Y-21431250D02*
X342106250Y-21431250D01*
X340518750Y-21431250D02*
X339725000Y-21431250D01*
X342900000Y-21431250D02*
X342900000Y-24606250D01*
X334168750Y-21431250D02*
X333375000Y-21431250D01*
X341312500Y-21431250D02*
X341312500Y-24606250D01*
X341312500Y-24606250D02*
X342106250Y-24606250D01*
X334962500Y-21431250D02*
X334962500Y-24606250D01*
X338137500Y-21431250D02*
X338137500Y-24606250D01*
X342900000Y-24606250D02*
X363537500Y-24606250D01*
X334962500Y-24606250D02*
X335756250Y-24606250D01*
X337343750Y-21431250D02*
X336550000Y-21431250D01*
X342106250Y-21431250D02*
X342106250Y-24606250D01*
X338931250Y-24606250D02*
X338931250Y-21431250D01*
X338137500Y-24606250D02*
X338931250Y-24606250D01*
X334168750Y-24606250D02*
X334168750Y-21431250D01*
X333375000Y-24606250D02*
X334168750Y-24606250D01*
X369887500Y-24606250D02*
X369887500Y-21431250D01*
X339725000Y-21431250D02*
X339725000Y-24606250D01*
X339725000Y-24606250D02*
X340518750Y-24606250D01*
X363537500Y-24606250D02*
X363537500Y-21431250D01*
X365918750Y-21431250D02*
X365918750Y-24606250D01*
X340518750Y-24606250D02*
X340518750Y-21431250D01*
X365125000Y-21431250D02*
X364331250Y-21431250D01*
X338931250Y-21431250D02*
X338137500Y-21431250D01*
X363537500Y-21431250D02*
X342900000Y-21431250D01*
X364331250Y-24606250D02*
X365125000Y-24606250D01*
X336550000Y-24606250D02*
X337343750Y-24606250D01*
X337343750Y-24606250D02*
X337343750Y-21431250D01*
X336550000Y-21431250D02*
X336550000Y-24606250D01*
X369093750Y-21431250D02*
X369093750Y-24606250D01*
X365918750Y-24606250D02*
X366712500Y-24606250D01*
X365125000Y-24606250D02*
X365125000Y-21431250D01*
X369093750Y-24606250D02*
X369887500Y-24606250D01*
X371475000Y-21431250D02*
X370681250Y-21431250D01*
X373062500Y-21431250D02*
X373062500Y-24606250D01*
X364331250Y-21431250D02*
X364331250Y-24606250D01*
X335756250Y-21431250D02*
X334962500Y-21431250D01*
X368300000Y-21431250D02*
X367506250Y-21431250D01*
X284956250Y-21431250D02*
X284956250Y-24606250D01*
X285750000Y-24606250D02*
X285750000Y-21431250D01*
X286543750Y-21431250D02*
X286543750Y-24606250D01*
X284956250Y-24606250D02*
X285750000Y-24606250D01*
X281781250Y-24606250D02*
X282575000Y-24606250D01*
X286543750Y-21431250D02*
X287337500Y-21431250D01*
X286543750Y-24606250D02*
X287337500Y-24606250D01*
X280987500Y-21431250D02*
X280193750Y-21431250D01*
X281781250Y-21431250D02*
X281781250Y-24606250D01*
X280987500Y-24606250D02*
X280987500Y-21431250D01*
X282575000Y-24606250D02*
X282575000Y-21431250D01*
X284162500Y-21431250D02*
X283368750Y-21431250D01*
X250031250Y-24606250D02*
X250031250Y-21431250D01*
X247650000Y-21431250D02*
X247650000Y-24606250D01*
X255587500Y-21431250D02*
X256381250Y-21431250D01*
X254793750Y-21431250D02*
X254000000Y-21431250D01*
X257175000Y-21431250D02*
X257175000Y-24606250D01*
X248443750Y-21431250D02*
X247650000Y-21431250D01*
X255587500Y-21431250D02*
X255587500Y-24606250D01*
X255587500Y-24606250D02*
X256381250Y-24606250D01*
X249237500Y-21431250D02*
X249237500Y-24606250D01*
X252412500Y-21431250D02*
X252412500Y-24606250D01*
X257175000Y-24606250D02*
X277812500Y-24606250D01*
X249237500Y-24606250D02*
X250031250Y-24606250D01*
X251618750Y-21431250D02*
X250825000Y-21431250D01*
X256381250Y-21431250D02*
X256381250Y-24606250D01*
X253206250Y-24606250D02*
X253206250Y-21431250D01*
X252412500Y-24606250D02*
X253206250Y-24606250D01*
X248443750Y-24606250D02*
X248443750Y-21431250D01*
X247650000Y-24606250D02*
X248443750Y-24606250D01*
X284162500Y-24606250D02*
X284162500Y-21431250D01*
X254000000Y-21431250D02*
X254000000Y-24606250D01*
X254000000Y-24606250D02*
X254793750Y-24606250D01*
X277812500Y-24606250D02*
X277812500Y-21431250D01*
X280193750Y-21431250D02*
X280193750Y-24606250D01*
X254793750Y-24606250D02*
X254793750Y-21431250D01*
X279400000Y-21431250D02*
X278606250Y-21431250D01*
X253206250Y-21431250D02*
X252412500Y-21431250D01*
X277812500Y-21431250D02*
X257175000Y-21431250D01*
X278606250Y-24606250D02*
X279400000Y-24606250D01*
X250825000Y-24606250D02*
X251618750Y-24606250D01*
X251618750Y-24606250D02*
X251618750Y-21431250D01*
X250825000Y-21431250D02*
X250825000Y-24606250D01*
X283368750Y-21431250D02*
X283368750Y-24606250D01*
X280193750Y-24606250D02*
X280987500Y-24606250D01*
X279400000Y-24606250D02*
X279400000Y-21431250D01*
X283368750Y-24606250D02*
X284162500Y-24606250D01*
X285750000Y-21431250D02*
X284956250Y-21431250D01*
X287337500Y-21431250D02*
X287337500Y-24606250D01*
X278606250Y-21431250D02*
X278606250Y-24606250D01*
X250031250Y-21431250D02*
X249237500Y-21431250D01*
X282575000Y-21431250D02*
X281781250Y-21431250D01*
X221456250Y-21431250D02*
X221456250Y-24606250D01*
X222250000Y-24606250D02*
X222250000Y-21431250D01*
X223043750Y-21431250D02*
X223043750Y-24606250D01*
X221456250Y-24606250D02*
X222250000Y-24606250D01*
X218281250Y-24606250D02*
X219075000Y-24606250D01*
X223043750Y-21431250D02*
X223837500Y-21431250D01*
X223043750Y-24606250D02*
X223837500Y-24606250D01*
X217487500Y-21431250D02*
X216693750Y-21431250D01*
X218281250Y-21431250D02*
X218281250Y-24606250D01*
X217487500Y-24606250D02*
X217487500Y-21431250D01*
X219075000Y-24606250D02*
X219075000Y-21431250D01*
X220662500Y-21431250D02*
X219868750Y-21431250D01*
X186531250Y-24606250D02*
X186531250Y-21431250D01*
X184150000Y-21431250D02*
X184150000Y-24606250D01*
X192087500Y-21431250D02*
X192881250Y-21431250D01*
X191293750Y-21431250D02*
X190500000Y-21431250D01*
X193675000Y-21431250D02*
X193675000Y-24606250D01*
X184943750Y-21431250D02*
X184150000Y-21431250D01*
X192087500Y-21431250D02*
X192087500Y-24606250D01*
X192087500Y-24606250D02*
X192881250Y-24606250D01*
X185737500Y-21431250D02*
X185737500Y-24606250D01*
X188912500Y-21431250D02*
X188912500Y-24606250D01*
X193675000Y-24606250D02*
X214312500Y-24606250D01*
X185737500Y-24606250D02*
X186531250Y-24606250D01*
X188118750Y-21431250D02*
X187325000Y-21431250D01*
X192881250Y-21431250D02*
X192881250Y-24606250D01*
X189706250Y-24606250D02*
X189706250Y-21431250D01*
X188912500Y-24606250D02*
X189706250Y-24606250D01*
X184943750Y-24606250D02*
X184943750Y-21431250D01*
X184150000Y-24606250D02*
X184943750Y-24606250D01*
X220662500Y-24606250D02*
X220662500Y-21431250D01*
X190500000Y-21431250D02*
X190500000Y-24606250D01*
X190500000Y-24606250D02*
X191293750Y-24606250D01*
X214312500Y-24606250D02*
X214312500Y-21431250D01*
X216693750Y-21431250D02*
X216693750Y-24606250D01*
X191293750Y-24606250D02*
X191293750Y-21431250D01*
X215900000Y-21431250D02*
X215106250Y-21431250D01*
X189706250Y-21431250D02*
X188912500Y-21431250D01*
X214312500Y-21431250D02*
X193675000Y-21431250D01*
X215106250Y-24606250D02*
X215900000Y-24606250D01*
X187325000Y-24606250D02*
X188118750Y-24606250D01*
X188118750Y-24606250D02*
X188118750Y-21431250D01*
X187325000Y-21431250D02*
X187325000Y-24606250D01*
X219868750Y-21431250D02*
X219868750Y-24606250D01*
X216693750Y-24606250D02*
X217487500Y-24606250D01*
X215900000Y-24606250D02*
X215900000Y-21431250D01*
X219868750Y-24606250D02*
X220662500Y-24606250D01*
X222250000Y-21431250D02*
X221456250Y-21431250D01*
X223837500Y-21431250D02*
X223837500Y-24606250D01*
X215106250Y-21431250D02*
X215106250Y-24606250D01*
X186531250Y-21431250D02*
X185737500Y-21431250D01*
X219075000Y-21431250D02*
X218281250Y-21431250D01*
X53181250Y-21431250D02*
X53181250Y-24606250D01*
X52387500Y-21431250D02*
X51593750Y-21431250D01*
X53975000Y-24606250D02*
X53975000Y-21431250D01*
X53181250Y-24606250D02*
X53975000Y-24606250D01*
X76993750Y-21431250D02*
X56356250Y-21431250D01*
X76993750Y-24606250D02*
X76993750Y-21431250D01*
X50800000Y-24606250D02*
X50800000Y-21431250D01*
X50006250Y-24606250D02*
X50800000Y-24606250D01*
X49212500Y-21431250D02*
X48418750Y-21431250D01*
X50006250Y-21431250D02*
X50006250Y-24606250D01*
X49212500Y-24606250D02*
X49212500Y-21431250D01*
X56356250Y-21431250D02*
X56356250Y-24606250D01*
X54768750Y-21431250D02*
X54768750Y-24606250D01*
X54768750Y-21431250D02*
X55562500Y-21431250D01*
X54768750Y-24606250D02*
X55562500Y-24606250D01*
X51593750Y-21431250D02*
X51593750Y-24606250D01*
X50800000Y-21431250D02*
X50006250Y-21431250D01*
X52387500Y-24606250D02*
X52387500Y-21431250D01*
X51593750Y-24606250D02*
X52387500Y-24606250D01*
X53975000Y-21431250D02*
X53181250Y-21431250D01*
X55562500Y-21431250D02*
X55562500Y-24606250D01*
X48418750Y-21431250D02*
X48418750Y-24606250D01*
X47625000Y-21431250D02*
X46831250Y-21431250D01*
X56356250Y-24606250D02*
X76993750Y-24606250D01*
X46831250Y-21431250D02*
X46831250Y-24606250D01*
X48418750Y-24606250D02*
X49212500Y-24606250D01*
X47625000Y-24606250D02*
X47625000Y-21431250D01*
X46831250Y-24606250D02*
X47625000Y-24606250D01*
X22225000Y-21431250D02*
X22225000Y-24606250D01*
X21431250Y-21431250D02*
X20637500Y-21431250D01*
X23018750Y-24606250D02*
X23018750Y-21431250D01*
X22225000Y-24606250D02*
X23018750Y-24606250D01*
X46037500Y-21431250D02*
X25400000Y-21431250D01*
X46037500Y-24606250D02*
X46037500Y-21431250D01*
X19843750Y-24606250D02*
X19843750Y-21431250D01*
X19050000Y-24606250D02*
X19843750Y-24606250D01*
X18256250Y-21431250D02*
X17462500Y-21431250D01*
X19050000Y-21431250D02*
X19050000Y-24606250D01*
X18256250Y-24606250D02*
X18256250Y-21431250D01*
X25400000Y-21431250D02*
X25400000Y-24606250D01*
X23812500Y-21431250D02*
X23812500Y-24606250D01*
X23812500Y-21431250D02*
X24606250Y-21431250D01*
X23812500Y-24606250D02*
X24606250Y-24606250D01*
X20637500Y-21431250D02*
X20637500Y-24606250D01*
X19843750Y-21431250D02*
X19050000Y-21431250D01*
X21431250Y-24606250D02*
X21431250Y-21431250D01*
X20637500Y-24606250D02*
X21431250Y-24606250D01*
X23018750Y-21431250D02*
X22225000Y-21431250D01*
X24606250Y-21431250D02*
X24606250Y-24606250D01*
X17462500Y-21431250D02*
X17462500Y-24606250D01*
X16668750Y-21431250D02*
X15875000Y-21431250D01*
X25400000Y-24606250D02*
X46037500Y-24606250D01*
X15875000Y-21431250D02*
X15875000Y-24606250D01*
X17462500Y-24606250D02*
X18256250Y-24606250D01*
X16668750Y-24606250D02*
X16668750Y-21431250D01*
X15875000Y-24606250D02*
X16668750Y-24606250D01*
X-8731250Y-21431250D02*
X-8731250Y-24606250D01*
X-9525000Y-21431250D02*
X-10318750Y-21431250D01*
X-7937500Y-24606250D02*
X-7937500Y-21431250D01*
X-8731250Y-24606250D02*
X-7937500Y-24606250D01*
X15081250Y-21431250D02*
X-5556250Y-21431250D01*
X15081250Y-24606250D02*
X15081250Y-21431250D01*
X-11112500Y-24606250D02*
X-11112500Y-21431250D01*
X-11906250Y-24606250D02*
X-11112500Y-24606250D01*
X-12700000Y-21431250D02*
X-13493750Y-21431250D01*
X-11906250Y-21431250D02*
X-11906250Y-24606250D01*
X-12700000Y-24606250D02*
X-12700000Y-21431250D01*
X-5556250Y-21431250D02*
X-5556250Y-24606250D01*
X-7143750Y-21431250D02*
X-7143750Y-24606250D01*
X-7143750Y-21431250D02*
X-6350000Y-21431250D01*
X-7143750Y-24606250D02*
X-6350000Y-24606250D01*
X-10318750Y-21431250D02*
X-10318750Y-24606250D01*
X-11112500Y-21431250D02*
X-11906250Y-21431250D01*
X-9525000Y-24606250D02*
X-9525000Y-21431250D01*
X-10318750Y-24606250D02*
X-9525000Y-24606250D01*
X-7937500Y-21431250D02*
X-8731250Y-21431250D01*
X-6350000Y-21431250D02*
X-6350000Y-24606250D01*
X-13493750Y-21431250D02*
X-13493750Y-24606250D01*
X-14287500Y-21431250D02*
X-15081250Y-21431250D01*
X-5556250Y-24606250D02*
X15081250Y-24606250D01*
X-15081250Y-21431250D02*
X-15081250Y-24606250D01*
X-13493750Y-24606250D02*
X-12700000Y-24606250D01*
X-14287500Y-24606250D02*
X-14287500Y-21431250D01*
X-15081250Y-24606250D02*
X-14287500Y-24606250D01*
X-36512500Y-24606250D02*
X-15875000Y-24606250D01*
X-15875000Y-21431250D02*
X-36512500Y-21431250D01*
X-15875000Y-24606250D02*
X-15875000Y-21431250D01*
X237331250Y-109537500D02*
X237331250Y-75406250D01*
X234156250Y-75406250D02*
X234156250Y-109537500D01*
X234156250Y-109537500D02*
X237331250Y-109537500D01*
X234156250Y-75406250D02*
X237331250Y-75406250D01*
X237331250Y-68262500D02*
X234156250Y-68262500D01*
X234156250Y-66675000D02*
X237331250Y-66675000D01*
X234156250Y-67468750D02*
X237331250Y-67468750D01*
X234156250Y-68262500D02*
X234156250Y-67468750D01*
X237331250Y-67468750D02*
X237331250Y-68262500D01*
X237331250Y-74612500D02*
X234156250Y-74612500D01*
X234156250Y-74612500D02*
X234156250Y-73818750D01*
X237331250Y-73818750D02*
X237331250Y-74612500D01*
X234156250Y-73818750D02*
X237331250Y-73818750D01*
X234156250Y-65881250D02*
X237331250Y-65881250D01*
X237331250Y-69850000D02*
X234156250Y-69850000D01*
X234156250Y-69850000D02*
X234156250Y-69056250D01*
X234156250Y-65881250D02*
X234156250Y-66675000D01*
X237331250Y-69056250D02*
X237331250Y-69850000D01*
X234156250Y-69056250D02*
X237331250Y-69056250D01*
X237331250Y-66675000D02*
X237331250Y-65881250D01*
X234156250Y-64293750D02*
X234156250Y-65087500D01*
X237331250Y-65087500D02*
X237331250Y-64293750D01*
X234156250Y-65087500D02*
X237331250Y-65087500D01*
X237331250Y-37306250D02*
X234156250Y-37306250D01*
X234156250Y-35718750D02*
X237331250Y-35718750D01*
X234156250Y-36512500D02*
X237331250Y-36512500D01*
X234156250Y-37306250D02*
X234156250Y-36512500D01*
X237331250Y-36512500D02*
X237331250Y-37306250D01*
X237331250Y-43656250D02*
X234156250Y-43656250D01*
X234156250Y-43656250D02*
X234156250Y-42862500D01*
X237331250Y-42862500D02*
X237331250Y-43656250D01*
X234156250Y-42862500D02*
X237331250Y-42862500D01*
X234156250Y-34925000D02*
X237331250Y-34925000D01*
X237331250Y-38893750D02*
X234156250Y-38893750D01*
X234156250Y-38893750D02*
X234156250Y-38100000D01*
X234156250Y-34925000D02*
X234156250Y-35718750D01*
X237331250Y-38100000D02*
X237331250Y-38893750D01*
X234156250Y-38100000D02*
X237331250Y-38100000D01*
X237331250Y-35718750D02*
X237331250Y-34925000D01*
X234156250Y-119856250D02*
X234156250Y-140493750D01*
X237331250Y-119856250D02*
X237331250Y-140493750D01*
X234156250Y-119856250D02*
X237331250Y-119856250D01*
X234156250Y-118268750D02*
X237331250Y-118268750D01*
X237331250Y-118268750D02*
X237331250Y-119062500D01*
X237331250Y-119062500D02*
X234156250Y-119062500D01*
X234156250Y-119062500D02*
X234156250Y-118268750D01*
X237331250Y-111125000D02*
X237331250Y-110331250D01*
X234156250Y-111918750D02*
X237331250Y-111918750D01*
X237331250Y-111918750D02*
X237331250Y-112712500D01*
X234156250Y-112712500D02*
X234156250Y-111918750D01*
X237331250Y-112712500D02*
X234156250Y-112712500D01*
X234156250Y-111125000D02*
X237331250Y-111125000D01*
X234156250Y-110331250D02*
X234156250Y-111125000D01*
X234156250Y-114300000D02*
X234156250Y-113506250D01*
X234156250Y-113506250D02*
X237331250Y-113506250D01*
X237331250Y-113506250D02*
X237331250Y-114300000D01*
X237331250Y-114300000D02*
X234156250Y-114300000D01*
X234156250Y-110331250D02*
X237331250Y-110331250D01*
X234156250Y-140493750D02*
X237331250Y-140493750D01*
X237331250Y-142081250D02*
X237331250Y-141287500D01*
X234156250Y-142081250D02*
X237331250Y-142081250D01*
X234156250Y-141287500D02*
X234156250Y-142081250D01*
X234156250Y-142875000D02*
X237331250Y-142875000D01*
X237331250Y-142875000D02*
X237331250Y-143668750D01*
X237331250Y-143668750D02*
X234156250Y-143668750D01*
X234156250Y-143668750D02*
X234156250Y-142875000D01*
X234156250Y-144462500D02*
X237331250Y-144462500D01*
X237331250Y-144462500D02*
X237331250Y-145256250D01*
X237331250Y-145256250D02*
X234156250Y-145256250D01*
X234156250Y-145256250D02*
X234156250Y-144462500D01*
X237331250Y-150018750D02*
X234156250Y-150018750D01*
X237331250Y-149225000D02*
X237331250Y-150018750D01*
X234156250Y-149225000D02*
X237331250Y-149225000D01*
X234156250Y-150018750D02*
X234156250Y-149225000D01*
X-36512500Y-21431250D02*
X-36512500Y-24606250D01*
X-38100000Y-24606250D02*
X-37306250Y-24606250D01*
X-38100000Y-21431250D02*
X-38100000Y-24606250D01*
X-38100000Y-21431250D02*
X-37306250Y-21431250D01*
X-38893750Y-21431250D02*
X-39687500Y-21431250D01*
X-38893750Y-24606250D02*
X-38893750Y-21431250D01*
X-39687500Y-24606250D02*
X-38893750Y-24606250D01*
X-39687500Y-21431250D02*
X-39687500Y-24606250D01*
X-40481250Y-21431250D02*
X-41275000Y-21431250D01*
X-40481250Y-24606250D02*
X-40481250Y-21431250D01*
X-41275000Y-24606250D02*
X-40481250Y-24606250D01*
X-41275000Y-21431250D02*
X-41275000Y-24606250D01*
X-42068750Y-21431250D02*
X-42862500Y-21431250D01*
X-42068750Y-24606250D02*
X-42068750Y-21431250D01*
X-42862500Y-24606250D02*
X-42068750Y-24606250D01*
X-42862500Y-21431250D02*
X-42862500Y-24606250D01*
X-43656250Y-21431250D02*
X-44450000Y-21431250D01*
X-43656250Y-24606250D02*
X-43656250Y-21431250D01*
X-44450000Y-24606250D02*
X-43656250Y-24606250D01*
X-44450000Y-21431250D02*
X-44450000Y-24606250D01*
X-45243750Y-21431250D02*
X-46037500Y-21431250D01*
X-45243750Y-24606250D02*
X-45243750Y-21431250D01*
X-46037500Y-24606250D02*
X-45243750Y-24606250D01*
X-46037500Y-21431250D02*
X-46037500Y-24606250D01*
X237331250Y-64293750D02*
X237331250Y-44450000D01*
X234156250Y-44450000D02*
X234156250Y-64293750D01*
X234156250Y-31750000D02*
X234156250Y-34131250D01*
X237331250Y-31750000D02*
X237331250Y-34131250D01*
X224631250Y-24606250D02*
X230187500Y-24606250D01*
X224631250Y-21431250D02*
X227806250Y-21431250D01*
X237331250Y-44450000D02*
X234156250Y-44450000D01*
X234156250Y-141287500D02*
X237331250Y-141287500D01*
X237331250Y-150812500D02*
X237331250Y-157162500D01*
X234156250Y-150812500D02*
X237331250Y-150812500D01*
X234156250Y-155575000D02*
X234156250Y-150812500D01*
X234156250Y-28575000D02*
X234156250Y-31750000D01*
X237331250Y-31750000D02*
X237331250Y-28575000D01*
X234156250Y-34131250D02*
X237331250Y-34131250D01*
X373856250Y-21431250D02*
X381793750Y-21431250D01*
X373856250Y-24606250D02*
X373856250Y-21431250D01*
X381793750Y-24606250D02*
X373856250Y-24606250D01*
X241300000Y-24606250D02*
X246856250Y-24606250D01*
X246856250Y-21431250D02*
X227806250Y-21431250D01*
X246856250Y-24606250D02*
X246856250Y-21431250D01*
X224631250Y-21431250D02*
X224631250Y-24606250D01*
X-54768750Y-24606250D02*
X-46831250Y-24606250D01*
X-54768750Y-21431250D02*
X-46831250Y-21431250D01*
X-37306250Y-21431250D02*
X-37306250Y-24606250D01*
X-46831250Y-21431250D02*
X-46831250Y-24606250D01*
X-58737500Y-28575000D02*
X-58737500Y-158750000D01*
X241300000Y-162718750D02*
X334168750Y-162718750D01*
X385762500Y-28575000D02*
X385762500Y-31750000D01*
X381793750Y-24606250D02*
G75*
G02X385762500Y-28575000I0J-3968750D01*
G01*
X230187500Y-24606250D02*
G75*
G02X234156250Y-28575000I0J-3968750D01*
G01*
X385762500Y-63500000D02*
X385762500Y-31750000D01*
X385762500Y-116681250D02*
X385762500Y-63500000D01*
X385762500Y-142081250D02*
X385762500Y-116681250D01*
X385762500Y-158750000D02*
X385762500Y-142081250D01*
X237331250Y-157162500D02*
X237331250Y-158750000D01*
X234156250Y-157162500D02*
X234156250Y-158750000D01*
X229393750Y-162718750D02*
X230187500Y-162718750D01*
X191293750Y-162718750D02*
X229393750Y-162718750D01*
X24606250Y-162718750D02*
X191293750Y-162718750D01*
X-7143750Y-162718750D02*
X24606250Y-162718750D01*
X-54768750Y-162718750D02*
X-7143750Y-162718750D01*
X334168750Y-162718750D02*
X381793750Y-162718750D01*
X241300000Y-162718750D02*
G75*
G02X237331250Y-158750000I0J3968750D01*
G01*
X234156250Y-158750000D02*
G75*
G02X230187500Y-162718750I-3968750J0D01*
G01*
X234156250Y-155575000D02*
X234156250Y-157162500D01*
X237331250Y-28575000D02*
G75*
G02X241300000Y-24606250I3968750J0D01*
G01*
X-58737500Y-28575000D02*
G75*
G02X-54768750Y-24606250I3968750J0D01*
G01*
X-7143750Y8731250D02*
X-54768750Y8731250D01*
X72231250Y8731250D02*
X-7143750Y8731250D01*
X119856250Y8731250D02*
X72231250Y8731250D01*
X151606250Y8731250D02*
X119856250Y8731250D01*
X191293750Y8731250D02*
X151606250Y8731250D01*
X238918750Y8731250D02*
X191293750Y8731250D01*
X284956250Y8731250D02*
X238918750Y8731250D01*
X310356250Y8731250D02*
X284956250Y8731250D01*
X381793750Y8731250D02*
X310356250Y8731250D01*
X385762500Y-17462500D02*
G75*
G02X381793750Y-21431250I-3968750J0D01*
G01*
X-54768750Y-21431250D02*
G75*
G02X-58737500Y-17462500I0J3968750D01*
G01*
X381793750Y8731250D02*
G75*
G02X385762500Y4762500I0J-3968750D01*
G01*
X385762500Y-158750000D02*
G75*
G02X381793750Y-162718750I-3968750J0D01*
G01*
X-54768750Y-162718750D02*
G75*
G02X-58737500Y-158750000I0J3968750D01*
G01*
X-58737500Y4762500D02*
G75*
G02X-54768750Y8731250I3968750J0D01*
G01*
M02*
