G04 #@! TF.GenerationSoftware,KiCad,Pcbnew,(5.1.5)-3*
G04 #@! TF.CreationDate,2020-04-30T16:40:07-04:00*
G04 #@! TF.ProjectId,MiniVan,4d696e69-5661-46e2-9e6b-696361645f70,rev?*
G04 #@! TF.SameCoordinates,Original*
G04 #@! TF.FileFunction,Legend,Bot*
G04 #@! TF.FilePolarity,Positive*
%FSLAX46Y46*%
G04 Gerber Fmt 4.6, Leading zero omitted, Abs format (unit mm)*
G04 Created by KiCad (PCBNEW (5.1.5)-3) date 2020-04-30 16:40:07*
%MOMM*%
%LPD*%
G04 APERTURE LIST*
%ADD10C,0.762000*%
%ADD11C,0.381000*%
%ADD12C,0.150000*%
G04 APERTURE END LIST*
D10*
X204076904Y-16585595D02*
X204076904Y-11505595D01*
X202867380Y-11505595D01*
X202141666Y-11747500D01*
X201657857Y-12231309D01*
X201415952Y-12715119D01*
X201174047Y-13682738D01*
X201174047Y-14408452D01*
X201415952Y-15376071D01*
X201657857Y-15859880D01*
X202141666Y-16343690D01*
X202867380Y-16585595D01*
X204076904Y-16585595D01*
X197061666Y-16343690D02*
X197545476Y-16585595D01*
X198513095Y-16585595D01*
X198996904Y-16343690D01*
X199238809Y-15859880D01*
X199238809Y-13924642D01*
X198996904Y-13440833D01*
X198513095Y-13198928D01*
X197545476Y-13198928D01*
X197061666Y-13440833D01*
X196819761Y-13924642D01*
X196819761Y-14408452D01*
X199238809Y-14892261D01*
X195368333Y-13198928D02*
X193433095Y-13198928D01*
X194642619Y-11505595D02*
X194642619Y-15859880D01*
X194400714Y-16343690D01*
X193916904Y-16585595D01*
X193433095Y-16585595D01*
X189562619Y-16585595D02*
X189562619Y-13924642D01*
X189804523Y-13440833D01*
X190288333Y-13198928D01*
X191255952Y-13198928D01*
X191739761Y-13440833D01*
X189562619Y-16343690D02*
X190046428Y-16585595D01*
X191255952Y-16585595D01*
X191739761Y-16343690D01*
X191981666Y-15859880D01*
X191981666Y-15376071D01*
X191739761Y-14892261D01*
X191255952Y-14650357D01*
X190046428Y-14650357D01*
X189562619Y-14408452D01*
X184966428Y-16343690D02*
X185450238Y-16585595D01*
X186417857Y-16585595D01*
X186901666Y-16343690D01*
X187143571Y-16101785D01*
X187385476Y-15617976D01*
X187385476Y-14166547D01*
X187143571Y-13682738D01*
X186901666Y-13440833D01*
X186417857Y-13198928D01*
X185450238Y-13198928D01*
X184966428Y-13440833D01*
X182789285Y-16585595D02*
X182789285Y-11505595D01*
X180612142Y-16585595D02*
X180612142Y-13924642D01*
X180854047Y-13440833D01*
X181337857Y-13198928D01*
X182063571Y-13198928D01*
X182547380Y-13440833D01*
X182789285Y-13682738D01*
X176015952Y-16585595D02*
X176015952Y-13924642D01*
X176257857Y-13440833D01*
X176741666Y-13198928D01*
X177709285Y-13198928D01*
X178193095Y-13440833D01*
X176015952Y-16343690D02*
X176499761Y-16585595D01*
X177709285Y-16585595D01*
X178193095Y-16343690D01*
X178435000Y-15859880D01*
X178435000Y-15376071D01*
X178193095Y-14892261D01*
X177709285Y-14650357D01*
X176499761Y-14650357D01*
X176015952Y-14408452D01*
X173596904Y-16585595D02*
X173596904Y-11505595D01*
X173596904Y-13440833D02*
X173113095Y-13198928D01*
X172145476Y-13198928D01*
X171661666Y-13440833D01*
X171419761Y-13682738D01*
X171177857Y-14166547D01*
X171177857Y-15617976D01*
X171419761Y-16101785D01*
X171661666Y-16343690D01*
X172145476Y-16585595D01*
X173113095Y-16585595D01*
X173596904Y-16343690D01*
X168275000Y-16585595D02*
X168758809Y-16343690D01*
X169000714Y-15859880D01*
X169000714Y-11505595D01*
X164404523Y-16343690D02*
X164888333Y-16585595D01*
X165855952Y-16585595D01*
X166339761Y-16343690D01*
X166581666Y-15859880D01*
X166581666Y-13924642D01*
X166339761Y-13440833D01*
X165855952Y-13198928D01*
X164888333Y-13198928D01*
X164404523Y-13440833D01*
X164162619Y-13924642D01*
X164162619Y-14408452D01*
X166581666Y-14892261D01*
X155695952Y-16585595D02*
X158115000Y-16585595D01*
X158115000Y-11505595D01*
X151825476Y-13198928D02*
X151825476Y-16585595D01*
X154002619Y-13198928D02*
X154002619Y-15859880D01*
X153760714Y-16343690D01*
X153276904Y-16585595D01*
X152551190Y-16585595D01*
X152067380Y-16343690D01*
X151825476Y-16101785D01*
X147229285Y-13198928D02*
X147229285Y-17311309D01*
X147471190Y-17795119D01*
X147713095Y-18037023D01*
X148196904Y-18278928D01*
X148922619Y-18278928D01*
X149406428Y-18037023D01*
X147229285Y-16343690D02*
X147713095Y-16585595D01*
X148680714Y-16585595D01*
X149164523Y-16343690D01*
X149406428Y-16101785D01*
X149648333Y-15617976D01*
X149648333Y-14166547D01*
X149406428Y-13682738D01*
X149164523Y-13440833D01*
X148680714Y-13198928D01*
X147713095Y-13198928D01*
X147229285Y-13440833D01*
X142633095Y-13198928D02*
X142633095Y-17311309D01*
X142875000Y-17795119D01*
X143116904Y-18037023D01*
X143600714Y-18278928D01*
X144326428Y-18278928D01*
X144810238Y-18037023D01*
X142633095Y-16343690D02*
X143116904Y-16585595D01*
X144084523Y-16585595D01*
X144568333Y-16343690D01*
X144810238Y-16101785D01*
X145052142Y-15617976D01*
X145052142Y-14166547D01*
X144810238Y-13682738D01*
X144568333Y-13440833D01*
X144084523Y-13198928D01*
X143116904Y-13198928D01*
X142633095Y-13440833D01*
X138036904Y-16585595D02*
X138036904Y-13924642D01*
X138278809Y-13440833D01*
X138762619Y-13198928D01*
X139730238Y-13198928D01*
X140214047Y-13440833D01*
X138036904Y-16343690D02*
X138520714Y-16585595D01*
X139730238Y-16585595D01*
X140214047Y-16343690D01*
X140455952Y-15859880D01*
X140455952Y-15376071D01*
X140214047Y-14892261D01*
X139730238Y-14650357D01*
X138520714Y-14650357D01*
X138036904Y-14408452D01*
X133440714Y-13198928D02*
X133440714Y-17311309D01*
X133682619Y-17795119D01*
X133924523Y-18037023D01*
X134408333Y-18278928D01*
X135134047Y-18278928D01*
X135617857Y-18037023D01*
X133440714Y-16343690D02*
X133924523Y-16585595D01*
X134892142Y-16585595D01*
X135375952Y-16343690D01*
X135617857Y-16101785D01*
X135859761Y-15617976D01*
X135859761Y-14166547D01*
X135617857Y-13682738D01*
X135375952Y-13440833D01*
X134892142Y-13198928D01*
X133924523Y-13198928D01*
X133440714Y-13440833D01*
X129086428Y-16343690D02*
X129570238Y-16585595D01*
X130537857Y-16585595D01*
X131021666Y-16343690D01*
X131263571Y-15859880D01*
X131263571Y-13924642D01*
X131021666Y-13440833D01*
X130537857Y-13198928D01*
X129570238Y-13198928D01*
X129086428Y-13440833D01*
X128844523Y-13924642D01*
X128844523Y-14408452D01*
X131263571Y-14892261D01*
X119894047Y-16585595D02*
X121587380Y-14166547D01*
X122796904Y-16585595D02*
X122796904Y-11505595D01*
X120861666Y-11505595D01*
X120377857Y-11747500D01*
X120135952Y-11989404D01*
X119894047Y-12473214D01*
X119894047Y-13198928D01*
X120135952Y-13682738D01*
X120377857Y-13924642D01*
X120861666Y-14166547D01*
X122796904Y-14166547D01*
X115539761Y-16585595D02*
X115539761Y-13924642D01*
X115781666Y-13440833D01*
X116265476Y-13198928D01*
X117233095Y-13198928D01*
X117716904Y-13440833D01*
X115539761Y-16343690D02*
X116023571Y-16585595D01*
X117233095Y-16585595D01*
X117716904Y-16343690D01*
X117958809Y-15859880D01*
X117958809Y-15376071D01*
X117716904Y-14892261D01*
X117233095Y-14650357D01*
X116023571Y-14650357D01*
X115539761Y-14408452D01*
X110943571Y-16343690D02*
X111427380Y-16585595D01*
X112394999Y-16585595D01*
X112878809Y-16343690D01*
X113120714Y-16101785D01*
X113362619Y-15617976D01*
X113362619Y-14166547D01*
X113120714Y-13682738D01*
X112878809Y-13440833D01*
X112394999Y-13198928D01*
X111427380Y-13198928D01*
X110943571Y-13440833D01*
X108766428Y-16585595D02*
X108766428Y-11505595D01*
X108282619Y-14650357D02*
X106831190Y-16585595D01*
X106831190Y-13198928D02*
X108766428Y-15134166D01*
X305979285Y-111401678D02*
X305979285Y-114788345D01*
X307188809Y-109466440D02*
X308398333Y-113095011D01*
X305253571Y-113095011D01*
X302350714Y-109708345D02*
X301866904Y-109708345D01*
X301383095Y-109950250D01*
X301141190Y-110192154D01*
X300899285Y-110675964D01*
X300657380Y-111643583D01*
X300657380Y-112853107D01*
X300899285Y-113820726D01*
X301141190Y-114304535D01*
X301383095Y-114546440D01*
X301866904Y-114788345D01*
X302350714Y-114788345D01*
X302834523Y-114546440D01*
X303076428Y-114304535D01*
X303318333Y-113820726D01*
X303560238Y-112853107D01*
X303560238Y-111643583D01*
X303318333Y-110675964D01*
X303076428Y-110192154D01*
X302834523Y-109950250D01*
X302350714Y-109708345D01*
X298722142Y-114788345D02*
X294851666Y-109708345D01*
X297996428Y-109708345D02*
X297512619Y-109950250D01*
X297270714Y-110434059D01*
X297512619Y-110917869D01*
X297996428Y-111159773D01*
X298480238Y-110917869D01*
X298722142Y-110434059D01*
X298480238Y-109950250D01*
X297996428Y-109708345D01*
X295093571Y-114546440D02*
X294851666Y-114062630D01*
X295093571Y-113578821D01*
X295577380Y-113336916D01*
X296061190Y-113578821D01*
X296303095Y-114062630D01*
X296061190Y-114546440D01*
X295577380Y-114788345D01*
X295093571Y-114546440D01*
X347224047Y-118090345D02*
X344321190Y-118090345D01*
X345772619Y-123170345D02*
X345772619Y-118090345D01*
X342627857Y-123170345D02*
X342627857Y-118090345D01*
X340450714Y-123170345D02*
X340450714Y-120509392D01*
X340692619Y-120025583D01*
X341176428Y-119783678D01*
X341902142Y-119783678D01*
X342385952Y-120025583D01*
X342627857Y-120267488D01*
X338031666Y-123170345D02*
X338031666Y-119783678D01*
X338031666Y-118090345D02*
X338273571Y-118332250D01*
X338031666Y-118574154D01*
X337789761Y-118332250D01*
X338031666Y-118090345D01*
X338031666Y-118574154D01*
X335612619Y-123170345D02*
X335612619Y-119783678D01*
X335612619Y-120751297D02*
X335370714Y-120267488D01*
X335128809Y-120025583D01*
X334645000Y-119783678D01*
X334161190Y-119783678D01*
X330290714Y-123170345D02*
X330290714Y-118090345D01*
X330290714Y-122928440D02*
X330774523Y-123170345D01*
X331742142Y-123170345D01*
X332225952Y-122928440D01*
X332467857Y-122686535D01*
X332709761Y-122202726D01*
X332709761Y-120751297D01*
X332467857Y-120267488D01*
X332225952Y-120025583D01*
X331742142Y-119783678D01*
X330774523Y-119783678D01*
X330290714Y-120025583D01*
X324001190Y-123170345D02*
X324001190Y-119783678D01*
X324001190Y-120751297D02*
X323759285Y-120267488D01*
X323517380Y-120025583D01*
X323033571Y-119783678D01*
X322549761Y-119783678D01*
X320130714Y-123170345D02*
X320614523Y-122928440D01*
X320856428Y-122686535D01*
X321098333Y-122202726D01*
X321098333Y-120751297D01*
X320856428Y-120267488D01*
X320614523Y-120025583D01*
X320130714Y-119783678D01*
X319405000Y-119783678D01*
X318921190Y-120025583D01*
X318679285Y-120267488D01*
X318437380Y-120751297D01*
X318437380Y-122202726D01*
X318679285Y-122686535D01*
X318921190Y-122928440D01*
X319405000Y-123170345D01*
X320130714Y-123170345D01*
X316744047Y-119783678D02*
X315776428Y-123170345D01*
X314808809Y-120751297D01*
X313841190Y-123170345D01*
X312873571Y-119783678D01*
X304890714Y-123170345D02*
X304890714Y-120509392D01*
X305132619Y-120025583D01*
X305616428Y-119783678D01*
X306584047Y-119783678D01*
X307067857Y-120025583D01*
X304890714Y-122928440D02*
X305374523Y-123170345D01*
X306584047Y-123170345D01*
X307067857Y-122928440D01*
X307309761Y-122444630D01*
X307309761Y-121960821D01*
X307067857Y-121477011D01*
X306584047Y-121235107D01*
X305374523Y-121235107D01*
X304890714Y-120993202D01*
X302471666Y-119783678D02*
X302471666Y-123170345D01*
X302471666Y-120267488D02*
X302229761Y-120025583D01*
X301745952Y-119783678D01*
X301020238Y-119783678D01*
X300536428Y-120025583D01*
X300294523Y-120509392D01*
X300294523Y-123170345D01*
X295698333Y-123170345D02*
X295698333Y-118090345D01*
X295698333Y-122928440D02*
X296182142Y-123170345D01*
X297149761Y-123170345D01*
X297633571Y-122928440D01*
X297875476Y-122686535D01*
X298117380Y-122202726D01*
X298117380Y-120751297D01*
X297875476Y-120267488D01*
X297633571Y-120025583D01*
X297149761Y-119783678D01*
X296182142Y-119783678D01*
X295698333Y-120025583D01*
X290134523Y-119783678D02*
X288199285Y-119783678D01*
X289408809Y-118090345D02*
X289408809Y-122444630D01*
X289166904Y-122928440D01*
X288683095Y-123170345D01*
X288199285Y-123170345D01*
X286505952Y-123170345D02*
X286505952Y-118090345D01*
X284328809Y-123170345D02*
X284328809Y-120509392D01*
X284570714Y-120025583D01*
X285054523Y-119783678D01*
X285780238Y-119783678D01*
X286264047Y-120025583D01*
X286505952Y-120267488D01*
X279974523Y-122928440D02*
X280458333Y-123170345D01*
X281425952Y-123170345D01*
X281909761Y-122928440D01*
X282151666Y-122444630D01*
X282151666Y-120509392D01*
X281909761Y-120025583D01*
X281425952Y-119783678D01*
X280458333Y-119783678D01*
X279974523Y-120025583D01*
X279732619Y-120509392D01*
X279732619Y-120993202D01*
X282151666Y-121477011D01*
X274410714Y-119783678D02*
X272475476Y-119783678D01*
X273685000Y-118090345D02*
X273685000Y-122444630D01*
X273443095Y-122928440D01*
X272959285Y-123170345D01*
X272475476Y-123170345D01*
X270782142Y-123170345D02*
X270782142Y-119783678D01*
X270782142Y-120751297D02*
X270540238Y-120267488D01*
X270298333Y-120025583D01*
X269814523Y-119783678D01*
X269330714Y-119783678D01*
X265460238Y-119783678D02*
X265460238Y-123170345D01*
X267637380Y-119783678D02*
X267637380Y-122444630D01*
X267395476Y-122928440D01*
X266911666Y-123170345D01*
X266185952Y-123170345D01*
X265702142Y-122928440D01*
X265460238Y-122686535D01*
X263041190Y-119783678D02*
X263041190Y-123170345D01*
X263041190Y-120267488D02*
X262799285Y-120025583D01*
X262315476Y-119783678D01*
X261589761Y-119783678D01*
X261105952Y-120025583D01*
X260864047Y-120509392D01*
X260864047Y-123170345D01*
X258445000Y-123170345D02*
X258445000Y-118090345D01*
X257961190Y-121235107D02*
X256509761Y-123170345D01*
X256509761Y-119783678D02*
X258445000Y-121718916D01*
X98016785Y-111295845D02*
X98984404Y-111295845D01*
X99468214Y-111537750D01*
X99710119Y-111779654D01*
X100193928Y-112505369D01*
X100435833Y-113472988D01*
X100435833Y-115408226D01*
X100193928Y-115892035D01*
X99952023Y-116133940D01*
X99468214Y-116375845D01*
X98500595Y-116375845D01*
X98016785Y-116133940D01*
X97774880Y-115892035D01*
X97532976Y-115408226D01*
X97532976Y-114198702D01*
X97774880Y-113714892D01*
X98016785Y-113472988D01*
X98500595Y-113231083D01*
X99468214Y-113231083D01*
X99952023Y-113472988D01*
X100193928Y-113714892D01*
X100435833Y-114198702D01*
X94388214Y-111295845D02*
X93904404Y-111295845D01*
X93420595Y-111537750D01*
X93178690Y-111779654D01*
X92936785Y-112263464D01*
X92694880Y-113231083D01*
X92694880Y-114440607D01*
X92936785Y-115408226D01*
X93178690Y-115892035D01*
X93420595Y-116133940D01*
X93904404Y-116375845D01*
X94388214Y-116375845D01*
X94872023Y-116133940D01*
X95113928Y-115892035D01*
X95355833Y-115408226D01*
X95597738Y-114440607D01*
X95597738Y-113231083D01*
X95355833Y-112263464D01*
X95113928Y-111779654D01*
X94872023Y-111537750D01*
X94388214Y-111295845D01*
X90759642Y-116375845D02*
X86889166Y-111295845D01*
X90033928Y-111295845D02*
X89550119Y-111537750D01*
X89308214Y-112021559D01*
X89550119Y-112505369D01*
X90033928Y-112747273D01*
X90517738Y-112505369D01*
X90759642Y-112021559D01*
X90517738Y-111537750D01*
X90033928Y-111295845D01*
X87131071Y-116133940D02*
X86889166Y-115650130D01*
X87131071Y-115166321D01*
X87614880Y-114924416D01*
X88098690Y-115166321D01*
X88340595Y-115650130D01*
X88098690Y-116133940D01*
X87614880Y-116375845D01*
X87131071Y-116133940D01*
X151598690Y-119677845D02*
X148695833Y-119677845D01*
X150147261Y-124757845D02*
X150147261Y-119677845D01*
X147002500Y-124757845D02*
X147002500Y-119677845D01*
X144825357Y-124757845D02*
X144825357Y-122096892D01*
X145067261Y-121613083D01*
X145551071Y-121371178D01*
X146276785Y-121371178D01*
X146760595Y-121613083D01*
X147002500Y-121854988D01*
X140471071Y-124515940D02*
X140954880Y-124757845D01*
X141922500Y-124757845D01*
X142406309Y-124515940D01*
X142648214Y-124032130D01*
X142648214Y-122096892D01*
X142406309Y-121613083D01*
X141922500Y-121371178D01*
X140954880Y-121371178D01*
X140471071Y-121613083D01*
X140229166Y-122096892D01*
X140229166Y-122580702D01*
X142648214Y-123064511D01*
X132004404Y-124515940D02*
X132488214Y-124757845D01*
X133455833Y-124757845D01*
X133939642Y-124515940D01*
X134181547Y-124274035D01*
X134423452Y-123790226D01*
X134423452Y-122338797D01*
X134181547Y-121854988D01*
X133939642Y-121613083D01*
X133455833Y-121371178D01*
X132488214Y-121371178D01*
X132004404Y-121613083D01*
X127650119Y-124757845D02*
X127650119Y-122096892D01*
X127892023Y-121613083D01*
X128375833Y-121371178D01*
X129343452Y-121371178D01*
X129827261Y-121613083D01*
X127650119Y-124515940D02*
X128133928Y-124757845D01*
X129343452Y-124757845D01*
X129827261Y-124515940D01*
X130069166Y-124032130D01*
X130069166Y-123548321D01*
X129827261Y-123064511D01*
X129343452Y-122822607D01*
X128133928Y-122822607D01*
X127650119Y-122580702D01*
X125231071Y-124757845D02*
X125231071Y-119677845D01*
X125231071Y-121613083D02*
X124747261Y-121371178D01*
X123779642Y-121371178D01*
X123295833Y-121613083D01*
X123053928Y-121854988D01*
X122812023Y-122338797D01*
X122812023Y-123790226D01*
X123053928Y-124274035D01*
X123295833Y-124515940D01*
X123779642Y-124757845D01*
X124747261Y-124757845D01*
X125231071Y-124515940D01*
X120634880Y-124757845D02*
X120634880Y-121371178D01*
X120634880Y-119677845D02*
X120876785Y-119919750D01*
X120634880Y-120161654D01*
X120392976Y-119919750D01*
X120634880Y-119677845D01*
X120634880Y-120161654D01*
X118215833Y-121371178D02*
X118215833Y-124757845D01*
X118215833Y-121854988D02*
X117973928Y-121613083D01*
X117490119Y-121371178D01*
X116764404Y-121371178D01*
X116280595Y-121613083D01*
X116038690Y-122096892D01*
X116038690Y-124757845D01*
X107572023Y-124757845D02*
X107572023Y-122096892D01*
X107813928Y-121613083D01*
X108297738Y-121371178D01*
X109265357Y-121371178D01*
X109749166Y-121613083D01*
X107572023Y-124515940D02*
X108055833Y-124757845D01*
X109265357Y-124757845D01*
X109749166Y-124515940D01*
X109991071Y-124032130D01*
X109991071Y-123548321D01*
X109749166Y-123064511D01*
X109265357Y-122822607D01*
X108055833Y-122822607D01*
X107572023Y-122580702D01*
X105152976Y-121371178D02*
X105152976Y-124757845D01*
X105152976Y-121854988D02*
X104911071Y-121613083D01*
X104427261Y-121371178D01*
X103701547Y-121371178D01*
X103217738Y-121613083D01*
X102975833Y-122096892D01*
X102975833Y-124757845D01*
X98379642Y-124757845D02*
X98379642Y-119677845D01*
X98379642Y-124515940D02*
X98863452Y-124757845D01*
X99831071Y-124757845D01*
X100314880Y-124515940D01*
X100556785Y-124274035D01*
X100798690Y-123790226D01*
X100798690Y-122338797D01*
X100556785Y-121854988D01*
X100314880Y-121613083D01*
X99831071Y-121371178D01*
X98863452Y-121371178D01*
X98379642Y-121613083D01*
X92815833Y-121371178D02*
X90880595Y-121371178D01*
X92090119Y-119677845D02*
X92090119Y-124032130D01*
X91848214Y-124515940D01*
X91364404Y-124757845D01*
X90880595Y-124757845D01*
X89187261Y-124757845D02*
X89187261Y-119677845D01*
X87010119Y-124757845D02*
X87010119Y-122096892D01*
X87252023Y-121613083D01*
X87735833Y-121371178D01*
X88461547Y-121371178D01*
X88945357Y-121613083D01*
X89187261Y-121854988D01*
X82655833Y-124515940D02*
X83139642Y-124757845D01*
X84107261Y-124757845D01*
X84591071Y-124515940D01*
X84832976Y-124032130D01*
X84832976Y-122096892D01*
X84591071Y-121613083D01*
X84107261Y-121371178D01*
X83139642Y-121371178D01*
X82655833Y-121613083D01*
X82413928Y-122096892D01*
X82413928Y-122580702D01*
X84832976Y-123064511D01*
X76366309Y-124757845D02*
X76366309Y-121371178D01*
X76366309Y-121854988D02*
X76124404Y-121613083D01*
X75640595Y-121371178D01*
X74914880Y-121371178D01*
X74431071Y-121613083D01*
X74189166Y-122096892D01*
X74189166Y-124757845D01*
X74189166Y-122096892D02*
X73947261Y-121613083D01*
X73463452Y-121371178D01*
X72737738Y-121371178D01*
X72253928Y-121613083D01*
X72012023Y-122096892D01*
X72012023Y-124757845D01*
X69592976Y-124757845D02*
X69592976Y-121371178D01*
X69592976Y-119677845D02*
X69834880Y-119919750D01*
X69592976Y-120161654D01*
X69351071Y-119919750D01*
X69592976Y-119677845D01*
X69592976Y-120161654D01*
X64996785Y-124757845D02*
X64996785Y-119677845D01*
X64996785Y-124515940D02*
X65480595Y-124757845D01*
X66448214Y-124757845D01*
X66932023Y-124515940D01*
X67173928Y-124274035D01*
X67415833Y-123790226D01*
X67415833Y-122338797D01*
X67173928Y-121854988D01*
X66932023Y-121613083D01*
X66448214Y-121371178D01*
X65480595Y-121371178D01*
X64996785Y-121613083D01*
X60400595Y-124757845D02*
X60400595Y-119677845D01*
X60400595Y-124515940D02*
X60884404Y-124757845D01*
X61852023Y-124757845D01*
X62335833Y-124515940D01*
X62577738Y-124274035D01*
X62819642Y-123790226D01*
X62819642Y-122338797D01*
X62577738Y-121854988D01*
X62335833Y-121613083D01*
X61852023Y-121371178D01*
X60884404Y-121371178D01*
X60400595Y-121613083D01*
X57255833Y-124757845D02*
X57739642Y-124515940D01*
X57981547Y-124032130D01*
X57981547Y-119677845D01*
X53385357Y-124515940D02*
X53869166Y-124757845D01*
X54836785Y-124757845D01*
X55320595Y-124515940D01*
X55562499Y-124032130D01*
X55562499Y-122096892D01*
X55320595Y-121613083D01*
X54836785Y-121371178D01*
X53869166Y-121371178D01*
X53385357Y-121613083D01*
X53143452Y-122096892D01*
X53143452Y-122580702D01*
X55562499Y-123064511D01*
X47095833Y-124757845D02*
X47095833Y-121371178D01*
X47095833Y-122338797D02*
X46853928Y-121854988D01*
X46612023Y-121613083D01*
X46128214Y-121371178D01*
X45644404Y-121371178D01*
X43225357Y-124757845D02*
X43709166Y-124515940D01*
X43951071Y-124274035D01*
X44192976Y-123790226D01*
X44192976Y-122338797D01*
X43951071Y-121854988D01*
X43709166Y-121613083D01*
X43225357Y-121371178D01*
X42499642Y-121371178D01*
X42015833Y-121613083D01*
X41773928Y-121854988D01*
X41532023Y-122338797D01*
X41532023Y-123790226D01*
X41773928Y-124274035D01*
X42015833Y-124515940D01*
X42499642Y-124757845D01*
X43225357Y-124757845D01*
X39838690Y-121371178D02*
X38871071Y-124757845D01*
X37903452Y-122338797D01*
X36935833Y-124757845D01*
X35968214Y-121371178D01*
D11*
X374650000Y0D02*
X374650000Y2540000D01*
X377190000Y0D02*
X374650000Y0D01*
D12*
G36*
X370900970Y-12394635D02*
G01*
X370800970Y-12394635D01*
X370800970Y-12494635D01*
X370900970Y-12494635D01*
X370900970Y-12394635D01*
G37*
X370900970Y-12394635D02*
X370800970Y-12394635D01*
X370800970Y-12494635D01*
X370900970Y-12494635D01*
X370900970Y-12394635D01*
G36*
X371300970Y-12594635D02*
G01*
X370500970Y-12594635D01*
X370500970Y-12694635D01*
X371300970Y-12694635D01*
X371300970Y-12594635D01*
G37*
X371300970Y-12594635D02*
X370500970Y-12594635D01*
X370500970Y-12694635D01*
X371300970Y-12694635D01*
X371300970Y-12594635D01*
G36*
X370700970Y-12194635D02*
G01*
X370500970Y-12194635D01*
X370500970Y-12294635D01*
X370700970Y-12294635D01*
X370700970Y-12194635D01*
G37*
X370700970Y-12194635D02*
X370500970Y-12194635D01*
X370500970Y-12294635D01*
X370700970Y-12294635D01*
X370700970Y-12194635D01*
G36*
X371300970Y-12194635D02*
G01*
X371000970Y-12194635D01*
X371000970Y-12294635D01*
X371300970Y-12294635D01*
X371300970Y-12194635D01*
G37*
X371300970Y-12194635D02*
X371000970Y-12194635D01*
X371000970Y-12294635D01*
X371300970Y-12294635D01*
X371300970Y-12194635D01*
G36*
X371300970Y-12194635D02*
G01*
X371200970Y-12194635D01*
X371200970Y-12694635D01*
X371300970Y-12694635D01*
X371300970Y-12194635D01*
G37*
X371300970Y-12194635D02*
X371200970Y-12194635D01*
X371200970Y-12694635D01*
X371300970Y-12694635D01*
X371300970Y-12194635D01*
D11*
X346710000Y-15240000D02*
X379730000Y-15240000D01*
X346710000Y2540000D02*
X346710000Y-15240000D01*
X379730000Y2540000D02*
X346710000Y2540000D01*
X379730000Y-15240000D02*
X379730000Y2540000D01*
X377190000Y0D02*
X377190000Y2540000D01*
X-48418750Y-49212500D02*
X-48418750Y-51752500D01*
X-50958750Y-49212500D02*
X-48418750Y-49212500D01*
D12*
G36*
X-44669720Y-36817865D02*
G01*
X-44569720Y-36817865D01*
X-44569720Y-36717865D01*
X-44669720Y-36717865D01*
X-44669720Y-36817865D01*
G37*
X-44669720Y-36817865D02*
X-44569720Y-36817865D01*
X-44569720Y-36717865D01*
X-44669720Y-36717865D01*
X-44669720Y-36817865D01*
G36*
X-45069720Y-36617865D02*
G01*
X-44269720Y-36617865D01*
X-44269720Y-36517865D01*
X-45069720Y-36517865D01*
X-45069720Y-36617865D01*
G37*
X-45069720Y-36617865D02*
X-44269720Y-36617865D01*
X-44269720Y-36517865D01*
X-45069720Y-36517865D01*
X-45069720Y-36617865D01*
G36*
X-44469720Y-37017865D02*
G01*
X-44269720Y-37017865D01*
X-44269720Y-36917865D01*
X-44469720Y-36917865D01*
X-44469720Y-37017865D01*
G37*
X-44469720Y-37017865D02*
X-44269720Y-37017865D01*
X-44269720Y-36917865D01*
X-44469720Y-36917865D01*
X-44469720Y-37017865D01*
G36*
X-45069720Y-37017865D02*
G01*
X-44769720Y-37017865D01*
X-44769720Y-36917865D01*
X-45069720Y-36917865D01*
X-45069720Y-37017865D01*
G37*
X-45069720Y-37017865D02*
X-44769720Y-37017865D01*
X-44769720Y-36917865D01*
X-45069720Y-36917865D01*
X-45069720Y-37017865D01*
G36*
X-45069720Y-37017865D02*
G01*
X-44969720Y-37017865D01*
X-44969720Y-36517865D01*
X-45069720Y-36517865D01*
X-45069720Y-37017865D01*
G37*
X-45069720Y-37017865D02*
X-44969720Y-37017865D01*
X-44969720Y-36517865D01*
X-45069720Y-36517865D01*
X-45069720Y-37017865D01*
D11*
X-20478750Y-33972500D02*
X-53498750Y-33972500D01*
X-20478750Y-51752500D02*
X-20478750Y-33972500D01*
X-53498750Y-51752500D02*
X-20478750Y-51752500D01*
X-53498750Y-33972500D02*
X-53498750Y-51752500D01*
X-50958750Y-49212500D02*
X-50958750Y-51752500D01*
X377190000Y-39687500D02*
X377190000Y-37147500D01*
X379730000Y-54927500D02*
X379730000Y-37147500D01*
X379730000Y-37147500D02*
X346710000Y-37147500D01*
X346710000Y-37147500D02*
X346710000Y-54927500D01*
X346710000Y-54927500D02*
X379730000Y-54927500D01*
D12*
G36*
X371300970Y-51882135D02*
G01*
X371200970Y-51882135D01*
X371200970Y-52382135D01*
X371300970Y-52382135D01*
X371300970Y-51882135D01*
G37*
X371300970Y-51882135D02*
X371200970Y-51882135D01*
X371200970Y-52382135D01*
X371300970Y-52382135D01*
X371300970Y-51882135D01*
G36*
X371300970Y-51882135D02*
G01*
X371000970Y-51882135D01*
X371000970Y-51982135D01*
X371300970Y-51982135D01*
X371300970Y-51882135D01*
G37*
X371300970Y-51882135D02*
X371000970Y-51882135D01*
X371000970Y-51982135D01*
X371300970Y-51982135D01*
X371300970Y-51882135D01*
G36*
X370700970Y-51882135D02*
G01*
X370500970Y-51882135D01*
X370500970Y-51982135D01*
X370700970Y-51982135D01*
X370700970Y-51882135D01*
G37*
X370700970Y-51882135D02*
X370500970Y-51882135D01*
X370500970Y-51982135D01*
X370700970Y-51982135D01*
X370700970Y-51882135D01*
G36*
X371300970Y-52282135D02*
G01*
X370500970Y-52282135D01*
X370500970Y-52382135D01*
X371300970Y-52382135D01*
X371300970Y-52282135D01*
G37*
X371300970Y-52282135D02*
X370500970Y-52282135D01*
X370500970Y-52382135D01*
X371300970Y-52382135D01*
X371300970Y-52282135D01*
G36*
X370900970Y-52082135D02*
G01*
X370800970Y-52082135D01*
X370800970Y-52182135D01*
X370900970Y-52182135D01*
X370900970Y-52082135D01*
G37*
X370900970Y-52082135D02*
X370800970Y-52082135D01*
X370800970Y-52182135D01*
X370900970Y-52182135D01*
X370900970Y-52082135D01*
D11*
X377190000Y-39687500D02*
X374650000Y-39687500D01*
X374650000Y-39687500D02*
X374650000Y-37147500D01*
D12*
X373741904Y-298523D02*
X372941904Y-298523D01*
X372941904Y-489000D01*
X372980000Y-603285D01*
X373056190Y-679476D01*
X373132380Y-717571D01*
X373284761Y-755666D01*
X373399047Y-755666D01*
X373551428Y-717571D01*
X373627619Y-679476D01*
X373703809Y-603285D01*
X373741904Y-489000D01*
X373741904Y-298523D01*
X373018095Y-1060428D02*
X372980000Y-1098523D01*
X372941904Y-1174714D01*
X372941904Y-1365190D01*
X372980000Y-1441380D01*
X373018095Y-1479476D01*
X373094285Y-1517571D01*
X373170476Y-1517571D01*
X373284761Y-1479476D01*
X373741904Y-1022333D01*
X373741904Y-1517571D01*
X363581904Y-298523D02*
X362781904Y-298523D01*
X362781904Y-489000D01*
X362820000Y-603285D01*
X362896190Y-679476D01*
X362972380Y-717571D01*
X363124761Y-755666D01*
X363239047Y-755666D01*
X363391428Y-717571D01*
X363467619Y-679476D01*
X363543809Y-603285D01*
X363581904Y-489000D01*
X363581904Y-298523D01*
X362781904Y-1250904D02*
X362781904Y-1327095D01*
X362820000Y-1403285D01*
X362858095Y-1441380D01*
X362934285Y-1479476D01*
X363086666Y-1517571D01*
X363277142Y-1517571D01*
X363429523Y-1479476D01*
X363505714Y-1441380D01*
X363543809Y-1403285D01*
X363581904Y-1327095D01*
X363581904Y-1250904D01*
X363543809Y-1174714D01*
X363505714Y-1136619D01*
X363429523Y-1098523D01*
X363277142Y-1060428D01*
X363086666Y-1060428D01*
X362934285Y-1098523D01*
X362858095Y-1136619D01*
X362820000Y-1174714D01*
X362781904Y-1250904D01*
X366121904Y-298523D02*
X365321904Y-298523D01*
X365321904Y-489000D01*
X365360000Y-603285D01*
X365436190Y-679476D01*
X365512380Y-717571D01*
X365664761Y-755666D01*
X365779047Y-755666D01*
X365931428Y-717571D01*
X366007619Y-679476D01*
X366083809Y-603285D01*
X366121904Y-489000D01*
X366121904Y-298523D01*
X366121904Y-1517571D02*
X366121904Y-1060428D01*
X366121904Y-1289000D02*
X365321904Y-1289000D01*
X365436190Y-1212809D01*
X365512380Y-1136619D01*
X365550476Y-1060428D01*
X367900000Y-279476D02*
X367861904Y-203285D01*
X367861904Y-89000D01*
X367900000Y25285D01*
X367976190Y101476D01*
X368052380Y139571D01*
X368204761Y177666D01*
X368319047Y177666D01*
X368471428Y139571D01*
X368547619Y101476D01*
X368623809Y25285D01*
X368661904Y-89000D01*
X368661904Y-165190D01*
X368623809Y-279476D01*
X368585714Y-317571D01*
X368319047Y-317571D01*
X368319047Y-165190D01*
X368661904Y-660428D02*
X367861904Y-660428D01*
X368661904Y-1117571D01*
X367861904Y-1117571D01*
X368661904Y-1498523D02*
X367861904Y-1498523D01*
X367861904Y-1689000D01*
X367900000Y-1803285D01*
X367976190Y-1879476D01*
X368052380Y-1917571D01*
X368204761Y-1955666D01*
X368319047Y-1955666D01*
X368471428Y-1917571D01*
X368547619Y-1879476D01*
X368623809Y-1803285D01*
X368661904Y-1689000D01*
X368661904Y-1498523D01*
X370440000Y-279476D02*
X370401904Y-203285D01*
X370401904Y-89000D01*
X370440000Y25285D01*
X370516190Y101476D01*
X370592380Y139571D01*
X370744761Y177666D01*
X370859047Y177666D01*
X371011428Y139571D01*
X371087619Y101476D01*
X371163809Y25285D01*
X371201904Y-89000D01*
X371201904Y-165190D01*
X371163809Y-279476D01*
X371125714Y-317571D01*
X370859047Y-317571D01*
X370859047Y-165190D01*
X371201904Y-660428D02*
X370401904Y-660428D01*
X371201904Y-1117571D01*
X370401904Y-1117571D01*
X371201904Y-1498523D02*
X370401904Y-1498523D01*
X370401904Y-1689000D01*
X370440000Y-1803285D01*
X370516190Y-1879476D01*
X370592380Y-1917571D01*
X370744761Y-1955666D01*
X370859047Y-1955666D01*
X371011428Y-1917571D01*
X371087619Y-1879476D01*
X371163809Y-1803285D01*
X371201904Y-1689000D01*
X371201904Y-1498523D01*
X361041904Y-298523D02*
X360241904Y-298523D01*
X360241904Y-489000D01*
X360280000Y-603285D01*
X360356190Y-679476D01*
X360432380Y-717571D01*
X360584761Y-755666D01*
X360699047Y-755666D01*
X360851428Y-717571D01*
X360927619Y-679476D01*
X361003809Y-603285D01*
X361041904Y-489000D01*
X361041904Y-298523D01*
X360508571Y-1441380D02*
X361041904Y-1441380D01*
X360203809Y-1250904D02*
X360775238Y-1060428D01*
X360775238Y-1555666D01*
X358425714Y-755666D02*
X358463809Y-717571D01*
X358501904Y-603285D01*
X358501904Y-527095D01*
X358463809Y-412809D01*
X358387619Y-336619D01*
X358311428Y-298523D01*
X358159047Y-260428D01*
X358044761Y-260428D01*
X357892380Y-298523D01*
X357816190Y-336619D01*
X357740000Y-412809D01*
X357701904Y-527095D01*
X357701904Y-603285D01*
X357740000Y-717571D01*
X357778095Y-755666D01*
X357701904Y-1441380D02*
X357701904Y-1289000D01*
X357740000Y-1212809D01*
X357778095Y-1174714D01*
X357892380Y-1098523D01*
X358044761Y-1060428D01*
X358349523Y-1060428D01*
X358425714Y-1098523D01*
X358463809Y-1136619D01*
X358501904Y-1212809D01*
X358501904Y-1365190D01*
X358463809Y-1441380D01*
X358425714Y-1479476D01*
X358349523Y-1517571D01*
X358159047Y-1517571D01*
X358082857Y-1479476D01*
X358044761Y-1441380D01*
X358006666Y-1365190D01*
X358006666Y-1212809D01*
X358044761Y-1136619D01*
X358082857Y-1098523D01*
X358159047Y-1060428D01*
X355961904Y-298523D02*
X355161904Y-298523D01*
X355161904Y-489000D01*
X355200000Y-603285D01*
X355276190Y-679476D01*
X355352380Y-717571D01*
X355504761Y-755666D01*
X355619047Y-755666D01*
X355771428Y-717571D01*
X355847619Y-679476D01*
X355923809Y-603285D01*
X355961904Y-489000D01*
X355961904Y-298523D01*
X355161904Y-1022333D02*
X355161904Y-1555666D01*
X355961904Y-1212809D01*
X353002857Y-336619D02*
X353002857Y-603285D01*
X353421904Y-717571D02*
X353421904Y-336619D01*
X352621904Y-336619D01*
X352621904Y-717571D01*
X352621904Y-1403285D02*
X352621904Y-1250904D01*
X352660000Y-1174714D01*
X352698095Y-1136619D01*
X352812380Y-1060428D01*
X352964761Y-1022333D01*
X353269523Y-1022333D01*
X353345714Y-1060428D01*
X353383809Y-1098523D01*
X353421904Y-1174714D01*
X353421904Y-1327095D01*
X353383809Y-1403285D01*
X353345714Y-1441380D01*
X353269523Y-1479476D01*
X353079047Y-1479476D01*
X353002857Y-1441380D01*
X352964761Y-1403285D01*
X352926666Y-1327095D01*
X352926666Y-1174714D01*
X352964761Y-1098523D01*
X353002857Y-1060428D01*
X353079047Y-1022333D01*
X350462857Y-565190D02*
X350500952Y-679476D01*
X350539047Y-717571D01*
X350615238Y-755666D01*
X350729523Y-755666D01*
X350805714Y-717571D01*
X350843809Y-679476D01*
X350881904Y-603285D01*
X350881904Y-298523D01*
X350081904Y-298523D01*
X350081904Y-565190D01*
X350120000Y-641380D01*
X350158095Y-679476D01*
X350234285Y-717571D01*
X350310476Y-717571D01*
X350386666Y-679476D01*
X350424761Y-641380D01*
X350462857Y-565190D01*
X350462857Y-298523D01*
X350348571Y-1441380D02*
X350881904Y-1441380D01*
X350043809Y-1250904D02*
X350615238Y-1060428D01*
X350615238Y-1555666D01*
X349414991Y285702D02*
X349367851Y191421D01*
X349367851Y144280D01*
X349391421Y73570D01*
X349462132Y2859D01*
X349532842Y-20710D01*
X349579983Y-20710D01*
X349650693Y2859D01*
X349839255Y191421D01*
X349344280Y686396D01*
X349179289Y521404D01*
X349155719Y450693D01*
X349155719Y403553D01*
X349179289Y332842D01*
X349226429Y285702D01*
X349297140Y262132D01*
X349344280Y262132D01*
X349414991Y285702D01*
X349579983Y450693D01*
X348613603Y-44280D02*
X348849306Y191421D01*
X349108578Y-20710D01*
X349061438Y-20710D01*
X348990727Y-44280D01*
X348872876Y-162132D01*
X348849306Y-232842D01*
X348849306Y-279983D01*
X348872876Y-350693D01*
X348990727Y-468544D01*
X349061438Y-492115D01*
X349108578Y-492115D01*
X349179289Y-468544D01*
X349297140Y-350693D01*
X349320710Y-279983D01*
X349320710Y-232842D01*
X353002857Y-11487190D02*
X353040952Y-11601476D01*
X353079047Y-11639571D01*
X353155238Y-11677666D01*
X353269523Y-11677666D01*
X353345714Y-11639571D01*
X353383809Y-11601476D01*
X353421904Y-11525285D01*
X353421904Y-11220523D01*
X352621904Y-11220523D01*
X352621904Y-11487190D01*
X352660000Y-11563380D01*
X352698095Y-11601476D01*
X352774285Y-11639571D01*
X352850476Y-11639571D01*
X352926666Y-11601476D01*
X352964761Y-11563380D01*
X353002857Y-11487190D01*
X353002857Y-11220523D01*
X352621904Y-11944333D02*
X352621904Y-12439571D01*
X352926666Y-12172904D01*
X352926666Y-12287190D01*
X352964761Y-12363380D01*
X353002857Y-12401476D01*
X353079047Y-12439571D01*
X353269523Y-12439571D01*
X353345714Y-12401476D01*
X353383809Y-12363380D01*
X353421904Y-12287190D01*
X353421904Y-12058619D01*
X353383809Y-11982428D01*
X353345714Y-11944333D01*
X355542857Y-11487190D02*
X355580952Y-11601476D01*
X355619047Y-11639571D01*
X355695238Y-11677666D01*
X355809523Y-11677666D01*
X355885714Y-11639571D01*
X355923809Y-11601476D01*
X355961904Y-11525285D01*
X355961904Y-11220523D01*
X355161904Y-11220523D01*
X355161904Y-11487190D01*
X355200000Y-11563380D01*
X355238095Y-11601476D01*
X355314285Y-11639571D01*
X355390476Y-11639571D01*
X355466666Y-11601476D01*
X355504761Y-11563380D01*
X355542857Y-11487190D01*
X355542857Y-11220523D01*
X355961904Y-12439571D02*
X355961904Y-11982428D01*
X355961904Y-12211000D02*
X355161904Y-12211000D01*
X355276190Y-12134809D01*
X355352380Y-12058619D01*
X355390476Y-11982428D01*
X365702857Y-11544333D02*
X365702857Y-11277666D01*
X366121904Y-11277666D02*
X365321904Y-11277666D01*
X365321904Y-11658619D01*
X365588571Y-12306238D02*
X366121904Y-12306238D01*
X365283809Y-12115761D02*
X365855238Y-11925285D01*
X365855238Y-12420523D01*
X367861904Y-10744333D02*
X368661904Y-11011000D01*
X367861904Y-11277666D01*
X368585714Y-12001476D02*
X368623809Y-11963380D01*
X368661904Y-11849095D01*
X368661904Y-11772904D01*
X368623809Y-11658619D01*
X368547619Y-11582428D01*
X368471428Y-11544333D01*
X368319047Y-11506238D01*
X368204761Y-11506238D01*
X368052380Y-11544333D01*
X367976190Y-11582428D01*
X367900000Y-11658619D01*
X367861904Y-11772904D01*
X367861904Y-11849095D01*
X367900000Y-11963380D01*
X367938095Y-12001476D01*
X368585714Y-12801476D02*
X368623809Y-12763380D01*
X368661904Y-12649095D01*
X368661904Y-12572904D01*
X368623809Y-12458619D01*
X368547619Y-12382428D01*
X368471428Y-12344333D01*
X368319047Y-12306238D01*
X368204761Y-12306238D01*
X368052380Y-12344333D01*
X367976190Y-12382428D01*
X367900000Y-12458619D01*
X367861904Y-12572904D01*
X367861904Y-12649095D01*
X367900000Y-12763380D01*
X367938095Y-12801476D01*
X372980000Y-11201476D02*
X372941904Y-11125285D01*
X372941904Y-11011000D01*
X372980000Y-10896714D01*
X373056190Y-10820523D01*
X373132380Y-10782428D01*
X373284761Y-10744333D01*
X373399047Y-10744333D01*
X373551428Y-10782428D01*
X373627619Y-10820523D01*
X373703809Y-10896714D01*
X373741904Y-11011000D01*
X373741904Y-11087190D01*
X373703809Y-11201476D01*
X373665714Y-11239571D01*
X373399047Y-11239571D01*
X373399047Y-11087190D01*
X373741904Y-11582428D02*
X372941904Y-11582428D01*
X373741904Y-12039571D01*
X372941904Y-12039571D01*
X373741904Y-12420523D02*
X372941904Y-12420523D01*
X372941904Y-12611000D01*
X372980000Y-12725285D01*
X373056190Y-12801476D01*
X373132380Y-12839571D01*
X373284761Y-12877666D01*
X373399047Y-12877666D01*
X373551428Y-12839571D01*
X373627619Y-12801476D01*
X373703809Y-12725285D01*
X373741904Y-12611000D01*
X373741904Y-12420523D01*
X375862857Y-11487190D02*
X375900952Y-11601476D01*
X375939047Y-11639571D01*
X376015238Y-11677666D01*
X376129523Y-11677666D01*
X376205714Y-11639571D01*
X376243809Y-11601476D01*
X376281904Y-11525285D01*
X376281904Y-11220523D01*
X375481904Y-11220523D01*
X375481904Y-11487190D01*
X375520000Y-11563380D01*
X375558095Y-11601476D01*
X375634285Y-11639571D01*
X375710476Y-11639571D01*
X375786666Y-11601476D01*
X375824761Y-11563380D01*
X375862857Y-11487190D01*
X375862857Y-11220523D01*
X375481904Y-12172904D02*
X375481904Y-12249095D01*
X375520000Y-12325285D01*
X375558095Y-12363380D01*
X375634285Y-12401476D01*
X375786666Y-12439571D01*
X375977142Y-12439571D01*
X376129523Y-12401476D01*
X376205714Y-12363380D01*
X376243809Y-12325285D01*
X376281904Y-12249095D01*
X376281904Y-12172904D01*
X376243809Y-12096714D01*
X376205714Y-12058619D01*
X376129523Y-12020523D01*
X375977142Y-11982428D01*
X375786666Y-11982428D01*
X375634285Y-12020523D01*
X375558095Y-12058619D01*
X375520000Y-12096714D01*
X375481904Y-12172904D01*
X363162857Y-11544333D02*
X363162857Y-11277666D01*
X363581904Y-11277666D02*
X362781904Y-11277666D01*
X362781904Y-11658619D01*
X362781904Y-12344333D02*
X362781904Y-11963380D01*
X363162857Y-11925285D01*
X363124761Y-11963380D01*
X363086666Y-12039571D01*
X363086666Y-12230047D01*
X363124761Y-12306238D01*
X363162857Y-12344333D01*
X363239047Y-12382428D01*
X363429523Y-12382428D01*
X363505714Y-12344333D01*
X363543809Y-12306238D01*
X363581904Y-12230047D01*
X363581904Y-12039571D01*
X363543809Y-11963380D01*
X363505714Y-11925285D01*
X360622857Y-11544333D02*
X360622857Y-11277666D01*
X361041904Y-11277666D02*
X360241904Y-11277666D01*
X360241904Y-11658619D01*
X360241904Y-12306238D02*
X360241904Y-12153857D01*
X360280000Y-12077666D01*
X360318095Y-12039571D01*
X360432380Y-11963380D01*
X360584761Y-11925285D01*
X360889523Y-11925285D01*
X360965714Y-11963380D01*
X361003809Y-12001476D01*
X361041904Y-12077666D01*
X361041904Y-12230047D01*
X361003809Y-12306238D01*
X360965714Y-12344333D01*
X360889523Y-12382428D01*
X360699047Y-12382428D01*
X360622857Y-12344333D01*
X360584761Y-12306238D01*
X360546666Y-12230047D01*
X360546666Y-12077666D01*
X360584761Y-12001476D01*
X360622857Y-11963380D01*
X360699047Y-11925285D01*
X358082857Y-11544333D02*
X358082857Y-11277666D01*
X358501904Y-11277666D02*
X357701904Y-11277666D01*
X357701904Y-11658619D01*
X357701904Y-11887190D02*
X357701904Y-12420523D01*
X358501904Y-12077666D01*
X350462857Y-11487190D02*
X350500952Y-11601476D01*
X350539047Y-11639571D01*
X350615238Y-11677666D01*
X350729523Y-11677666D01*
X350805714Y-11639571D01*
X350843809Y-11601476D01*
X350881904Y-11525285D01*
X350881904Y-11220523D01*
X350081904Y-11220523D01*
X350081904Y-11487190D01*
X350120000Y-11563380D01*
X350158095Y-11601476D01*
X350234285Y-11639571D01*
X350310476Y-11639571D01*
X350386666Y-11601476D01*
X350424761Y-11563380D01*
X350462857Y-11487190D01*
X350462857Y-11220523D01*
X350158095Y-11982428D02*
X350120000Y-12020523D01*
X350081904Y-12096714D01*
X350081904Y-12287190D01*
X350120000Y-12363380D01*
X350158095Y-12401476D01*
X350234285Y-12439571D01*
X350310476Y-12439571D01*
X350424761Y-12401476D01*
X350881904Y-11944333D01*
X350881904Y-12439571D01*
X375481904Y-587651D02*
X375481904Y-1044794D01*
X376281904Y-816223D02*
X375481904Y-816223D01*
X375481904Y-1235270D02*
X376281904Y-1768604D01*
X375481904Y-1768604D02*
X376281904Y-1235270D01*
X375481904Y-2225747D02*
X375481904Y-2301937D01*
X375520000Y-2378128D01*
X375558095Y-2416223D01*
X375634285Y-2454318D01*
X375786666Y-2492413D01*
X375977142Y-2492413D01*
X376129523Y-2454318D01*
X376205714Y-2416223D01*
X376243809Y-2378128D01*
X376281904Y-2301937D01*
X376281904Y-2225747D01*
X376243809Y-2149556D01*
X376205714Y-2111461D01*
X376129523Y-2073366D01*
X375977142Y-2035270D01*
X375786666Y-2035270D01*
X375634285Y-2073366D01*
X375558095Y-2111461D01*
X375520000Y-2149556D01*
X375481904Y-2225747D01*
X375443809Y-3406699D02*
X376472380Y-2720985D01*
X376281904Y-3673366D02*
X375481904Y-3673366D01*
X375481904Y-3863842D01*
X375520000Y-3978128D01*
X375596190Y-4054318D01*
X375672380Y-4092413D01*
X375824761Y-4130508D01*
X375939047Y-4130508D01*
X376091428Y-4092413D01*
X376167619Y-4054318D01*
X376243809Y-3978128D01*
X376281904Y-3863842D01*
X376281904Y-3673366D01*
X375481904Y-4397175D02*
X375481904Y-4892413D01*
X375786666Y-4625747D01*
X375786666Y-4740032D01*
X375824761Y-4816223D01*
X375862857Y-4854318D01*
X375939047Y-4892413D01*
X376129523Y-4892413D01*
X376205714Y-4854318D01*
X376243809Y-4816223D01*
X376281904Y-4740032D01*
X376281904Y-4511461D01*
X376243809Y-4435270D01*
X376205714Y-4397175D01*
X371183809Y-10856666D02*
X371221904Y-10970952D01*
X371221904Y-11161428D01*
X371183809Y-11237619D01*
X371145714Y-11275714D01*
X371069523Y-11313809D01*
X370993333Y-11313809D01*
X370917142Y-11275714D01*
X370879047Y-11237619D01*
X370840952Y-11161428D01*
X370802857Y-11009047D01*
X370764761Y-10932857D01*
X370726666Y-10894761D01*
X370650476Y-10856666D01*
X370574285Y-10856666D01*
X370498095Y-10894761D01*
X370460000Y-10932857D01*
X370421904Y-11009047D01*
X370421904Y-11199523D01*
X370460000Y-11313809D01*
X370421904Y-11542380D02*
X370421904Y-11999523D01*
X371221904Y-11770952D02*
X370421904Y-11770952D01*
X349300000Y-1566666D02*
X349333333Y-1666666D01*
X349366666Y-1700000D01*
X349433333Y-1733333D01*
X349533333Y-1733333D01*
X349600000Y-1700000D01*
X349633333Y-1666666D01*
X349666666Y-1600000D01*
X349666666Y-1333333D01*
X348966666Y-1333333D01*
X348966666Y-1566666D01*
X349000000Y-1633333D01*
X349033333Y-1666666D01*
X349100000Y-1700000D01*
X349166666Y-1700000D01*
X349233333Y-1666666D01*
X349266666Y-1633333D01*
X349300000Y-1566666D01*
X349300000Y-1333333D01*
X348966666Y-1966666D02*
X348966666Y-2433333D01*
X349666666Y-2133333D01*
X349300000Y-10616666D02*
X349300000Y-10383333D01*
X349666666Y-10383333D02*
X348966666Y-10383333D01*
X348966666Y-10716666D01*
X348966666Y-11116666D02*
X348966666Y-11183333D01*
X349000000Y-11250000D01*
X349033333Y-11283333D01*
X349100000Y-11316666D01*
X349233333Y-11350000D01*
X349400000Y-11350000D01*
X349533333Y-11316666D01*
X349600000Y-11283333D01*
X349633333Y-11250000D01*
X349666666Y-11183333D01*
X349666666Y-11116666D01*
X349633333Y-11050000D01*
X349600000Y-11016666D01*
X349533333Y-10983333D01*
X349400000Y-10950000D01*
X349233333Y-10950000D01*
X349100000Y-10983333D01*
X349033333Y-11016666D01*
X349000000Y-11050000D01*
X348966666Y-11116666D01*
X349485702Y-12914991D02*
X349391421Y-12867851D01*
X349344280Y-12867851D01*
X349273570Y-12891421D01*
X349202859Y-12962132D01*
X349179289Y-13032842D01*
X349179289Y-13079983D01*
X349202859Y-13150693D01*
X349391421Y-13339255D01*
X349886396Y-12844280D01*
X349721404Y-12679289D01*
X349650693Y-12655719D01*
X349603553Y-12655719D01*
X349532842Y-12679289D01*
X349485702Y-12726429D01*
X349462132Y-12797140D01*
X349462132Y-12844280D01*
X349485702Y-12914991D01*
X349650693Y-13079983D01*
X349179289Y-12137174D02*
X349273570Y-12231455D01*
X349297140Y-12302165D01*
X349297140Y-12349306D01*
X349273570Y-12467157D01*
X349202859Y-12585008D01*
X349014297Y-12773570D01*
X348943587Y-12797140D01*
X348896446Y-12797140D01*
X348825735Y-12773570D01*
X348731455Y-12679289D01*
X348707884Y-12608578D01*
X348707884Y-12561438D01*
X348731455Y-12490727D01*
X348849306Y-12372876D01*
X348920016Y-12349306D01*
X348967157Y-12349306D01*
X349037867Y-12372876D01*
X349132148Y-12467157D01*
X349155719Y-12537867D01*
X349155719Y-12585008D01*
X349132148Y-12655719D01*
X349835714Y-6216666D02*
X349873809Y-6178571D01*
X349911904Y-6064285D01*
X349911904Y-5988095D01*
X349873809Y-5873809D01*
X349797619Y-5797619D01*
X349721428Y-5759523D01*
X349569047Y-5721428D01*
X349454761Y-5721428D01*
X349302380Y-5759523D01*
X349226190Y-5797619D01*
X349150000Y-5873809D01*
X349111904Y-5988095D01*
X349111904Y-6064285D01*
X349150000Y-6178571D01*
X349188095Y-6216666D01*
X349111904Y-6483333D02*
X349111904Y-7016666D01*
X349911904Y-6673809D01*
X349492857Y-8623333D02*
X349492857Y-8356666D01*
X349911904Y-8356666D02*
X349111904Y-8356666D01*
X349111904Y-8737619D01*
X349911904Y-9461428D02*
X349911904Y-9004285D01*
X349911904Y-9232857D02*
X349111904Y-9232857D01*
X349226190Y-9156666D01*
X349302380Y-9080476D01*
X349340476Y-9004285D01*
X349911904Y-3219523D02*
X349111904Y-3219523D01*
X349111904Y-3410000D01*
X349150000Y-3524285D01*
X349226190Y-3600476D01*
X349302380Y-3638571D01*
X349454761Y-3676666D01*
X349569047Y-3676666D01*
X349721428Y-3638571D01*
X349797619Y-3600476D01*
X349873809Y-3524285D01*
X349911904Y-3410000D01*
X349911904Y-3219523D01*
X349111904Y-4400476D02*
X349111904Y-4019523D01*
X349492857Y-3981428D01*
X349454761Y-4019523D01*
X349416666Y-4095714D01*
X349416666Y-4286190D01*
X349454761Y-4362380D01*
X349492857Y-4400476D01*
X349569047Y-4438571D01*
X349759523Y-4438571D01*
X349835714Y-4400476D01*
X349873809Y-4362380D01*
X349911904Y-4286190D01*
X349911904Y-4095714D01*
X349873809Y-4019523D01*
X349835714Y-3981428D01*
X-46786845Y-47733023D02*
X-47586845Y-47733023D01*
X-47586845Y-47923500D01*
X-47548750Y-48037785D01*
X-47472559Y-48113976D01*
X-47396369Y-48152071D01*
X-47243988Y-48190166D01*
X-47129702Y-48190166D01*
X-46977321Y-48152071D01*
X-46901130Y-48113976D01*
X-46824940Y-48037785D01*
X-46786845Y-47923500D01*
X-46786845Y-47733023D01*
X-47510654Y-48494928D02*
X-47548750Y-48533023D01*
X-47586845Y-48609214D01*
X-47586845Y-48799690D01*
X-47548750Y-48875880D01*
X-47510654Y-48913976D01*
X-47434464Y-48952071D01*
X-47358273Y-48952071D01*
X-47243988Y-48913976D01*
X-46786845Y-48456833D01*
X-46786845Y-48952071D01*
X-36626845Y-47733023D02*
X-37426845Y-47733023D01*
X-37426845Y-47923500D01*
X-37388750Y-48037785D01*
X-37312559Y-48113976D01*
X-37236369Y-48152071D01*
X-37083988Y-48190166D01*
X-36969702Y-48190166D01*
X-36817321Y-48152071D01*
X-36741130Y-48113976D01*
X-36664940Y-48037785D01*
X-36626845Y-47923500D01*
X-36626845Y-47733023D01*
X-37426845Y-48685404D02*
X-37426845Y-48761595D01*
X-37388750Y-48837785D01*
X-37350654Y-48875880D01*
X-37274464Y-48913976D01*
X-37122083Y-48952071D01*
X-36931607Y-48952071D01*
X-36779226Y-48913976D01*
X-36703035Y-48875880D01*
X-36664940Y-48837785D01*
X-36626845Y-48761595D01*
X-36626845Y-48685404D01*
X-36664940Y-48609214D01*
X-36703035Y-48571119D01*
X-36779226Y-48533023D01*
X-36931607Y-48494928D01*
X-37122083Y-48494928D01*
X-37274464Y-48533023D01*
X-37350654Y-48571119D01*
X-37388750Y-48609214D01*
X-37426845Y-48685404D01*
X-39166845Y-47733023D02*
X-39966845Y-47733023D01*
X-39966845Y-47923500D01*
X-39928750Y-48037785D01*
X-39852559Y-48113976D01*
X-39776369Y-48152071D01*
X-39623988Y-48190166D01*
X-39509702Y-48190166D01*
X-39357321Y-48152071D01*
X-39281130Y-48113976D01*
X-39204940Y-48037785D01*
X-39166845Y-47923500D01*
X-39166845Y-47733023D01*
X-39166845Y-48952071D02*
X-39166845Y-48494928D01*
X-39166845Y-48723500D02*
X-39966845Y-48723500D01*
X-39852559Y-48647309D01*
X-39776369Y-48571119D01*
X-39738273Y-48494928D01*
X-42468750Y-47713976D02*
X-42506845Y-47637785D01*
X-42506845Y-47523500D01*
X-42468750Y-47409214D01*
X-42392559Y-47333023D01*
X-42316369Y-47294928D01*
X-42163988Y-47256833D01*
X-42049702Y-47256833D01*
X-41897321Y-47294928D01*
X-41821130Y-47333023D01*
X-41744940Y-47409214D01*
X-41706845Y-47523500D01*
X-41706845Y-47599690D01*
X-41744940Y-47713976D01*
X-41783035Y-47752071D01*
X-42049702Y-47752071D01*
X-42049702Y-47599690D01*
X-41706845Y-48094928D02*
X-42506845Y-48094928D01*
X-41706845Y-48552071D01*
X-42506845Y-48552071D01*
X-41706845Y-48933023D02*
X-42506845Y-48933023D01*
X-42506845Y-49123500D01*
X-42468750Y-49237785D01*
X-42392559Y-49313976D01*
X-42316369Y-49352071D01*
X-42163988Y-49390166D01*
X-42049702Y-49390166D01*
X-41897321Y-49352071D01*
X-41821130Y-49313976D01*
X-41744940Y-49237785D01*
X-41706845Y-49123500D01*
X-41706845Y-48933023D01*
X-45008750Y-47713976D02*
X-45046845Y-47637785D01*
X-45046845Y-47523500D01*
X-45008750Y-47409214D01*
X-44932559Y-47333023D01*
X-44856369Y-47294928D01*
X-44703988Y-47256833D01*
X-44589702Y-47256833D01*
X-44437321Y-47294928D01*
X-44361130Y-47333023D01*
X-44284940Y-47409214D01*
X-44246845Y-47523500D01*
X-44246845Y-47599690D01*
X-44284940Y-47713976D01*
X-44323035Y-47752071D01*
X-44589702Y-47752071D01*
X-44589702Y-47599690D01*
X-44246845Y-48094928D02*
X-45046845Y-48094928D01*
X-44246845Y-48552071D01*
X-45046845Y-48552071D01*
X-44246845Y-48933023D02*
X-45046845Y-48933023D01*
X-45046845Y-49123500D01*
X-45008750Y-49237785D01*
X-44932559Y-49313976D01*
X-44856369Y-49352071D01*
X-44703988Y-49390166D01*
X-44589702Y-49390166D01*
X-44437321Y-49352071D01*
X-44361130Y-49313976D01*
X-44284940Y-49237785D01*
X-44246845Y-49123500D01*
X-44246845Y-48933023D01*
X-34086845Y-47733023D02*
X-34886845Y-47733023D01*
X-34886845Y-47923500D01*
X-34848750Y-48037785D01*
X-34772559Y-48113976D01*
X-34696369Y-48152071D01*
X-34543988Y-48190166D01*
X-34429702Y-48190166D01*
X-34277321Y-48152071D01*
X-34201130Y-48113976D01*
X-34124940Y-48037785D01*
X-34086845Y-47923500D01*
X-34086845Y-47733023D01*
X-34620178Y-48875880D02*
X-34086845Y-48875880D01*
X-34924940Y-48685404D02*
X-34353511Y-48494928D01*
X-34353511Y-48990166D01*
X-31623035Y-48190166D02*
X-31584940Y-48152071D01*
X-31546845Y-48037785D01*
X-31546845Y-47961595D01*
X-31584940Y-47847309D01*
X-31661130Y-47771119D01*
X-31737321Y-47733023D01*
X-31889702Y-47694928D01*
X-32003988Y-47694928D01*
X-32156369Y-47733023D01*
X-32232559Y-47771119D01*
X-32308750Y-47847309D01*
X-32346845Y-47961595D01*
X-32346845Y-48037785D01*
X-32308750Y-48152071D01*
X-32270654Y-48190166D01*
X-32346845Y-48875880D02*
X-32346845Y-48723500D01*
X-32308750Y-48647309D01*
X-32270654Y-48609214D01*
X-32156369Y-48533023D01*
X-32003988Y-48494928D01*
X-31699226Y-48494928D01*
X-31623035Y-48533023D01*
X-31584940Y-48571119D01*
X-31546845Y-48647309D01*
X-31546845Y-48799690D01*
X-31584940Y-48875880D01*
X-31623035Y-48913976D01*
X-31699226Y-48952071D01*
X-31889702Y-48952071D01*
X-31965892Y-48913976D01*
X-32003988Y-48875880D01*
X-32042083Y-48799690D01*
X-32042083Y-48647309D01*
X-32003988Y-48571119D01*
X-31965892Y-48533023D01*
X-31889702Y-48494928D01*
X-29006845Y-47733023D02*
X-29806845Y-47733023D01*
X-29806845Y-47923500D01*
X-29768750Y-48037785D01*
X-29692559Y-48113976D01*
X-29616369Y-48152071D01*
X-29463988Y-48190166D01*
X-29349702Y-48190166D01*
X-29197321Y-48152071D01*
X-29121130Y-48113976D01*
X-29044940Y-48037785D01*
X-29006845Y-47923500D01*
X-29006845Y-47733023D01*
X-29806845Y-48456833D02*
X-29806845Y-48990166D01*
X-29006845Y-48647309D01*
X-26885892Y-47771119D02*
X-26885892Y-48037785D01*
X-26466845Y-48152071D02*
X-26466845Y-47771119D01*
X-27266845Y-47771119D01*
X-27266845Y-48152071D01*
X-27266845Y-48837785D02*
X-27266845Y-48685404D01*
X-27228750Y-48609214D01*
X-27190654Y-48571119D01*
X-27076369Y-48494928D01*
X-26923988Y-48456833D01*
X-26619226Y-48456833D01*
X-26543035Y-48494928D01*
X-26504940Y-48533023D01*
X-26466845Y-48609214D01*
X-26466845Y-48761595D01*
X-26504940Y-48837785D01*
X-26543035Y-48875880D01*
X-26619226Y-48913976D01*
X-26809702Y-48913976D01*
X-26885892Y-48875880D01*
X-26923988Y-48837785D01*
X-26962083Y-48761595D01*
X-26962083Y-48609214D01*
X-26923988Y-48533023D01*
X-26885892Y-48494928D01*
X-26809702Y-48456833D01*
X-24345892Y-47999690D02*
X-24307797Y-48113976D01*
X-24269702Y-48152071D01*
X-24193511Y-48190166D01*
X-24079226Y-48190166D01*
X-24003035Y-48152071D01*
X-23964940Y-48113976D01*
X-23926845Y-48037785D01*
X-23926845Y-47733023D01*
X-24726845Y-47733023D01*
X-24726845Y-47999690D01*
X-24688750Y-48075880D01*
X-24650654Y-48113976D01*
X-24574464Y-48152071D01*
X-24498273Y-48152071D01*
X-24422083Y-48113976D01*
X-24383988Y-48075880D01*
X-24345892Y-47999690D01*
X-24345892Y-47733023D01*
X-24460178Y-48875880D02*
X-23926845Y-48875880D01*
X-24764940Y-48685404D02*
X-24193511Y-48494928D01*
X-24193511Y-48990166D01*
X-22853758Y-49026797D02*
X-22900898Y-49121078D01*
X-22900898Y-49168219D01*
X-22877328Y-49238929D01*
X-22806617Y-49309640D01*
X-22735907Y-49333210D01*
X-22688766Y-49333210D01*
X-22618056Y-49309640D01*
X-22429494Y-49121078D01*
X-22924469Y-48626103D01*
X-23089460Y-48791095D01*
X-23113030Y-48861806D01*
X-23113030Y-48908946D01*
X-23089460Y-48979657D01*
X-23042320Y-49026797D01*
X-22971609Y-49050367D01*
X-22924469Y-49050367D01*
X-22853758Y-49026797D01*
X-22688766Y-48861806D01*
X-23655146Y-49356780D02*
X-23419443Y-49121078D01*
X-23160171Y-49333210D01*
X-23207311Y-49333210D01*
X-23278022Y-49356780D01*
X-23395873Y-49474632D01*
X-23419443Y-49545342D01*
X-23419443Y-49592483D01*
X-23395873Y-49663193D01*
X-23278022Y-49781044D01*
X-23207311Y-49804615D01*
X-23160171Y-49804615D01*
X-23089460Y-49781044D01*
X-22971609Y-49663193D01*
X-22948039Y-49592483D01*
X-22948039Y-49545342D01*
X-26885892Y-37077690D02*
X-26847797Y-37191976D01*
X-26809702Y-37230071D01*
X-26733511Y-37268166D01*
X-26619226Y-37268166D01*
X-26543035Y-37230071D01*
X-26504940Y-37191976D01*
X-26466845Y-37115785D01*
X-26466845Y-36811023D01*
X-27266845Y-36811023D01*
X-27266845Y-37077690D01*
X-27228750Y-37153880D01*
X-27190654Y-37191976D01*
X-27114464Y-37230071D01*
X-27038273Y-37230071D01*
X-26962083Y-37191976D01*
X-26923988Y-37153880D01*
X-26885892Y-37077690D01*
X-26885892Y-36811023D01*
X-27266845Y-37534833D02*
X-27266845Y-38030071D01*
X-26962083Y-37763404D01*
X-26962083Y-37877690D01*
X-26923988Y-37953880D01*
X-26885892Y-37991976D01*
X-26809702Y-38030071D01*
X-26619226Y-38030071D01*
X-26543035Y-37991976D01*
X-26504940Y-37953880D01*
X-26466845Y-37877690D01*
X-26466845Y-37649119D01*
X-26504940Y-37572928D01*
X-26543035Y-37534833D01*
X-29425892Y-37077690D02*
X-29387797Y-37191976D01*
X-29349702Y-37230071D01*
X-29273511Y-37268166D01*
X-29159226Y-37268166D01*
X-29083035Y-37230071D01*
X-29044940Y-37191976D01*
X-29006845Y-37115785D01*
X-29006845Y-36811023D01*
X-29806845Y-36811023D01*
X-29806845Y-37077690D01*
X-29768750Y-37153880D01*
X-29730654Y-37191976D01*
X-29654464Y-37230071D01*
X-29578273Y-37230071D01*
X-29502083Y-37191976D01*
X-29463988Y-37153880D01*
X-29425892Y-37077690D01*
X-29425892Y-36811023D01*
X-29006845Y-38030071D02*
X-29006845Y-37572928D01*
X-29006845Y-37801500D02*
X-29806845Y-37801500D01*
X-29692559Y-37725309D01*
X-29616369Y-37649119D01*
X-29578273Y-37572928D01*
X-39585892Y-37134833D02*
X-39585892Y-36868166D01*
X-39166845Y-36868166D02*
X-39966845Y-36868166D01*
X-39966845Y-37249119D01*
X-39700178Y-37896738D02*
X-39166845Y-37896738D01*
X-40004940Y-37706261D02*
X-39433511Y-37515785D01*
X-39433511Y-38011023D01*
X-42506845Y-36334833D02*
X-41706845Y-36601500D01*
X-42506845Y-36868166D01*
X-41783035Y-37591976D02*
X-41744940Y-37553880D01*
X-41706845Y-37439595D01*
X-41706845Y-37363404D01*
X-41744940Y-37249119D01*
X-41821130Y-37172928D01*
X-41897321Y-37134833D01*
X-42049702Y-37096738D01*
X-42163988Y-37096738D01*
X-42316369Y-37134833D01*
X-42392559Y-37172928D01*
X-42468750Y-37249119D01*
X-42506845Y-37363404D01*
X-42506845Y-37439595D01*
X-42468750Y-37553880D01*
X-42430654Y-37591976D01*
X-41783035Y-38391976D02*
X-41744940Y-38353880D01*
X-41706845Y-38239595D01*
X-41706845Y-38163404D01*
X-41744940Y-38049119D01*
X-41821130Y-37972928D01*
X-41897321Y-37934833D01*
X-42049702Y-37896738D01*
X-42163988Y-37896738D01*
X-42316369Y-37934833D01*
X-42392559Y-37972928D01*
X-42468750Y-38049119D01*
X-42506845Y-38163404D01*
X-42506845Y-38239595D01*
X-42468750Y-38353880D01*
X-42430654Y-38391976D01*
X-47548750Y-36791976D02*
X-47586845Y-36715785D01*
X-47586845Y-36601500D01*
X-47548750Y-36487214D01*
X-47472559Y-36411023D01*
X-47396369Y-36372928D01*
X-47243988Y-36334833D01*
X-47129702Y-36334833D01*
X-46977321Y-36372928D01*
X-46901130Y-36411023D01*
X-46824940Y-36487214D01*
X-46786845Y-36601500D01*
X-46786845Y-36677690D01*
X-46824940Y-36791976D01*
X-46863035Y-36830071D01*
X-47129702Y-36830071D01*
X-47129702Y-36677690D01*
X-46786845Y-37172928D02*
X-47586845Y-37172928D01*
X-46786845Y-37630071D01*
X-47586845Y-37630071D01*
X-46786845Y-38011023D02*
X-47586845Y-38011023D01*
X-47586845Y-38201500D01*
X-47548750Y-38315785D01*
X-47472559Y-38391976D01*
X-47396369Y-38430071D01*
X-47243988Y-38468166D01*
X-47129702Y-38468166D01*
X-46977321Y-38430071D01*
X-46901130Y-38391976D01*
X-46824940Y-38315785D01*
X-46786845Y-38201500D01*
X-46786845Y-38011023D01*
X-49745892Y-37077690D02*
X-49707797Y-37191976D01*
X-49669702Y-37230071D01*
X-49593511Y-37268166D01*
X-49479226Y-37268166D01*
X-49403035Y-37230071D01*
X-49364940Y-37191976D01*
X-49326845Y-37115785D01*
X-49326845Y-36811023D01*
X-50126845Y-36811023D01*
X-50126845Y-37077690D01*
X-50088750Y-37153880D01*
X-50050654Y-37191976D01*
X-49974464Y-37230071D01*
X-49898273Y-37230071D01*
X-49822083Y-37191976D01*
X-49783988Y-37153880D01*
X-49745892Y-37077690D01*
X-49745892Y-36811023D01*
X-50126845Y-37763404D02*
X-50126845Y-37839595D01*
X-50088750Y-37915785D01*
X-50050654Y-37953880D01*
X-49974464Y-37991976D01*
X-49822083Y-38030071D01*
X-49631607Y-38030071D01*
X-49479226Y-37991976D01*
X-49403035Y-37953880D01*
X-49364940Y-37915785D01*
X-49326845Y-37839595D01*
X-49326845Y-37763404D01*
X-49364940Y-37687214D01*
X-49403035Y-37649119D01*
X-49479226Y-37611023D01*
X-49631607Y-37572928D01*
X-49822083Y-37572928D01*
X-49974464Y-37611023D01*
X-50050654Y-37649119D01*
X-50088750Y-37687214D01*
X-50126845Y-37763404D01*
X-37045892Y-37134833D02*
X-37045892Y-36868166D01*
X-36626845Y-36868166D02*
X-37426845Y-36868166D01*
X-37426845Y-37249119D01*
X-37426845Y-37934833D02*
X-37426845Y-37553880D01*
X-37045892Y-37515785D01*
X-37083988Y-37553880D01*
X-37122083Y-37630071D01*
X-37122083Y-37820547D01*
X-37083988Y-37896738D01*
X-37045892Y-37934833D01*
X-36969702Y-37972928D01*
X-36779226Y-37972928D01*
X-36703035Y-37934833D01*
X-36664940Y-37896738D01*
X-36626845Y-37820547D01*
X-36626845Y-37630071D01*
X-36664940Y-37553880D01*
X-36703035Y-37515785D01*
X-34505892Y-37134833D02*
X-34505892Y-36868166D01*
X-34086845Y-36868166D02*
X-34886845Y-36868166D01*
X-34886845Y-37249119D01*
X-34886845Y-37896738D02*
X-34886845Y-37744357D01*
X-34848750Y-37668166D01*
X-34810654Y-37630071D01*
X-34696369Y-37553880D01*
X-34543988Y-37515785D01*
X-34239226Y-37515785D01*
X-34163035Y-37553880D01*
X-34124940Y-37591976D01*
X-34086845Y-37668166D01*
X-34086845Y-37820547D01*
X-34124940Y-37896738D01*
X-34163035Y-37934833D01*
X-34239226Y-37972928D01*
X-34429702Y-37972928D01*
X-34505892Y-37934833D01*
X-34543988Y-37896738D01*
X-34582083Y-37820547D01*
X-34582083Y-37668166D01*
X-34543988Y-37591976D01*
X-34505892Y-37553880D01*
X-34429702Y-37515785D01*
X-31965892Y-37134833D02*
X-31965892Y-36868166D01*
X-31546845Y-36868166D02*
X-32346845Y-36868166D01*
X-32346845Y-37249119D01*
X-32346845Y-37477690D02*
X-32346845Y-38011023D01*
X-31546845Y-37668166D01*
X-24345892Y-37077690D02*
X-24307797Y-37191976D01*
X-24269702Y-37230071D01*
X-24193511Y-37268166D01*
X-24079226Y-37268166D01*
X-24003035Y-37230071D01*
X-23964940Y-37191976D01*
X-23926845Y-37115785D01*
X-23926845Y-36811023D01*
X-24726845Y-36811023D01*
X-24726845Y-37077690D01*
X-24688750Y-37153880D01*
X-24650654Y-37191976D01*
X-24574464Y-37230071D01*
X-24498273Y-37230071D01*
X-24422083Y-37191976D01*
X-24383988Y-37153880D01*
X-24345892Y-37077690D01*
X-24345892Y-36811023D01*
X-24650654Y-37572928D02*
X-24688750Y-37611023D01*
X-24726845Y-37687214D01*
X-24726845Y-37877690D01*
X-24688750Y-37953880D01*
X-24650654Y-37991976D01*
X-24574464Y-38030071D01*
X-24498273Y-38030071D01*
X-24383988Y-37991976D01*
X-23926845Y-37534833D01*
X-23926845Y-38030071D01*
X-50126845Y-44243895D02*
X-50126845Y-44701038D01*
X-49326845Y-44472467D02*
X-50126845Y-44472467D01*
X-50126845Y-44891514D02*
X-49326845Y-45424848D01*
X-50126845Y-45424848D02*
X-49326845Y-44891514D01*
X-50126845Y-45881991D02*
X-50126845Y-45958181D01*
X-50088750Y-46034372D01*
X-50050654Y-46072467D01*
X-49974464Y-46110562D01*
X-49822083Y-46148657D01*
X-49631607Y-46148657D01*
X-49479226Y-46110562D01*
X-49403035Y-46072467D01*
X-49364940Y-46034372D01*
X-49326845Y-45958181D01*
X-49326845Y-45881991D01*
X-49364940Y-45805800D01*
X-49403035Y-45767705D01*
X-49479226Y-45729610D01*
X-49631607Y-45691514D01*
X-49822083Y-45691514D01*
X-49974464Y-45729610D01*
X-50050654Y-45767705D01*
X-50088750Y-45805800D01*
X-50126845Y-45881991D01*
X-50164940Y-47062943D02*
X-49136369Y-46377229D01*
X-49326845Y-47329610D02*
X-50126845Y-47329610D01*
X-50126845Y-47520086D01*
X-50088750Y-47634372D01*
X-50012559Y-47710562D01*
X-49936369Y-47748657D01*
X-49783988Y-47786752D01*
X-49669702Y-47786752D01*
X-49517321Y-47748657D01*
X-49441130Y-47710562D01*
X-49364940Y-47634372D01*
X-49326845Y-47520086D01*
X-49326845Y-47329610D01*
X-50126845Y-48053419D02*
X-50126845Y-48548657D01*
X-49822083Y-48281991D01*
X-49822083Y-48396276D01*
X-49783988Y-48472467D01*
X-49745892Y-48510562D01*
X-49669702Y-48548657D01*
X-49479226Y-48548657D01*
X-49403035Y-48510562D01*
X-49364940Y-48472467D01*
X-49326845Y-48396276D01*
X-49326845Y-48167705D01*
X-49364940Y-48091514D01*
X-49403035Y-48053419D01*
X-44304940Y-37289166D02*
X-44266845Y-37403452D01*
X-44266845Y-37593928D01*
X-44304940Y-37670119D01*
X-44343035Y-37708214D01*
X-44419226Y-37746309D01*
X-44495416Y-37746309D01*
X-44571607Y-37708214D01*
X-44609702Y-37670119D01*
X-44647797Y-37593928D01*
X-44685892Y-37441547D01*
X-44723988Y-37365357D01*
X-44762083Y-37327261D01*
X-44838273Y-37289166D01*
X-44914464Y-37289166D01*
X-44990654Y-37327261D01*
X-45028750Y-37365357D01*
X-45066845Y-37441547D01*
X-45066845Y-37632023D01*
X-45028750Y-37746309D01*
X-45066845Y-37974880D02*
X-45066845Y-38432023D01*
X-44266845Y-38203452D02*
X-45066845Y-38203452D01*
X-23168750Y-47079166D02*
X-23135416Y-47179166D01*
X-23102083Y-47212500D01*
X-23035416Y-47245833D01*
X-22935416Y-47245833D01*
X-22868750Y-47212500D01*
X-22835416Y-47179166D01*
X-22802083Y-47112500D01*
X-22802083Y-46845833D01*
X-23502083Y-46845833D01*
X-23502083Y-47079166D01*
X-23468750Y-47145833D01*
X-23435416Y-47179166D01*
X-23368750Y-47212500D01*
X-23302083Y-47212500D01*
X-23235416Y-47179166D01*
X-23202083Y-47145833D01*
X-23168750Y-47079166D01*
X-23168750Y-46845833D01*
X-23502083Y-47479166D02*
X-23502083Y-47945833D01*
X-22802083Y-47645833D01*
X-23168750Y-38129166D02*
X-23168750Y-37895833D01*
X-22802083Y-37895833D02*
X-23502083Y-37895833D01*
X-23502083Y-38229166D01*
X-23502083Y-38629166D02*
X-23502083Y-38695833D01*
X-23468750Y-38762500D01*
X-23435416Y-38795833D01*
X-23368750Y-38829166D01*
X-23235416Y-38862500D01*
X-23068750Y-38862500D01*
X-22935416Y-38829166D01*
X-22868750Y-38795833D01*
X-22835416Y-38762500D01*
X-22802083Y-38695833D01*
X-22802083Y-38629166D01*
X-22835416Y-38562500D01*
X-22868750Y-38529166D01*
X-22935416Y-38495833D01*
X-23068750Y-38462500D01*
X-23235416Y-38462500D01*
X-23368750Y-38495833D01*
X-23435416Y-38529166D01*
X-23468750Y-38562500D01*
X-23502083Y-38629166D01*
X-23254452Y-36297508D02*
X-23160171Y-36344648D01*
X-23113030Y-36344648D01*
X-23042320Y-36321078D01*
X-22971609Y-36250367D01*
X-22948039Y-36179657D01*
X-22948039Y-36132516D01*
X-22971609Y-36061806D01*
X-23160171Y-35873244D01*
X-23655146Y-36368219D01*
X-23490154Y-36533210D01*
X-23419443Y-36556780D01*
X-23372303Y-36556780D01*
X-23301592Y-36533210D01*
X-23254452Y-36486070D01*
X-23230882Y-36415359D01*
X-23230882Y-36368219D01*
X-23254452Y-36297508D01*
X-23419443Y-36132516D01*
X-22948039Y-37075325D02*
X-23042320Y-36981044D01*
X-23065890Y-36910334D01*
X-23065890Y-36863193D01*
X-23042320Y-36745342D01*
X-22971609Y-36627491D01*
X-22783047Y-36438929D01*
X-22712337Y-36415359D01*
X-22665196Y-36415359D01*
X-22594485Y-36438929D01*
X-22500205Y-36533210D01*
X-22476634Y-36603921D01*
X-22476634Y-36651061D01*
X-22500205Y-36721772D01*
X-22618056Y-36839623D01*
X-22688766Y-36863193D01*
X-22735907Y-36863193D01*
X-22806617Y-36839623D01*
X-22900898Y-36745342D01*
X-22924469Y-36674632D01*
X-22924469Y-36627491D01*
X-22900898Y-36556780D01*
X-23033035Y-42729166D02*
X-22994940Y-42691071D01*
X-22956845Y-42576785D01*
X-22956845Y-42500595D01*
X-22994940Y-42386309D01*
X-23071130Y-42310119D01*
X-23147321Y-42272023D01*
X-23299702Y-42233928D01*
X-23413988Y-42233928D01*
X-23566369Y-42272023D01*
X-23642559Y-42310119D01*
X-23718750Y-42386309D01*
X-23756845Y-42500595D01*
X-23756845Y-42576785D01*
X-23718750Y-42691071D01*
X-23680654Y-42729166D01*
X-23756845Y-42995833D02*
X-23756845Y-43529166D01*
X-22956845Y-43186309D01*
X-23375892Y-40055833D02*
X-23375892Y-39789166D01*
X-22956845Y-39789166D02*
X-23756845Y-39789166D01*
X-23756845Y-40170119D01*
X-22956845Y-40893928D02*
X-22956845Y-40436785D01*
X-22956845Y-40665357D02*
X-23756845Y-40665357D01*
X-23642559Y-40589166D01*
X-23566369Y-40512976D01*
X-23528273Y-40436785D01*
X-22956845Y-44812023D02*
X-23756845Y-44812023D01*
X-23756845Y-45002500D01*
X-23718750Y-45116785D01*
X-23642559Y-45192976D01*
X-23566369Y-45231071D01*
X-23413988Y-45269166D01*
X-23299702Y-45269166D01*
X-23147321Y-45231071D01*
X-23071130Y-45192976D01*
X-22994940Y-45116785D01*
X-22956845Y-45002500D01*
X-22956845Y-44812023D01*
X-23756845Y-45992976D02*
X-23756845Y-45612023D01*
X-23375892Y-45573928D01*
X-23413988Y-45612023D01*
X-23452083Y-45688214D01*
X-23452083Y-45878690D01*
X-23413988Y-45954880D01*
X-23375892Y-45992976D01*
X-23299702Y-46031071D01*
X-23109226Y-46031071D01*
X-23033035Y-45992976D01*
X-22994940Y-45954880D01*
X-22956845Y-45878690D01*
X-22956845Y-45688214D01*
X-22994940Y-45612023D01*
X-23033035Y-45573928D01*
X349911904Y-42907023D02*
X349111904Y-42907023D01*
X349111904Y-43097500D01*
X349150000Y-43211785D01*
X349226190Y-43287976D01*
X349302380Y-43326071D01*
X349454761Y-43364166D01*
X349569047Y-43364166D01*
X349721428Y-43326071D01*
X349797619Y-43287976D01*
X349873809Y-43211785D01*
X349911904Y-43097500D01*
X349911904Y-42907023D01*
X349111904Y-44087976D02*
X349111904Y-43707023D01*
X349492857Y-43668928D01*
X349454761Y-43707023D01*
X349416666Y-43783214D01*
X349416666Y-43973690D01*
X349454761Y-44049880D01*
X349492857Y-44087976D01*
X349569047Y-44126071D01*
X349759523Y-44126071D01*
X349835714Y-44087976D01*
X349873809Y-44049880D01*
X349911904Y-43973690D01*
X349911904Y-43783214D01*
X349873809Y-43707023D01*
X349835714Y-43668928D01*
X349492857Y-48310833D02*
X349492857Y-48044166D01*
X349911904Y-48044166D02*
X349111904Y-48044166D01*
X349111904Y-48425119D01*
X349911904Y-49148928D02*
X349911904Y-48691785D01*
X349911904Y-48920357D02*
X349111904Y-48920357D01*
X349226190Y-48844166D01*
X349302380Y-48767976D01*
X349340476Y-48691785D01*
X349835714Y-45904166D02*
X349873809Y-45866071D01*
X349911904Y-45751785D01*
X349911904Y-45675595D01*
X349873809Y-45561309D01*
X349797619Y-45485119D01*
X349721428Y-45447023D01*
X349569047Y-45408928D01*
X349454761Y-45408928D01*
X349302380Y-45447023D01*
X349226190Y-45485119D01*
X349150000Y-45561309D01*
X349111904Y-45675595D01*
X349111904Y-45751785D01*
X349150000Y-45866071D01*
X349188095Y-45904166D01*
X349111904Y-46170833D02*
X349111904Y-46704166D01*
X349911904Y-46361309D01*
X349485702Y-52602491D02*
X349391421Y-52555351D01*
X349344280Y-52555351D01*
X349273570Y-52578921D01*
X349202859Y-52649632D01*
X349179289Y-52720342D01*
X349179289Y-52767483D01*
X349202859Y-52838193D01*
X349391421Y-53026755D01*
X349886396Y-52531780D01*
X349721404Y-52366789D01*
X349650693Y-52343219D01*
X349603553Y-52343219D01*
X349532842Y-52366789D01*
X349485702Y-52413929D01*
X349462132Y-52484640D01*
X349462132Y-52531780D01*
X349485702Y-52602491D01*
X349650693Y-52767483D01*
X349179289Y-51824674D02*
X349273570Y-51918955D01*
X349297140Y-51989665D01*
X349297140Y-52036806D01*
X349273570Y-52154657D01*
X349202859Y-52272508D01*
X349014297Y-52461070D01*
X348943587Y-52484640D01*
X348896446Y-52484640D01*
X348825735Y-52461070D01*
X348731455Y-52366789D01*
X348707884Y-52296078D01*
X348707884Y-52248938D01*
X348731455Y-52178227D01*
X348849306Y-52060376D01*
X348920016Y-52036806D01*
X348967157Y-52036806D01*
X349037867Y-52060376D01*
X349132148Y-52154657D01*
X349155719Y-52225367D01*
X349155719Y-52272508D01*
X349132148Y-52343219D01*
X349300000Y-50304166D02*
X349300000Y-50070833D01*
X349666666Y-50070833D02*
X348966666Y-50070833D01*
X348966666Y-50404166D01*
X348966666Y-50804166D02*
X348966666Y-50870833D01*
X349000000Y-50937500D01*
X349033333Y-50970833D01*
X349100000Y-51004166D01*
X349233333Y-51037500D01*
X349400000Y-51037500D01*
X349533333Y-51004166D01*
X349600000Y-50970833D01*
X349633333Y-50937500D01*
X349666666Y-50870833D01*
X349666666Y-50804166D01*
X349633333Y-50737500D01*
X349600000Y-50704166D01*
X349533333Y-50670833D01*
X349400000Y-50637500D01*
X349233333Y-50637500D01*
X349100000Y-50670833D01*
X349033333Y-50704166D01*
X349000000Y-50737500D01*
X348966666Y-50804166D01*
X349300000Y-41254166D02*
X349333333Y-41354166D01*
X349366666Y-41387500D01*
X349433333Y-41420833D01*
X349533333Y-41420833D01*
X349600000Y-41387500D01*
X349633333Y-41354166D01*
X349666666Y-41287500D01*
X349666666Y-41020833D01*
X348966666Y-41020833D01*
X348966666Y-41254166D01*
X349000000Y-41320833D01*
X349033333Y-41354166D01*
X349100000Y-41387500D01*
X349166666Y-41387500D01*
X349233333Y-41354166D01*
X349266666Y-41320833D01*
X349300000Y-41254166D01*
X349300000Y-41020833D01*
X348966666Y-41654166D02*
X348966666Y-42120833D01*
X349666666Y-41820833D01*
X371183809Y-50544166D02*
X371221904Y-50658452D01*
X371221904Y-50848928D01*
X371183809Y-50925119D01*
X371145714Y-50963214D01*
X371069523Y-51001309D01*
X370993333Y-51001309D01*
X370917142Y-50963214D01*
X370879047Y-50925119D01*
X370840952Y-50848928D01*
X370802857Y-50696547D01*
X370764761Y-50620357D01*
X370726666Y-50582261D01*
X370650476Y-50544166D01*
X370574285Y-50544166D01*
X370498095Y-50582261D01*
X370460000Y-50620357D01*
X370421904Y-50696547D01*
X370421904Y-50887023D01*
X370460000Y-51001309D01*
X370421904Y-51229880D02*
X370421904Y-51687023D01*
X371221904Y-51458452D02*
X370421904Y-51458452D01*
X375481904Y-40275151D02*
X375481904Y-40732294D01*
X376281904Y-40503723D02*
X375481904Y-40503723D01*
X375481904Y-40922770D02*
X376281904Y-41456104D01*
X375481904Y-41456104D02*
X376281904Y-40922770D01*
X375481904Y-41913247D02*
X375481904Y-41989437D01*
X375520000Y-42065628D01*
X375558095Y-42103723D01*
X375634285Y-42141818D01*
X375786666Y-42179913D01*
X375977142Y-42179913D01*
X376129523Y-42141818D01*
X376205714Y-42103723D01*
X376243809Y-42065628D01*
X376281904Y-41989437D01*
X376281904Y-41913247D01*
X376243809Y-41837056D01*
X376205714Y-41798961D01*
X376129523Y-41760866D01*
X375977142Y-41722770D01*
X375786666Y-41722770D01*
X375634285Y-41760866D01*
X375558095Y-41798961D01*
X375520000Y-41837056D01*
X375481904Y-41913247D01*
X375443809Y-43094199D02*
X376472380Y-42408485D01*
X376281904Y-43360866D02*
X375481904Y-43360866D01*
X375481904Y-43551342D01*
X375520000Y-43665628D01*
X375596190Y-43741818D01*
X375672380Y-43779913D01*
X375824761Y-43818008D01*
X375939047Y-43818008D01*
X376091428Y-43779913D01*
X376167619Y-43741818D01*
X376243809Y-43665628D01*
X376281904Y-43551342D01*
X376281904Y-43360866D01*
X375481904Y-44084675D02*
X375481904Y-44579913D01*
X375786666Y-44313247D01*
X375786666Y-44427532D01*
X375824761Y-44503723D01*
X375862857Y-44541818D01*
X375939047Y-44579913D01*
X376129523Y-44579913D01*
X376205714Y-44541818D01*
X376243809Y-44503723D01*
X376281904Y-44427532D01*
X376281904Y-44198961D01*
X376243809Y-44122770D01*
X376205714Y-44084675D01*
X350462857Y-51174690D02*
X350500952Y-51288976D01*
X350539047Y-51327071D01*
X350615238Y-51365166D01*
X350729523Y-51365166D01*
X350805714Y-51327071D01*
X350843809Y-51288976D01*
X350881904Y-51212785D01*
X350881904Y-50908023D01*
X350081904Y-50908023D01*
X350081904Y-51174690D01*
X350120000Y-51250880D01*
X350158095Y-51288976D01*
X350234285Y-51327071D01*
X350310476Y-51327071D01*
X350386666Y-51288976D01*
X350424761Y-51250880D01*
X350462857Y-51174690D01*
X350462857Y-50908023D01*
X350158095Y-51669928D02*
X350120000Y-51708023D01*
X350081904Y-51784214D01*
X350081904Y-51974690D01*
X350120000Y-52050880D01*
X350158095Y-52088976D01*
X350234285Y-52127071D01*
X350310476Y-52127071D01*
X350424761Y-52088976D01*
X350881904Y-51631833D01*
X350881904Y-52127071D01*
X358082857Y-51231833D02*
X358082857Y-50965166D01*
X358501904Y-50965166D02*
X357701904Y-50965166D01*
X357701904Y-51346119D01*
X357701904Y-51574690D02*
X357701904Y-52108023D01*
X358501904Y-51765166D01*
X360622857Y-51231833D02*
X360622857Y-50965166D01*
X361041904Y-50965166D02*
X360241904Y-50965166D01*
X360241904Y-51346119D01*
X360241904Y-51993738D02*
X360241904Y-51841357D01*
X360280000Y-51765166D01*
X360318095Y-51727071D01*
X360432380Y-51650880D01*
X360584761Y-51612785D01*
X360889523Y-51612785D01*
X360965714Y-51650880D01*
X361003809Y-51688976D01*
X361041904Y-51765166D01*
X361041904Y-51917547D01*
X361003809Y-51993738D01*
X360965714Y-52031833D01*
X360889523Y-52069928D01*
X360699047Y-52069928D01*
X360622857Y-52031833D01*
X360584761Y-51993738D01*
X360546666Y-51917547D01*
X360546666Y-51765166D01*
X360584761Y-51688976D01*
X360622857Y-51650880D01*
X360699047Y-51612785D01*
X363162857Y-51231833D02*
X363162857Y-50965166D01*
X363581904Y-50965166D02*
X362781904Y-50965166D01*
X362781904Y-51346119D01*
X362781904Y-52031833D02*
X362781904Y-51650880D01*
X363162857Y-51612785D01*
X363124761Y-51650880D01*
X363086666Y-51727071D01*
X363086666Y-51917547D01*
X363124761Y-51993738D01*
X363162857Y-52031833D01*
X363239047Y-52069928D01*
X363429523Y-52069928D01*
X363505714Y-52031833D01*
X363543809Y-51993738D01*
X363581904Y-51917547D01*
X363581904Y-51727071D01*
X363543809Y-51650880D01*
X363505714Y-51612785D01*
X375862857Y-51174690D02*
X375900952Y-51288976D01*
X375939047Y-51327071D01*
X376015238Y-51365166D01*
X376129523Y-51365166D01*
X376205714Y-51327071D01*
X376243809Y-51288976D01*
X376281904Y-51212785D01*
X376281904Y-50908023D01*
X375481904Y-50908023D01*
X375481904Y-51174690D01*
X375520000Y-51250880D01*
X375558095Y-51288976D01*
X375634285Y-51327071D01*
X375710476Y-51327071D01*
X375786666Y-51288976D01*
X375824761Y-51250880D01*
X375862857Y-51174690D01*
X375862857Y-50908023D01*
X375481904Y-51860404D02*
X375481904Y-51936595D01*
X375520000Y-52012785D01*
X375558095Y-52050880D01*
X375634285Y-52088976D01*
X375786666Y-52127071D01*
X375977142Y-52127071D01*
X376129523Y-52088976D01*
X376205714Y-52050880D01*
X376243809Y-52012785D01*
X376281904Y-51936595D01*
X376281904Y-51860404D01*
X376243809Y-51784214D01*
X376205714Y-51746119D01*
X376129523Y-51708023D01*
X375977142Y-51669928D01*
X375786666Y-51669928D01*
X375634285Y-51708023D01*
X375558095Y-51746119D01*
X375520000Y-51784214D01*
X375481904Y-51860404D01*
X372980000Y-50888976D02*
X372941904Y-50812785D01*
X372941904Y-50698500D01*
X372980000Y-50584214D01*
X373056190Y-50508023D01*
X373132380Y-50469928D01*
X373284761Y-50431833D01*
X373399047Y-50431833D01*
X373551428Y-50469928D01*
X373627619Y-50508023D01*
X373703809Y-50584214D01*
X373741904Y-50698500D01*
X373741904Y-50774690D01*
X373703809Y-50888976D01*
X373665714Y-50927071D01*
X373399047Y-50927071D01*
X373399047Y-50774690D01*
X373741904Y-51269928D02*
X372941904Y-51269928D01*
X373741904Y-51727071D01*
X372941904Y-51727071D01*
X373741904Y-52108023D02*
X372941904Y-52108023D01*
X372941904Y-52298500D01*
X372980000Y-52412785D01*
X373056190Y-52488976D01*
X373132380Y-52527071D01*
X373284761Y-52565166D01*
X373399047Y-52565166D01*
X373551428Y-52527071D01*
X373627619Y-52488976D01*
X373703809Y-52412785D01*
X373741904Y-52298500D01*
X373741904Y-52108023D01*
X367861904Y-50431833D02*
X368661904Y-50698500D01*
X367861904Y-50965166D01*
X368585714Y-51688976D02*
X368623809Y-51650880D01*
X368661904Y-51536595D01*
X368661904Y-51460404D01*
X368623809Y-51346119D01*
X368547619Y-51269928D01*
X368471428Y-51231833D01*
X368319047Y-51193738D01*
X368204761Y-51193738D01*
X368052380Y-51231833D01*
X367976190Y-51269928D01*
X367900000Y-51346119D01*
X367861904Y-51460404D01*
X367861904Y-51536595D01*
X367900000Y-51650880D01*
X367938095Y-51688976D01*
X368585714Y-52488976D02*
X368623809Y-52450880D01*
X368661904Y-52336595D01*
X368661904Y-52260404D01*
X368623809Y-52146119D01*
X368547619Y-52069928D01*
X368471428Y-52031833D01*
X368319047Y-51993738D01*
X368204761Y-51993738D01*
X368052380Y-52031833D01*
X367976190Y-52069928D01*
X367900000Y-52146119D01*
X367861904Y-52260404D01*
X367861904Y-52336595D01*
X367900000Y-52450880D01*
X367938095Y-52488976D01*
X365702857Y-51231833D02*
X365702857Y-50965166D01*
X366121904Y-50965166D02*
X365321904Y-50965166D01*
X365321904Y-51346119D01*
X365588571Y-51993738D02*
X366121904Y-51993738D01*
X365283809Y-51803261D02*
X365855238Y-51612785D01*
X365855238Y-52108023D01*
X355542857Y-51174690D02*
X355580952Y-51288976D01*
X355619047Y-51327071D01*
X355695238Y-51365166D01*
X355809523Y-51365166D01*
X355885714Y-51327071D01*
X355923809Y-51288976D01*
X355961904Y-51212785D01*
X355961904Y-50908023D01*
X355161904Y-50908023D01*
X355161904Y-51174690D01*
X355200000Y-51250880D01*
X355238095Y-51288976D01*
X355314285Y-51327071D01*
X355390476Y-51327071D01*
X355466666Y-51288976D01*
X355504761Y-51250880D01*
X355542857Y-51174690D01*
X355542857Y-50908023D01*
X355961904Y-52127071D02*
X355961904Y-51669928D01*
X355961904Y-51898500D02*
X355161904Y-51898500D01*
X355276190Y-51822309D01*
X355352380Y-51746119D01*
X355390476Y-51669928D01*
X353002857Y-51174690D02*
X353040952Y-51288976D01*
X353079047Y-51327071D01*
X353155238Y-51365166D01*
X353269523Y-51365166D01*
X353345714Y-51327071D01*
X353383809Y-51288976D01*
X353421904Y-51212785D01*
X353421904Y-50908023D01*
X352621904Y-50908023D01*
X352621904Y-51174690D01*
X352660000Y-51250880D01*
X352698095Y-51288976D01*
X352774285Y-51327071D01*
X352850476Y-51327071D01*
X352926666Y-51288976D01*
X352964761Y-51250880D01*
X353002857Y-51174690D01*
X353002857Y-50908023D01*
X352621904Y-51631833D02*
X352621904Y-52127071D01*
X352926666Y-51860404D01*
X352926666Y-51974690D01*
X352964761Y-52050880D01*
X353002857Y-52088976D01*
X353079047Y-52127071D01*
X353269523Y-52127071D01*
X353345714Y-52088976D01*
X353383809Y-52050880D01*
X353421904Y-51974690D01*
X353421904Y-51746119D01*
X353383809Y-51669928D01*
X353345714Y-51631833D01*
X349414991Y-39401797D02*
X349367851Y-39496078D01*
X349367851Y-39543219D01*
X349391421Y-39613929D01*
X349462132Y-39684640D01*
X349532842Y-39708210D01*
X349579983Y-39708210D01*
X349650693Y-39684640D01*
X349839255Y-39496078D01*
X349344280Y-39001103D01*
X349179289Y-39166095D01*
X349155719Y-39236806D01*
X349155719Y-39283946D01*
X349179289Y-39354657D01*
X349226429Y-39401797D01*
X349297140Y-39425367D01*
X349344280Y-39425367D01*
X349414991Y-39401797D01*
X349579983Y-39236806D01*
X348613603Y-39731780D02*
X348849306Y-39496078D01*
X349108578Y-39708210D01*
X349061438Y-39708210D01*
X348990727Y-39731780D01*
X348872876Y-39849632D01*
X348849306Y-39920342D01*
X348849306Y-39967483D01*
X348872876Y-40038193D01*
X348990727Y-40156044D01*
X349061438Y-40179615D01*
X349108578Y-40179615D01*
X349179289Y-40156044D01*
X349297140Y-40038193D01*
X349320710Y-39967483D01*
X349320710Y-39920342D01*
X350462857Y-40252690D02*
X350500952Y-40366976D01*
X350539047Y-40405071D01*
X350615238Y-40443166D01*
X350729523Y-40443166D01*
X350805714Y-40405071D01*
X350843809Y-40366976D01*
X350881904Y-40290785D01*
X350881904Y-39986023D01*
X350081904Y-39986023D01*
X350081904Y-40252690D01*
X350120000Y-40328880D01*
X350158095Y-40366976D01*
X350234285Y-40405071D01*
X350310476Y-40405071D01*
X350386666Y-40366976D01*
X350424761Y-40328880D01*
X350462857Y-40252690D01*
X350462857Y-39986023D01*
X350348571Y-41128880D02*
X350881904Y-41128880D01*
X350043809Y-40938404D02*
X350615238Y-40747928D01*
X350615238Y-41243166D01*
X353002857Y-40024119D02*
X353002857Y-40290785D01*
X353421904Y-40405071D02*
X353421904Y-40024119D01*
X352621904Y-40024119D01*
X352621904Y-40405071D01*
X352621904Y-41090785D02*
X352621904Y-40938404D01*
X352660000Y-40862214D01*
X352698095Y-40824119D01*
X352812380Y-40747928D01*
X352964761Y-40709833D01*
X353269523Y-40709833D01*
X353345714Y-40747928D01*
X353383809Y-40786023D01*
X353421904Y-40862214D01*
X353421904Y-41014595D01*
X353383809Y-41090785D01*
X353345714Y-41128880D01*
X353269523Y-41166976D01*
X353079047Y-41166976D01*
X353002857Y-41128880D01*
X352964761Y-41090785D01*
X352926666Y-41014595D01*
X352926666Y-40862214D01*
X352964761Y-40786023D01*
X353002857Y-40747928D01*
X353079047Y-40709833D01*
X355961904Y-39986023D02*
X355161904Y-39986023D01*
X355161904Y-40176500D01*
X355200000Y-40290785D01*
X355276190Y-40366976D01*
X355352380Y-40405071D01*
X355504761Y-40443166D01*
X355619047Y-40443166D01*
X355771428Y-40405071D01*
X355847619Y-40366976D01*
X355923809Y-40290785D01*
X355961904Y-40176500D01*
X355961904Y-39986023D01*
X355161904Y-40709833D02*
X355161904Y-41243166D01*
X355961904Y-40900309D01*
X358425714Y-40443166D02*
X358463809Y-40405071D01*
X358501904Y-40290785D01*
X358501904Y-40214595D01*
X358463809Y-40100309D01*
X358387619Y-40024119D01*
X358311428Y-39986023D01*
X358159047Y-39947928D01*
X358044761Y-39947928D01*
X357892380Y-39986023D01*
X357816190Y-40024119D01*
X357740000Y-40100309D01*
X357701904Y-40214595D01*
X357701904Y-40290785D01*
X357740000Y-40405071D01*
X357778095Y-40443166D01*
X357701904Y-41128880D02*
X357701904Y-40976500D01*
X357740000Y-40900309D01*
X357778095Y-40862214D01*
X357892380Y-40786023D01*
X358044761Y-40747928D01*
X358349523Y-40747928D01*
X358425714Y-40786023D01*
X358463809Y-40824119D01*
X358501904Y-40900309D01*
X358501904Y-41052690D01*
X358463809Y-41128880D01*
X358425714Y-41166976D01*
X358349523Y-41205071D01*
X358159047Y-41205071D01*
X358082857Y-41166976D01*
X358044761Y-41128880D01*
X358006666Y-41052690D01*
X358006666Y-40900309D01*
X358044761Y-40824119D01*
X358082857Y-40786023D01*
X358159047Y-40747928D01*
X361041904Y-39986023D02*
X360241904Y-39986023D01*
X360241904Y-40176500D01*
X360280000Y-40290785D01*
X360356190Y-40366976D01*
X360432380Y-40405071D01*
X360584761Y-40443166D01*
X360699047Y-40443166D01*
X360851428Y-40405071D01*
X360927619Y-40366976D01*
X361003809Y-40290785D01*
X361041904Y-40176500D01*
X361041904Y-39986023D01*
X360508571Y-41128880D02*
X361041904Y-41128880D01*
X360203809Y-40938404D02*
X360775238Y-40747928D01*
X360775238Y-41243166D01*
X370440000Y-39966976D02*
X370401904Y-39890785D01*
X370401904Y-39776500D01*
X370440000Y-39662214D01*
X370516190Y-39586023D01*
X370592380Y-39547928D01*
X370744761Y-39509833D01*
X370859047Y-39509833D01*
X371011428Y-39547928D01*
X371087619Y-39586023D01*
X371163809Y-39662214D01*
X371201904Y-39776500D01*
X371201904Y-39852690D01*
X371163809Y-39966976D01*
X371125714Y-40005071D01*
X370859047Y-40005071D01*
X370859047Y-39852690D01*
X371201904Y-40347928D02*
X370401904Y-40347928D01*
X371201904Y-40805071D01*
X370401904Y-40805071D01*
X371201904Y-41186023D02*
X370401904Y-41186023D01*
X370401904Y-41376500D01*
X370440000Y-41490785D01*
X370516190Y-41566976D01*
X370592380Y-41605071D01*
X370744761Y-41643166D01*
X370859047Y-41643166D01*
X371011428Y-41605071D01*
X371087619Y-41566976D01*
X371163809Y-41490785D01*
X371201904Y-41376500D01*
X371201904Y-41186023D01*
X367900000Y-39966976D02*
X367861904Y-39890785D01*
X367861904Y-39776500D01*
X367900000Y-39662214D01*
X367976190Y-39586023D01*
X368052380Y-39547928D01*
X368204761Y-39509833D01*
X368319047Y-39509833D01*
X368471428Y-39547928D01*
X368547619Y-39586023D01*
X368623809Y-39662214D01*
X368661904Y-39776500D01*
X368661904Y-39852690D01*
X368623809Y-39966976D01*
X368585714Y-40005071D01*
X368319047Y-40005071D01*
X368319047Y-39852690D01*
X368661904Y-40347928D02*
X367861904Y-40347928D01*
X368661904Y-40805071D01*
X367861904Y-40805071D01*
X368661904Y-41186023D02*
X367861904Y-41186023D01*
X367861904Y-41376500D01*
X367900000Y-41490785D01*
X367976190Y-41566976D01*
X368052380Y-41605071D01*
X368204761Y-41643166D01*
X368319047Y-41643166D01*
X368471428Y-41605071D01*
X368547619Y-41566976D01*
X368623809Y-41490785D01*
X368661904Y-41376500D01*
X368661904Y-41186023D01*
X366121904Y-39986023D02*
X365321904Y-39986023D01*
X365321904Y-40176500D01*
X365360000Y-40290785D01*
X365436190Y-40366976D01*
X365512380Y-40405071D01*
X365664761Y-40443166D01*
X365779047Y-40443166D01*
X365931428Y-40405071D01*
X366007619Y-40366976D01*
X366083809Y-40290785D01*
X366121904Y-40176500D01*
X366121904Y-39986023D01*
X366121904Y-41205071D02*
X366121904Y-40747928D01*
X366121904Y-40976500D02*
X365321904Y-40976500D01*
X365436190Y-40900309D01*
X365512380Y-40824119D01*
X365550476Y-40747928D01*
X363581904Y-39986023D02*
X362781904Y-39986023D01*
X362781904Y-40176500D01*
X362820000Y-40290785D01*
X362896190Y-40366976D01*
X362972380Y-40405071D01*
X363124761Y-40443166D01*
X363239047Y-40443166D01*
X363391428Y-40405071D01*
X363467619Y-40366976D01*
X363543809Y-40290785D01*
X363581904Y-40176500D01*
X363581904Y-39986023D01*
X362781904Y-40938404D02*
X362781904Y-41014595D01*
X362820000Y-41090785D01*
X362858095Y-41128880D01*
X362934285Y-41166976D01*
X363086666Y-41205071D01*
X363277142Y-41205071D01*
X363429523Y-41166976D01*
X363505714Y-41128880D01*
X363543809Y-41090785D01*
X363581904Y-41014595D01*
X363581904Y-40938404D01*
X363543809Y-40862214D01*
X363505714Y-40824119D01*
X363429523Y-40786023D01*
X363277142Y-40747928D01*
X363086666Y-40747928D01*
X362934285Y-40786023D01*
X362858095Y-40824119D01*
X362820000Y-40862214D01*
X362781904Y-40938404D01*
X373741904Y-39986023D02*
X372941904Y-39986023D01*
X372941904Y-40176500D01*
X372980000Y-40290785D01*
X373056190Y-40366976D01*
X373132380Y-40405071D01*
X373284761Y-40443166D01*
X373399047Y-40443166D01*
X373551428Y-40405071D01*
X373627619Y-40366976D01*
X373703809Y-40290785D01*
X373741904Y-40176500D01*
X373741904Y-39986023D01*
X373018095Y-40747928D02*
X372980000Y-40786023D01*
X372941904Y-40862214D01*
X372941904Y-41052690D01*
X372980000Y-41128880D01*
X373018095Y-41166976D01*
X373094285Y-41205071D01*
X373170476Y-41205071D01*
X373284761Y-41166976D01*
X373741904Y-40709833D01*
X373741904Y-41205071D01*
M02*
