G04 #@! TF.GenerationSoftware,KiCad,Pcbnew,(5.1.5)-3*
G04 #@! TF.CreationDate,2020-04-30T16:40:07-04:00*
G04 #@! TF.ProjectId,MiniVan,4d696e69-5661-46e2-9e6b-696361645f70,rev?*
G04 #@! TF.SameCoordinates,Original*
G04 #@! TF.FileFunction,Copper,L1,Top*
G04 #@! TF.FilePolarity,Positive*
%FSLAX46Y46*%
G04 Gerber Fmt 4.6, Leading zero omitted, Abs format (unit mm)*
G04 Created by KiCad (PCBNEW (5.1.5)-3) date 2020-04-30 16:40:07*
%MOMM*%
%LPD*%
G04 APERTURE LIST*
%ADD10C,2.250000*%
%ADD11C,2.250000*%
%ADD12C,1.600000*%
%ADD13C,0.100000*%
%ADD14R,3.250000X2.000000*%
%ADD15R,2.000000X3.250000*%
%ADD16C,1.752600*%
%ADD17R,1.752600X1.752600*%
%ADD18C,0.800000*%
%ADD19C,0.250000*%
G04 APERTURE END LIST*
D10*
X128706250Y-68525000D02*
X128746250Y-67945000D01*
D11*
X128746250Y-67945000D03*
D10*
X122396250Y-70485000D02*
X123706252Y-69025000D01*
D11*
X123706250Y-69025000D03*
D12*
X197956577Y-33650327D02*
X197956577Y-33650327D01*
G04 #@! TA.AperFunction,ComponentPad*
D13*
G36*
X194131129Y-30956250D02*
G01*
X195262500Y-29824879D01*
X196393871Y-30956250D01*
X195262500Y-32087621D01*
X194131129Y-30956250D01*
G37*
G04 #@! TD.AperFunction*
D12*
X186050327Y-33650327D02*
X186050327Y-33650327D01*
G04 #@! TA.AperFunction,ComponentPad*
D13*
G36*
X182224879Y-30956250D02*
G01*
X183356250Y-29824879D01*
X184487621Y-30956250D01*
X183356250Y-32087621D01*
X182224879Y-30956250D01*
G37*
G04 #@! TD.AperFunction*
D12*
X221769077Y-33650327D02*
X221769077Y-33650327D01*
G04 #@! TA.AperFunction,ComponentPad*
D13*
G36*
X217943629Y-30956250D02*
G01*
X219075000Y-29824879D01*
X220206371Y-30956250D01*
X219075000Y-32087621D01*
X217943629Y-30956250D01*
G37*
G04 #@! TD.AperFunction*
D12*
X209862827Y-33650327D02*
X209862827Y-33650327D01*
G04 #@! TA.AperFunction,ComponentPad*
D13*
G36*
X206037379Y-30956250D02*
G01*
X207168750Y-29824879D01*
X208300121Y-30956250D01*
X207168750Y-32087621D01*
X206037379Y-30956250D01*
G37*
G04 #@! TD.AperFunction*
D12*
X138425327Y-33650327D02*
X138425327Y-33650327D01*
G04 #@! TA.AperFunction,ComponentPad*
D13*
G36*
X134599879Y-30956250D02*
G01*
X135731250Y-29824879D01*
X136862621Y-30956250D01*
X135731250Y-32087621D01*
X134599879Y-30956250D01*
G37*
G04 #@! TD.AperFunction*
D12*
X90800327Y-33650327D02*
X90800327Y-33650327D01*
G04 #@! TA.AperFunction,ComponentPad*
D13*
G36*
X86974879Y-30956250D02*
G01*
X88106250Y-29824879D01*
X89237621Y-30956250D01*
X88106250Y-32087621D01*
X86974879Y-30956250D01*
G37*
G04 #@! TD.AperFunction*
D12*
X66987827Y-33650327D02*
X66987827Y-33650327D01*
G04 #@! TA.AperFunction,ComponentPad*
D13*
G36*
X63162379Y-30956250D02*
G01*
X64293750Y-29824879D01*
X65425121Y-30956250D01*
X64293750Y-32087621D01*
X63162379Y-30956250D01*
G37*
G04 #@! TD.AperFunction*
D12*
X78894077Y-33650327D02*
X78894077Y-33650327D01*
G04 #@! TA.AperFunction,ComponentPad*
D13*
G36*
X75068629Y-30956250D02*
G01*
X76200000Y-29824879D01*
X77331371Y-30956250D01*
X76200000Y-32087621D01*
X75068629Y-30956250D01*
G37*
G04 #@! TD.AperFunction*
D10*
X87193750Y-10056250D02*
X87153750Y-10636250D01*
D11*
X87153750Y-10636250D03*
D10*
X93503750Y-8096250D02*
X92193748Y-9556250D01*
D11*
X92193750Y-9556250D03*
X-35837500Y-126175000D03*
D10*
X-37147500Y-127635000D02*
X-35837498Y-126175000D01*
D11*
X-30797500Y-125095000D03*
D10*
X-30837500Y-125675000D02*
X-30797500Y-125095000D01*
X271581250Y-125675000D02*
X271621250Y-125095000D01*
D11*
X271621250Y-125095000D03*
D10*
X265271250Y-127635000D02*
X266581252Y-126175000D01*
D11*
X266581250Y-126175000D03*
D10*
X355718750Y-68525000D02*
X355758750Y-67945000D01*
D11*
X355758750Y-67945000D03*
D10*
X349408750Y-70485000D02*
X350718752Y-69025000D01*
D11*
X350718750Y-69025000D03*
D14*
X346075000Y-11430000D03*
X346075000Y-8890000D03*
X346075000Y-6350000D03*
X346075000Y-3810000D03*
X346075000Y-1270000D03*
D15*
X375920000Y-15748000D03*
X373380000Y-15748000D03*
X370840000Y-15748000D03*
X368300000Y-15748000D03*
X365760000Y-15748000D03*
X363220000Y-15748000D03*
X360680000Y-15748000D03*
X358140000Y-15748000D03*
X355600000Y-15748000D03*
X353060000Y-15748000D03*
X350520000Y-15748000D03*
X347980000Y-15748000D03*
X347980000Y3048000D03*
X350520000Y3048000D03*
X353060000Y3048000D03*
X355600000Y3048000D03*
X358140000Y3048000D03*
X360680000Y3048000D03*
X363220000Y3048000D03*
X365760000Y3048000D03*
X368300000Y3048000D03*
X370840000Y3048000D03*
X373380000Y3048000D03*
X375920000Y3048000D03*
D16*
X347980000Y-1270000D03*
X347980000Y-3810000D03*
X347980000Y-6350000D03*
X347980000Y-8890000D03*
X347980000Y-11430000D03*
X375920000Y-13970000D03*
X347980000Y1041400D03*
X373380000Y-13970000D03*
X370840000Y-13970000D03*
X368300000Y-13970000D03*
X365760000Y-13970000D03*
X363220000Y-13970000D03*
X360680000Y-13970000D03*
X358140000Y-13970000D03*
X355600000Y-13970000D03*
X353060000Y-13970000D03*
X350520000Y-13970000D03*
X347980000Y-13970000D03*
X350520000Y1270000D03*
X353060000Y1270000D03*
X355600000Y1270000D03*
X358140000Y1270000D03*
X360680000Y1270000D03*
X363220000Y1270000D03*
X365760000Y1270000D03*
X368300000Y1270000D03*
X370840000Y1270000D03*
X373380000Y1270000D03*
D17*
X375920000Y1270000D03*
D14*
X-19843750Y-37782500D03*
X-19843750Y-40322500D03*
X-19843750Y-42862500D03*
X-19843750Y-45402500D03*
X-19843750Y-47942500D03*
D15*
X-49688750Y-33464500D03*
X-47148750Y-33464500D03*
X-44608750Y-33464500D03*
X-42068750Y-33464500D03*
X-39528750Y-33464500D03*
X-36988750Y-33464500D03*
X-34448750Y-33464500D03*
X-31908750Y-33464500D03*
X-29368750Y-33464500D03*
X-26828750Y-33464500D03*
X-24288750Y-33464500D03*
X-21748750Y-33464500D03*
X-21748750Y-52260500D03*
X-24288750Y-52260500D03*
X-26828750Y-52260500D03*
X-29368750Y-52260500D03*
X-31908750Y-52260500D03*
X-34448750Y-52260500D03*
X-36988750Y-52260500D03*
X-39528750Y-52260500D03*
X-42068750Y-52260500D03*
X-44608750Y-52260500D03*
X-47148750Y-52260500D03*
X-49688750Y-52260500D03*
D16*
X-21748750Y-47942500D03*
X-21748750Y-45402500D03*
X-21748750Y-42862500D03*
X-21748750Y-40322500D03*
X-21748750Y-37782500D03*
X-49688750Y-35242500D03*
X-21748750Y-50253900D03*
X-47148750Y-35242500D03*
X-44608750Y-35242500D03*
X-42068750Y-35242500D03*
X-39528750Y-35242500D03*
X-36988750Y-35242500D03*
X-34448750Y-35242500D03*
X-31908750Y-35242500D03*
X-29368750Y-35242500D03*
X-26828750Y-35242500D03*
X-24288750Y-35242500D03*
X-21748750Y-35242500D03*
X-24288750Y-50482500D03*
X-26828750Y-50482500D03*
X-29368750Y-50482500D03*
X-31908750Y-50482500D03*
X-34448750Y-50482500D03*
X-36988750Y-50482500D03*
X-39528750Y-50482500D03*
X-42068750Y-50482500D03*
X-44608750Y-50482500D03*
X-47148750Y-50482500D03*
D17*
X-49688750Y-50482500D03*
X375920000Y-38417500D03*
D16*
X373380000Y-38417500D03*
X370840000Y-38417500D03*
X368300000Y-38417500D03*
X365760000Y-38417500D03*
X363220000Y-38417500D03*
X360680000Y-38417500D03*
X358140000Y-38417500D03*
X355600000Y-38417500D03*
X353060000Y-38417500D03*
X350520000Y-38417500D03*
X347980000Y-53657500D03*
X350520000Y-53657500D03*
X353060000Y-53657500D03*
X355600000Y-53657500D03*
X358140000Y-53657500D03*
X360680000Y-53657500D03*
X363220000Y-53657500D03*
X365760000Y-53657500D03*
X368300000Y-53657500D03*
X370840000Y-53657500D03*
X373380000Y-53657500D03*
X347980000Y-38646100D03*
X375920000Y-53657500D03*
X347980000Y-51117500D03*
X347980000Y-48577500D03*
X347980000Y-46037500D03*
X347980000Y-43497500D03*
X347980000Y-40957500D03*
D15*
X375920000Y-36639500D03*
X373380000Y-36639500D03*
X370840000Y-36639500D03*
X368300000Y-36639500D03*
X365760000Y-36639500D03*
X363220000Y-36639500D03*
X360680000Y-36639500D03*
X358140000Y-36639500D03*
X355600000Y-36639500D03*
X353060000Y-36639500D03*
X350520000Y-36639500D03*
X347980000Y-36639500D03*
X347980000Y-55435500D03*
X350520000Y-55435500D03*
X353060000Y-55435500D03*
X355600000Y-55435500D03*
X358140000Y-55435500D03*
X360680000Y-55435500D03*
X363220000Y-55435500D03*
X365760000Y-55435500D03*
X368300000Y-55435500D03*
X370840000Y-55435500D03*
X373380000Y-55435500D03*
X375920000Y-55435500D03*
D14*
X346075000Y-40957500D03*
X346075000Y-43497500D03*
X346075000Y-46037500D03*
X346075000Y-48577500D03*
X346075000Y-51117500D03*
D10*
X290631250Y-1056250D02*
X290671250Y-476250D01*
D11*
X290671250Y-476250D03*
D10*
X284321250Y-3016250D02*
X285631252Y-1556250D01*
D11*
X285631250Y-1556250D03*
D10*
X130293750Y-1056250D02*
X130333750Y-476250D01*
D11*
X130333750Y-476250D03*
D10*
X123983750Y-3016250D02*
X125293752Y-1556250D01*
D11*
X125293750Y-1556250D03*
D10*
X271581250Y-1056250D02*
X271621250Y-476250D01*
D11*
X271621250Y-476250D03*
D10*
X265271250Y-3016250D02*
X266581252Y-1556250D01*
D11*
X266581250Y-1556250D03*
D10*
X252531250Y-1056250D02*
X252571250Y-476250D01*
D11*
X252571250Y-476250D03*
D10*
X246221250Y-3016250D02*
X247531252Y-1556250D01*
D11*
X247531250Y-1556250D03*
D10*
X196968750Y-1056250D02*
X197008750Y-476250D01*
D11*
X197008750Y-476250D03*
D10*
X190658750Y-3016250D02*
X191968752Y-1556250D01*
D11*
X191968750Y-1556250D03*
D10*
X216018750Y-1056250D02*
X216058750Y-476250D01*
D11*
X216058750Y-476250D03*
D10*
X209708750Y-3016250D02*
X211018752Y-1556250D01*
D11*
X211018750Y-1556250D03*
D10*
X177918750Y-1056250D02*
X177958750Y-476250D01*
D11*
X177958750Y-476250D03*
D10*
X171608750Y-3016250D02*
X172918752Y-1556250D01*
D11*
X172918750Y-1556250D03*
D10*
X158868750Y-1056250D02*
X158908750Y-476250D01*
D11*
X158908750Y-476250D03*
D10*
X152558750Y-3016250D02*
X153868752Y-1556250D01*
D11*
X153868750Y-1556250D03*
D10*
X106243750Y-10056250D02*
X106203750Y-10636250D01*
D11*
X106203750Y-10636250D03*
D10*
X112553750Y-8096250D02*
X111243748Y-9556250D01*
D11*
X111243750Y-9556250D03*
D10*
X68143750Y-10056250D02*
X68103750Y-10636250D01*
D11*
X68103750Y-10636250D03*
D10*
X74453750Y-8096250D02*
X73143748Y-9556250D01*
D11*
X73143750Y-9556250D03*
D10*
X-47743750Y-10056250D02*
X-47783750Y-10636250D01*
D11*
X-47783750Y-10636250D03*
D10*
X-41433750Y-8096250D02*
X-42743752Y-9556250D01*
D11*
X-42743750Y-9556250D03*
D10*
X20518750Y-10056250D02*
X20478750Y-10636250D01*
D11*
X20478750Y-10636250D03*
D10*
X26828750Y-8096250D02*
X25518748Y-9556250D01*
D11*
X25518750Y-9556250D03*
D10*
X39568750Y-10056250D02*
X39528750Y-10636250D01*
D11*
X39528750Y-10636250D03*
D10*
X45878750Y-8096250D02*
X44568748Y-9556250D01*
D11*
X44568750Y-9556250D03*
D10*
X-17581250Y-10056250D02*
X-17621250Y-10636250D01*
D11*
X-17621250Y-10636250D03*
D10*
X-11271250Y-8096250D02*
X-12581252Y-9556250D01*
D11*
X-12581250Y-9556250D03*
D10*
X1468750Y-10056250D02*
X1428750Y-10636250D01*
D11*
X1428750Y-10636250D03*
D10*
X7778750Y-8096250D02*
X6468748Y-9556250D01*
D11*
X6468750Y-9556250D03*
D12*
X337824673Y-480923D02*
X337824673Y-480923D01*
G04 #@! TA.AperFunction,ComponentPad*
D13*
G36*
X341650121Y-3175000D02*
G01*
X340518750Y-4306371D01*
X339387379Y-3175000D01*
X340518750Y-2043629D01*
X341650121Y-3175000D01*
G37*
G04 #@! TD.AperFunction*
D12*
X314012173Y-480923D02*
X314012173Y-480923D01*
G04 #@! TA.AperFunction,ComponentPad*
D13*
G36*
X317837621Y-3175000D02*
G01*
X316706250Y-4306371D01*
X315574879Y-3175000D01*
X316706250Y-2043629D01*
X317837621Y-3175000D01*
G37*
G04 #@! TD.AperFunction*
D12*
X310043423Y-480923D02*
X310043423Y-480923D01*
G04 #@! TA.AperFunction,ComponentPad*
D13*
G36*
X313868871Y-3175000D02*
G01*
X312737500Y-4306371D01*
X311606129Y-3175000D01*
X312737500Y-2043629D01*
X313868871Y-3175000D01*
G37*
G04 #@! TD.AperFunction*
D12*
X317980923Y-480923D02*
X317980923Y-480923D01*
G04 #@! TA.AperFunction,ComponentPad*
D13*
G36*
X321806371Y-3175000D02*
G01*
X320675000Y-4306371D01*
X319543629Y-3175000D01*
X320675000Y-2043629D01*
X321806371Y-3175000D01*
G37*
G04 #@! TD.AperFunction*
D12*
X325918423Y-480923D02*
X325918423Y-480923D01*
G04 #@! TA.AperFunction,ComponentPad*
D13*
G36*
X329743871Y-3175000D02*
G01*
X328612500Y-4306371D01*
X327481129Y-3175000D01*
X328612500Y-2043629D01*
X329743871Y-3175000D01*
G37*
G04 #@! TD.AperFunction*
D12*
X321949673Y-480923D02*
X321949673Y-480923D01*
G04 #@! TA.AperFunction,ComponentPad*
D13*
G36*
X325775121Y-3175000D02*
G01*
X324643750Y-4306371D01*
X323512379Y-3175000D01*
X324643750Y-2043629D01*
X325775121Y-3175000D01*
G37*
G04 #@! TD.AperFunction*
D12*
X329887173Y-480923D02*
X329887173Y-480923D01*
G04 #@! TA.AperFunction,ComponentPad*
D13*
G36*
X333712621Y-3175000D02*
G01*
X332581250Y-4306371D01*
X331449879Y-3175000D01*
X332581250Y-2043629D01*
X333712621Y-3175000D01*
G37*
G04 #@! TD.AperFunction*
D12*
X333855923Y-480923D02*
X333855923Y-480923D01*
G04 #@! TA.AperFunction,ComponentPad*
D13*
G36*
X337681371Y-3175000D02*
G01*
X336550000Y-4306371D01*
X335418629Y-3175000D01*
X336550000Y-2043629D01*
X337681371Y-3175000D01*
G37*
G04 #@! TD.AperFunction*
D12*
X313050327Y-11425327D02*
X313050327Y-11425327D01*
G04 #@! TA.AperFunction,ComponentPad*
D13*
G36*
X309224879Y-8731250D02*
G01*
X310356250Y-7599879D01*
X311487621Y-8731250D01*
X310356250Y-9862621D01*
X309224879Y-8731250D01*
G37*
G04 #@! TD.AperFunction*
D12*
X320987827Y-11425327D02*
X320987827Y-11425327D01*
G04 #@! TA.AperFunction,ComponentPad*
D13*
G36*
X317162379Y-8731250D02*
G01*
X318293750Y-7599879D01*
X319425121Y-8731250D01*
X318293750Y-9862621D01*
X317162379Y-8731250D01*
G37*
G04 #@! TD.AperFunction*
D12*
X317019077Y-11425327D02*
X317019077Y-11425327D01*
G04 #@! TA.AperFunction,ComponentPad*
D13*
G36*
X313193629Y-8731250D02*
G01*
X314325000Y-7599879D01*
X315456371Y-8731250D01*
X314325000Y-9862621D01*
X313193629Y-8731250D01*
G37*
G04 #@! TD.AperFunction*
D12*
X341625327Y-11425327D02*
X341625327Y-11425327D01*
G04 #@! TA.AperFunction,ComponentPad*
D13*
G36*
X337799879Y-8731250D02*
G01*
X338931250Y-7599879D01*
X340062621Y-8731250D01*
X338931250Y-9862621D01*
X337799879Y-8731250D01*
G37*
G04 #@! TD.AperFunction*
D12*
X328925327Y-11425327D02*
X328925327Y-11425327D01*
G04 #@! TA.AperFunction,ComponentPad*
D13*
G36*
X325099879Y-8731250D02*
G01*
X326231250Y-7599879D01*
X327362621Y-8731250D01*
X326231250Y-9862621D01*
X325099879Y-8731250D01*
G37*
G04 #@! TD.AperFunction*
D12*
X324956577Y-11425327D02*
X324956577Y-11425327D01*
G04 #@! TA.AperFunction,ComponentPad*
D13*
G36*
X321131129Y-8731250D02*
G01*
X322262500Y-7599879D01*
X323393871Y-8731250D01*
X322262500Y-9862621D01*
X321131129Y-8731250D01*
G37*
G04 #@! TD.AperFunction*
D12*
X336862827Y-11425327D02*
X336862827Y-11425327D01*
G04 #@! TA.AperFunction,ComponentPad*
D13*
G36*
X333037379Y-8731250D02*
G01*
X334168750Y-7599879D01*
X335300121Y-8731250D01*
X334168750Y-9862621D01*
X333037379Y-8731250D01*
G37*
G04 #@! TD.AperFunction*
D12*
X332894077Y-11425327D02*
X332894077Y-11425327D01*
G04 #@! TA.AperFunction,ComponentPad*
D13*
G36*
X329068629Y-8731250D02*
G01*
X330200000Y-7599879D01*
X331331371Y-8731250D01*
X330200000Y-9862621D01*
X329068629Y-8731250D01*
G37*
G04 #@! TD.AperFunction*
D10*
X78700000Y-144725000D02*
X78740000Y-144145000D01*
D11*
X78740000Y-144145000D03*
D10*
X72390000Y-146685000D02*
X73700002Y-145225000D01*
D11*
X73700000Y-145225000D03*
D10*
X367768750Y-137200000D02*
X367188750Y-137160000D01*
D11*
X367188750Y-137160000D03*
D10*
X369728750Y-143510000D02*
X368268750Y-142199998D01*
D11*
X368268750Y-142200000D03*
D10*
X367768750Y-99100000D02*
X367188750Y-99060000D01*
D11*
X367188750Y-99060000D03*
D10*
X369728750Y-105410000D02*
X368268750Y-104099998D01*
D11*
X368268750Y-104100000D03*
D10*
X367768750Y-70525000D02*
X367188750Y-70485000D01*
D11*
X367188750Y-70485000D03*
D10*
X369728750Y-76835000D02*
X368268750Y-75524998D01*
D11*
X368268750Y-75525000D03*
D10*
X355718750Y-144725000D02*
X355758750Y-144145000D01*
D11*
X355758750Y-144145000D03*
D10*
X349408750Y-146685000D02*
X350718752Y-145225000D01*
D11*
X350718750Y-145225000D03*
D10*
X355718750Y-125675000D02*
X355758750Y-125095000D01*
D11*
X355758750Y-125095000D03*
D10*
X349408750Y-127635000D02*
X350718752Y-126175000D01*
D11*
X350718750Y-126175000D03*
D10*
X355718750Y-106625000D02*
X355758750Y-106045000D01*
D11*
X355758750Y-106045000D03*
D10*
X349408750Y-108585000D02*
X350718752Y-107125000D01*
D11*
X350718750Y-107125000D03*
D10*
X355718750Y-87575000D02*
X355758750Y-86995000D01*
D11*
X355758750Y-86995000D03*
D10*
X349408750Y-89535000D02*
X350718752Y-88075000D01*
D11*
X350718750Y-88075000D03*
D10*
X336668750Y-125675000D02*
X336708750Y-125095000D01*
D11*
X336708750Y-125095000D03*
D10*
X330358750Y-127635000D02*
X331668752Y-126175000D01*
D11*
X331668750Y-126175000D03*
D10*
X336668750Y-106625000D02*
X336708750Y-106045000D01*
D11*
X336708750Y-106045000D03*
D10*
X330358750Y-108585000D02*
X331668752Y-107125000D01*
D11*
X331668750Y-107125000D03*
D10*
X336668750Y-87575000D02*
X336708750Y-86995000D01*
D11*
X336708750Y-86995000D03*
D10*
X330358750Y-89535000D02*
X331668752Y-88075000D01*
D11*
X331668750Y-88075000D03*
D10*
X336668750Y-68525000D02*
X336708750Y-67945000D01*
D11*
X336708750Y-67945000D03*
D10*
X330358750Y-70485000D02*
X331668752Y-69025000D01*
D11*
X331668750Y-69025000D03*
D10*
X327143750Y-144725000D02*
X327183750Y-144145000D01*
D11*
X327183750Y-144145000D03*
D10*
X320833750Y-146685000D02*
X322143752Y-145225000D01*
D11*
X322143750Y-145225000D03*
D10*
X317618750Y-125675000D02*
X317658750Y-125095000D01*
D11*
X317658750Y-125095000D03*
D10*
X311308750Y-127635000D02*
X312618752Y-126175000D01*
D11*
X312618750Y-126175000D03*
D10*
X317618750Y-106625000D02*
X317658750Y-106045000D01*
D11*
X317658750Y-106045000D03*
D10*
X311308750Y-108585000D02*
X312618752Y-107125000D01*
D11*
X312618750Y-107125000D03*
D10*
X317618750Y-87575000D02*
X317658750Y-86995000D01*
D11*
X317658750Y-86995000D03*
D10*
X311308750Y-89535000D02*
X312618752Y-88075000D01*
D11*
X312618750Y-88075000D03*
D10*
X317618750Y-68525000D02*
X317658750Y-67945000D01*
D11*
X317658750Y-67945000D03*
D10*
X311308750Y-70485000D02*
X312618752Y-69025000D01*
D11*
X312618750Y-69025000D03*
D10*
X290631250Y-144725000D02*
X290671250Y-144145000D01*
D11*
X290671250Y-144145000D03*
D10*
X284321250Y-146685000D02*
X285631252Y-145225000D01*
D11*
X285631250Y-145225000D03*
D10*
X290631250Y-87575000D02*
X290671250Y-86995000D01*
D11*
X290671250Y-86995000D03*
D10*
X284321250Y-89535000D02*
X285631252Y-88075000D01*
D11*
X285631250Y-88075000D03*
D10*
X290631250Y-68525000D02*
X290671250Y-67945000D01*
D11*
X290671250Y-67945000D03*
D10*
X284321250Y-70485000D02*
X285631252Y-69025000D01*
D11*
X285631250Y-69025000D03*
D10*
X271581250Y-144725000D02*
X271621250Y-144145000D01*
D11*
X271621250Y-144145000D03*
D10*
X265271250Y-146685000D02*
X266581252Y-145225000D01*
D11*
X266581250Y-145225000D03*
D10*
X271581250Y-87575000D02*
X271621250Y-86995000D01*
D11*
X271621250Y-86995000D03*
D10*
X265271250Y-89535000D02*
X266581252Y-88075000D01*
D11*
X266581250Y-88075000D03*
D10*
X271581250Y-68525000D02*
X271621250Y-67945000D01*
D11*
X271621250Y-67945000D03*
D10*
X265271250Y-70485000D02*
X266581252Y-69025000D01*
D11*
X266581250Y-69025000D03*
D10*
X252531250Y-144725000D02*
X252571250Y-144145000D01*
D11*
X252571250Y-144145000D03*
D10*
X246221250Y-146685000D02*
X247531252Y-145225000D01*
D11*
X247531250Y-145225000D03*
D10*
X252531250Y-87575000D02*
X252571250Y-86995000D01*
D11*
X252571250Y-86995000D03*
D10*
X246221250Y-89535000D02*
X247531252Y-88075000D01*
D11*
X247531250Y-88075000D03*
D10*
X252531250Y-68525000D02*
X252571250Y-67945000D01*
D11*
X252571250Y-67945000D03*
D10*
X246221250Y-70485000D02*
X247531252Y-69025000D01*
D11*
X247531250Y-69025000D03*
D10*
X221575000Y-144725000D02*
X221615000Y-144145000D01*
D11*
X221615000Y-144145000D03*
D10*
X215265000Y-146685000D02*
X216575002Y-145225000D01*
D11*
X216575000Y-145225000D03*
D10*
X207287500Y-125675000D02*
X207327500Y-125095000D01*
D11*
X207327500Y-125095000D03*
D10*
X200977500Y-127635000D02*
X202287502Y-126175000D01*
D11*
X202287500Y-126175000D03*
D10*
X212050000Y-106625000D02*
X212090000Y-106045000D01*
D11*
X212090000Y-106045000D03*
D10*
X205740000Y-108585000D02*
X207050002Y-107125000D01*
D11*
X207050000Y-107125000D03*
D10*
X219193750Y-87575000D02*
X219233750Y-86995000D01*
D11*
X219233750Y-86995000D03*
D10*
X212883750Y-89535000D02*
X214193752Y-88075000D01*
D11*
X214193750Y-88075000D03*
D10*
X214431250Y-68525000D02*
X214471250Y-67945000D01*
D11*
X214471250Y-67945000D03*
D10*
X208121250Y-70485000D02*
X209431252Y-69025000D01*
D11*
X209431250Y-69025000D03*
D10*
X197762500Y-144725000D02*
X197802500Y-144145000D01*
D11*
X197802500Y-144145000D03*
D10*
X191452500Y-146685000D02*
X192762502Y-145225000D01*
D11*
X192762500Y-145225000D03*
D10*
X195381250Y-87575000D02*
X195421250Y-86995000D01*
D11*
X195421250Y-86995000D03*
D10*
X189071250Y-89535000D02*
X190381252Y-88075000D01*
D11*
X190381250Y-88075000D03*
D10*
X185856250Y-68525000D02*
X185896250Y-67945000D01*
D11*
X185896250Y-67945000D03*
D10*
X179546250Y-70485000D02*
X180856252Y-69025000D01*
D11*
X180856250Y-69025000D03*
D10*
X173950000Y-144725000D02*
X173990000Y-144145000D01*
D11*
X173990000Y-144145000D03*
D10*
X167640000Y-146685000D02*
X168950002Y-145225000D01*
D11*
X168950000Y-145225000D03*
D10*
X181093750Y-106625000D02*
X181133750Y-106045000D01*
D11*
X181133750Y-106045000D03*
D10*
X174783750Y-108585000D02*
X176093752Y-107125000D01*
D11*
X176093750Y-107125000D03*
D10*
X176331250Y-87575000D02*
X176371250Y-86995000D01*
D11*
X176371250Y-86995000D03*
D10*
X170021250Y-89535000D02*
X171331252Y-88075000D01*
D11*
X171331250Y-88075000D03*
D10*
X166806250Y-68525000D02*
X166846250Y-67945000D01*
D11*
X166846250Y-67945000D03*
D10*
X160496250Y-70485000D02*
X161806252Y-69025000D01*
D11*
X161806250Y-69025000D03*
D10*
X150137500Y-144725000D02*
X150177500Y-144145000D01*
D11*
X150177500Y-144145000D03*
D10*
X143827500Y-146685000D02*
X145137502Y-145225000D01*
D11*
X145137500Y-145225000D03*
D10*
X171568750Y-125675000D02*
X171608750Y-125095000D01*
D11*
X171608750Y-125095000D03*
D10*
X165258750Y-127635000D02*
X166568752Y-126175000D01*
D11*
X166568750Y-126175000D03*
D10*
X162043750Y-106625000D02*
X162083750Y-106045000D01*
D11*
X162083750Y-106045000D03*
D10*
X155733750Y-108585000D02*
X157043752Y-107125000D01*
D11*
X157043750Y-107125000D03*
D10*
X157281250Y-87575000D02*
X157321250Y-86995000D01*
D11*
X157321250Y-86995000D03*
D10*
X150971250Y-89535000D02*
X152281252Y-88075000D01*
D11*
X152281250Y-88075000D03*
D10*
X147756250Y-68525000D02*
X147796250Y-67945000D01*
D11*
X147796250Y-67945000D03*
D10*
X141446250Y-70485000D02*
X142756252Y-69025000D01*
D11*
X142756250Y-69025000D03*
D10*
X152518750Y-125675000D02*
X152558750Y-125095000D01*
D11*
X152558750Y-125095000D03*
D10*
X146208750Y-127635000D02*
X147518752Y-126175000D01*
D11*
X147518750Y-126175000D03*
D10*
X142993750Y-106625000D02*
X143033750Y-106045000D01*
D11*
X143033750Y-106045000D03*
D10*
X136683750Y-108585000D02*
X137993752Y-107125000D01*
D11*
X137993750Y-107125000D03*
D10*
X138231250Y-87575000D02*
X138271250Y-86995000D01*
D11*
X138271250Y-86995000D03*
D10*
X131921250Y-89535000D02*
X133231252Y-88075000D01*
D11*
X133231250Y-88075000D03*
D10*
X133468750Y-125675000D02*
X133508750Y-125095000D01*
D11*
X133508750Y-125095000D03*
D10*
X127158750Y-127635000D02*
X128468752Y-126175000D01*
D11*
X128468750Y-126175000D03*
D10*
X123943750Y-106625000D02*
X123983750Y-106045000D01*
D11*
X123983750Y-106045000D03*
D10*
X117633750Y-108585000D02*
X118943752Y-107125000D01*
D11*
X118943750Y-107125000D03*
D10*
X119181250Y-87575000D02*
X119221250Y-86995000D01*
D11*
X119221250Y-86995000D03*
D10*
X112871250Y-89535000D02*
X114181252Y-88075000D01*
D11*
X114181250Y-88075000D03*
D10*
X109656250Y-68525000D02*
X109696250Y-67945000D01*
D11*
X109696250Y-67945000D03*
D10*
X103346250Y-70485000D02*
X104656252Y-69025000D01*
D11*
X104656250Y-69025000D03*
D10*
X114418750Y-125675000D02*
X114458750Y-125095000D01*
D11*
X114458750Y-125095000D03*
D10*
X108108750Y-127635000D02*
X109418752Y-126175000D01*
D11*
X109418750Y-126175000D03*
D10*
X104893750Y-106625000D02*
X104933750Y-106045000D01*
D11*
X104933750Y-106045000D03*
D10*
X98583750Y-108585000D02*
X99893752Y-107125000D01*
D11*
X99893750Y-107125000D03*
D10*
X100131250Y-87575000D02*
X100171250Y-86995000D01*
D11*
X100171250Y-86995000D03*
D10*
X93821250Y-89535000D02*
X95131252Y-88075000D01*
D11*
X95131250Y-88075000D03*
D10*
X90606250Y-68525000D02*
X90646250Y-67945000D01*
D11*
X90646250Y-67945000D03*
D10*
X84296250Y-70485000D02*
X85606252Y-69025000D01*
D11*
X85606250Y-69025000D03*
D10*
X95368750Y-125675000D02*
X95408750Y-125095000D01*
D11*
X95408750Y-125095000D03*
D10*
X89058750Y-127635000D02*
X90368752Y-126175000D01*
D11*
X90368750Y-126175000D03*
D10*
X85843750Y-106625000D02*
X85883750Y-106045000D01*
D11*
X85883750Y-106045000D03*
D10*
X79533750Y-108585000D02*
X80843752Y-107125000D01*
D11*
X80843750Y-107125000D03*
D10*
X81081250Y-87575000D02*
X81121250Y-86995000D01*
D11*
X81121250Y-86995000D03*
D10*
X74771250Y-89535000D02*
X76081252Y-88075000D01*
D11*
X76081250Y-88075000D03*
D10*
X71556250Y-68525000D02*
X71596250Y-67945000D01*
D11*
X71596250Y-67945000D03*
D10*
X65246250Y-70485000D02*
X66556252Y-69025000D01*
D11*
X66556250Y-69025000D03*
D10*
X76318750Y-125675000D02*
X76358750Y-125095000D01*
D11*
X76358750Y-125095000D03*
D10*
X70008750Y-127635000D02*
X71318752Y-126175000D01*
D11*
X71318750Y-126175000D03*
D10*
X66793750Y-106625000D02*
X66833750Y-106045000D01*
D11*
X66833750Y-106045000D03*
D10*
X60483750Y-108585000D02*
X61793752Y-107125000D01*
D11*
X61793750Y-107125000D03*
D10*
X62031250Y-87575000D02*
X62071250Y-86995000D01*
D11*
X62071250Y-86995000D03*
D10*
X55721250Y-89535000D02*
X57031252Y-88075000D01*
D11*
X57031250Y-88075000D03*
D10*
X52506250Y-68525000D02*
X52546250Y-67945000D01*
D11*
X52546250Y-67945000D03*
D10*
X46196250Y-70485000D02*
X47506252Y-69025000D01*
D11*
X47506250Y-69025000D03*
D10*
X57268750Y-125675000D02*
X57308750Y-125095000D01*
D11*
X57308750Y-125095000D03*
D10*
X50958750Y-127635000D02*
X52268752Y-126175000D01*
D11*
X52268750Y-126175000D03*
D10*
X47743750Y-106625000D02*
X47783750Y-106045000D01*
D11*
X47783750Y-106045000D03*
D10*
X41433750Y-108585000D02*
X42743752Y-107125000D01*
D11*
X42743750Y-107125000D03*
D10*
X42981250Y-87575000D02*
X43021250Y-86995000D01*
D11*
X43021250Y-86995000D03*
D10*
X36671250Y-89535000D02*
X37981252Y-88075000D01*
D11*
X37981250Y-88075000D03*
D10*
X33456250Y-68525000D02*
X33496250Y-67945000D01*
D11*
X33496250Y-67945000D03*
D10*
X27146250Y-70485000D02*
X28456252Y-69025000D01*
D11*
X28456250Y-69025000D03*
D10*
X38218750Y-125675000D02*
X38258750Y-125095000D01*
D11*
X38258750Y-125095000D03*
D10*
X31908750Y-127635000D02*
X33218752Y-126175000D01*
D11*
X33218750Y-126175000D03*
D10*
X28693750Y-106625000D02*
X28733750Y-106045000D01*
D11*
X28733750Y-106045000D03*
D10*
X22383750Y-108585000D02*
X23693752Y-107125000D01*
D11*
X23693750Y-107125000D03*
D10*
X23931250Y-87575000D02*
X23971250Y-86995000D01*
D11*
X23971250Y-86995000D03*
D10*
X17621250Y-89535000D02*
X18931252Y-88075000D01*
D11*
X18931250Y-88075000D03*
D10*
X14406250Y-68525000D02*
X14446250Y-67945000D01*
D11*
X14446250Y-67945000D03*
D10*
X8096250Y-70485000D02*
X9406252Y-69025000D01*
D11*
X9406250Y-69025000D03*
D10*
X7262500Y-144725000D02*
X7302500Y-144145000D01*
D11*
X7302500Y-144145000D03*
D10*
X952500Y-146685000D02*
X2262502Y-145225000D01*
D11*
X2262500Y-145225000D03*
D10*
X19168750Y-125675000D02*
X19208750Y-125095000D01*
D11*
X19208750Y-125095000D03*
D10*
X12858750Y-127635000D02*
X14168752Y-126175000D01*
D11*
X14168750Y-126175000D03*
D10*
X9643750Y-106625000D02*
X9683750Y-106045000D01*
D11*
X9683750Y-106045000D03*
D10*
X3333750Y-108585000D02*
X4643752Y-107125000D01*
D11*
X4643750Y-107125000D03*
D10*
X4881250Y-87575000D02*
X4921250Y-86995000D01*
D11*
X4921250Y-86995000D03*
D10*
X-1428750Y-89535000D02*
X-118748Y-88075000D01*
D11*
X-118750Y-88075000D03*
D10*
X-4643750Y-68525000D02*
X-4603750Y-67945000D01*
D11*
X-4603750Y-67945000D03*
D10*
X-10953750Y-70485000D02*
X-9643748Y-69025000D01*
D11*
X-9643750Y-69025000D03*
D10*
X-16550000Y-144725000D02*
X-16510000Y-144145000D01*
D11*
X-16510000Y-144145000D03*
D10*
X-22860000Y-146685000D02*
X-21549998Y-145225000D01*
D11*
X-21550000Y-145225000D03*
D10*
X118750Y-125675000D02*
X158750Y-125095000D01*
D11*
X158750Y-125095000D03*
D10*
X-6191250Y-127635000D02*
X-4881248Y-126175000D01*
D11*
X-4881250Y-126175000D03*
D10*
X-9406250Y-106625000D02*
X-9366250Y-106045000D01*
D11*
X-9366250Y-106045000D03*
D10*
X-15716250Y-108585000D02*
X-14406248Y-107125000D01*
D11*
X-14406250Y-107125000D03*
D10*
X-14168750Y-87575000D02*
X-14128750Y-86995000D01*
D11*
X-14128750Y-86995000D03*
D10*
X-20478750Y-89535000D02*
X-19168748Y-88075000D01*
D11*
X-19168750Y-88075000D03*
D10*
X-23693750Y-68525000D02*
X-23653750Y-67945000D01*
D11*
X-23653750Y-67945000D03*
D10*
X-30003750Y-70485000D02*
X-28693748Y-69025000D01*
D11*
X-28693750Y-69025000D03*
D10*
X-40362500Y-144725000D02*
X-40322500Y-144145000D01*
D11*
X-40322500Y-144145000D03*
D10*
X-46672500Y-146685000D02*
X-45362498Y-145225000D01*
D11*
X-45362500Y-145225000D03*
D10*
X-35600000Y-106625000D02*
X-35560000Y-106045000D01*
D11*
X-35560000Y-106045000D03*
D10*
X-41910000Y-108585000D02*
X-40599998Y-107125000D01*
D11*
X-40600000Y-107125000D03*
D10*
X-37981250Y-87575000D02*
X-37941250Y-86995000D01*
D11*
X-37941250Y-86995000D03*
D10*
X-44291250Y-89535000D02*
X-42981248Y-88075000D01*
D11*
X-42981250Y-88075000D03*
D10*
X-42743750Y-68525000D02*
X-42703750Y-67945000D01*
D11*
X-42703750Y-67945000D03*
D10*
X-49053750Y-70485000D02*
X-47743748Y-69025000D01*
D11*
X-47743750Y-69025000D03*
D12*
X318606577Y-38412827D02*
X318606577Y-38412827D01*
G04 #@! TA.AperFunction,ComponentPad*
D13*
G36*
X314781129Y-35718750D02*
G01*
X315912500Y-34587379D01*
X317043871Y-35718750D01*
X315912500Y-36850121D01*
X314781129Y-35718750D01*
G37*
G04 #@! TD.AperFunction*
D12*
X320194077Y-47937827D02*
X320194077Y-47937827D01*
G04 #@! TA.AperFunction,ComponentPad*
D13*
G36*
X316368629Y-45243750D02*
G01*
X317500000Y-44112379D01*
X318631371Y-45243750D01*
X317500000Y-46375121D01*
X316368629Y-45243750D01*
G37*
G04 #@! TD.AperFunction*
D12*
X320987827Y-52700327D02*
X320987827Y-52700327D01*
G04 #@! TA.AperFunction,ComponentPad*
D13*
G36*
X317162379Y-50006250D02*
G01*
X318293750Y-48874879D01*
X319425121Y-50006250D01*
X318293750Y-51137621D01*
X317162379Y-50006250D01*
G37*
G04 #@! TD.AperFunction*
D12*
X305906577Y-33650327D02*
X305906577Y-33650327D01*
G04 #@! TA.AperFunction,ComponentPad*
D13*
G36*
X302081129Y-30956250D02*
G01*
X303212500Y-29824879D01*
X304343871Y-30956250D01*
X303212500Y-32087621D01*
X302081129Y-30956250D01*
G37*
G04 #@! TD.AperFunction*
D12*
X306700327Y-38412827D02*
X306700327Y-38412827D01*
G04 #@! TA.AperFunction,ComponentPad*
D13*
G36*
X302874879Y-35718750D02*
G01*
X304006250Y-34587379D01*
X305137621Y-35718750D01*
X304006250Y-36850121D01*
X302874879Y-35718750D01*
G37*
G04 #@! TD.AperFunction*
D12*
X307494077Y-43175327D02*
X307494077Y-43175327D01*
G04 #@! TA.AperFunction,ComponentPad*
D13*
G36*
X303668629Y-40481250D02*
G01*
X304800000Y-39349879D01*
X305931371Y-40481250D01*
X304800000Y-41612621D01*
X303668629Y-40481250D01*
G37*
G04 #@! TD.AperFunction*
D12*
X308287827Y-47937827D02*
X308287827Y-47937827D01*
G04 #@! TA.AperFunction,ComponentPad*
D13*
G36*
X304462379Y-45243750D02*
G01*
X305593750Y-44112379D01*
X306725121Y-45243750D01*
X305593750Y-46375121D01*
X304462379Y-45243750D01*
G37*
G04 #@! TD.AperFunction*
D12*
X309081577Y-52700327D02*
X309081577Y-52700327D01*
G04 #@! TA.AperFunction,ComponentPad*
D13*
G36*
X305256129Y-50006250D02*
G01*
X306387500Y-48874879D01*
X307518871Y-50006250D01*
X306387500Y-51137621D01*
X305256129Y-50006250D01*
G37*
G04 #@! TD.AperFunction*
D12*
X294794077Y-38412827D02*
X294794077Y-38412827D01*
G04 #@! TA.AperFunction,ComponentPad*
D13*
G36*
X290968629Y-35718750D02*
G01*
X292100000Y-34587379D01*
X293231371Y-35718750D01*
X292100000Y-36850121D01*
X290968629Y-35718750D01*
G37*
G04 #@! TD.AperFunction*
D12*
X295587827Y-43175327D02*
X295587827Y-43175327D01*
G04 #@! TA.AperFunction,ComponentPad*
D13*
G36*
X291762379Y-40481250D02*
G01*
X292893750Y-39349879D01*
X294025121Y-40481250D01*
X292893750Y-41612621D01*
X291762379Y-40481250D01*
G37*
G04 #@! TD.AperFunction*
D12*
X296381577Y-47937827D02*
X296381577Y-47937827D01*
G04 #@! TA.AperFunction,ComponentPad*
D13*
G36*
X292556129Y-45243750D02*
G01*
X293687500Y-44112379D01*
X294818871Y-45243750D01*
X293687500Y-46375121D01*
X292556129Y-45243750D01*
G37*
G04 #@! TD.AperFunction*
D12*
X297175327Y-52700327D02*
X297175327Y-52700327D01*
G04 #@! TA.AperFunction,ComponentPad*
D13*
G36*
X293349879Y-50006250D02*
G01*
X294481250Y-48874879D01*
X295612621Y-50006250D01*
X294481250Y-51137621D01*
X293349879Y-50006250D01*
G37*
G04 #@! TD.AperFunction*
D12*
X282094077Y-33650327D02*
X282094077Y-33650327D01*
G04 #@! TA.AperFunction,ComponentPad*
D13*
G36*
X278268629Y-30956250D02*
G01*
X279400000Y-29824879D01*
X280531371Y-30956250D01*
X279400000Y-32087621D01*
X278268629Y-30956250D01*
G37*
G04 #@! TD.AperFunction*
D12*
X282887827Y-38412827D02*
X282887827Y-38412827D01*
G04 #@! TA.AperFunction,ComponentPad*
D13*
G36*
X279062379Y-35718750D02*
G01*
X280193750Y-34587379D01*
X281325121Y-35718750D01*
X280193750Y-36850121D01*
X279062379Y-35718750D01*
G37*
G04 #@! TD.AperFunction*
D12*
X283681577Y-43175327D02*
X283681577Y-43175327D01*
G04 #@! TA.AperFunction,ComponentPad*
D13*
G36*
X279856129Y-40481250D02*
G01*
X280987500Y-39349879D01*
X282118871Y-40481250D01*
X280987500Y-41612621D01*
X279856129Y-40481250D01*
G37*
G04 #@! TD.AperFunction*
D12*
X284475327Y-47937827D02*
X284475327Y-47937827D01*
G04 #@! TA.AperFunction,ComponentPad*
D13*
G36*
X280649879Y-45243750D02*
G01*
X281781250Y-44112379D01*
X282912621Y-45243750D01*
X281781250Y-46375121D01*
X280649879Y-45243750D01*
G37*
G04 #@! TD.AperFunction*
D12*
X285269077Y-52700327D02*
X285269077Y-52700327D01*
G04 #@! TA.AperFunction,ComponentPad*
D13*
G36*
X281443629Y-50006250D02*
G01*
X282575000Y-48874879D01*
X283706371Y-50006250D01*
X282575000Y-51137621D01*
X281443629Y-50006250D01*
G37*
G04 #@! TD.AperFunction*
D12*
X270187827Y-33650327D02*
X270187827Y-33650327D01*
G04 #@! TA.AperFunction,ComponentPad*
D13*
G36*
X266362379Y-30956250D02*
G01*
X267493750Y-29824879D01*
X268625121Y-30956250D01*
X267493750Y-32087621D01*
X266362379Y-30956250D01*
G37*
G04 #@! TD.AperFunction*
D12*
X272569077Y-47937827D02*
X272569077Y-47937827D01*
G04 #@! TA.AperFunction,ComponentPad*
D13*
G36*
X268743629Y-45243750D02*
G01*
X269875000Y-44112379D01*
X271006371Y-45243750D01*
X269875000Y-46375121D01*
X268743629Y-45243750D01*
G37*
G04 #@! TD.AperFunction*
D12*
X273362827Y-52700327D02*
X273362827Y-52700327D01*
G04 #@! TA.AperFunction,ComponentPad*
D13*
G36*
X269537379Y-50006250D02*
G01*
X270668750Y-48874879D01*
X271800121Y-50006250D01*
X270668750Y-51137621D01*
X269537379Y-50006250D01*
G37*
G04 #@! TD.AperFunction*
D12*
X258281577Y-33650327D02*
X258281577Y-33650327D01*
G04 #@! TA.AperFunction,ComponentPad*
D13*
G36*
X254456129Y-30956250D02*
G01*
X255587500Y-29824879D01*
X256718871Y-30956250D01*
X255587500Y-32087621D01*
X254456129Y-30956250D01*
G37*
G04 #@! TD.AperFunction*
D12*
X259075327Y-38412827D02*
X259075327Y-38412827D01*
G04 #@! TA.AperFunction,ComponentPad*
D13*
G36*
X255249879Y-35718750D02*
G01*
X256381250Y-34587379D01*
X257512621Y-35718750D01*
X256381250Y-36850121D01*
X255249879Y-35718750D01*
G37*
G04 #@! TD.AperFunction*
D12*
X260662827Y-47937827D02*
X260662827Y-47937827D01*
G04 #@! TA.AperFunction,ComponentPad*
D13*
G36*
X256837379Y-45243750D02*
G01*
X257968750Y-44112379D01*
X259100121Y-45243750D01*
X257968750Y-46375121D01*
X256837379Y-45243750D01*
G37*
G04 #@! TD.AperFunction*
D12*
X261456577Y-52700327D02*
X261456577Y-52700327D01*
G04 #@! TA.AperFunction,ComponentPad*
D13*
G36*
X257631129Y-50006250D02*
G01*
X258762500Y-48874879D01*
X259893871Y-50006250D01*
X258762500Y-51137621D01*
X257631129Y-50006250D01*
G37*
G04 #@! TD.AperFunction*
D12*
X246375327Y-33650327D02*
X246375327Y-33650327D01*
G04 #@! TA.AperFunction,ComponentPad*
D13*
G36*
X242549879Y-30956250D02*
G01*
X243681250Y-29824879D01*
X244812621Y-30956250D01*
X243681250Y-32087621D01*
X242549879Y-30956250D01*
G37*
G04 #@! TD.AperFunction*
D12*
X248756577Y-47937827D02*
X248756577Y-47937827D01*
G04 #@! TA.AperFunction,ComponentPad*
D13*
G36*
X244931129Y-45243750D02*
G01*
X246062500Y-44112379D01*
X247193871Y-45243750D01*
X246062500Y-46375121D01*
X244931129Y-45243750D01*
G37*
G04 #@! TD.AperFunction*
D12*
X249550327Y-52700327D02*
X249550327Y-52700327D01*
G04 #@! TA.AperFunction,ComponentPad*
D13*
G36*
X245724879Y-50006250D02*
G01*
X246856250Y-48874879D01*
X247987621Y-50006250D01*
X246856250Y-51137621D01*
X245724879Y-50006250D01*
G37*
G04 #@! TD.AperFunction*
D12*
X222562827Y-38412827D02*
X222562827Y-38412827D01*
G04 #@! TA.AperFunction,ComponentPad*
D13*
G36*
X218737379Y-35718750D02*
G01*
X219868750Y-34587379D01*
X221000121Y-35718750D01*
X219868750Y-36850121D01*
X218737379Y-35718750D01*
G37*
G04 #@! TD.AperFunction*
D12*
X223356577Y-43175327D02*
X223356577Y-43175327D01*
G04 #@! TA.AperFunction,ComponentPad*
D13*
G36*
X219531129Y-40481250D02*
G01*
X220662500Y-39349879D01*
X221793871Y-40481250D01*
X220662500Y-41612621D01*
X219531129Y-40481250D01*
G37*
G04 #@! TD.AperFunction*
D12*
X224150327Y-47937827D02*
X224150327Y-47937827D01*
G04 #@! TA.AperFunction,ComponentPad*
D13*
G36*
X220324879Y-45243750D02*
G01*
X221456250Y-44112379D01*
X222587621Y-45243750D01*
X221456250Y-46375121D01*
X220324879Y-45243750D01*
G37*
G04 #@! TD.AperFunction*
D12*
X224944077Y-52700327D02*
X224944077Y-52700327D01*
G04 #@! TA.AperFunction,ComponentPad*
D13*
G36*
X221118629Y-50006250D02*
G01*
X222250000Y-48874879D01*
X223381371Y-50006250D01*
X222250000Y-51137621D01*
X221118629Y-50006250D01*
G37*
G04 #@! TD.AperFunction*
D12*
X212244077Y-47937827D02*
X212244077Y-47937827D01*
G04 #@! TA.AperFunction,ComponentPad*
D13*
G36*
X208418629Y-45243750D02*
G01*
X209550000Y-44112379D01*
X210681371Y-45243750D01*
X209550000Y-46375121D01*
X208418629Y-45243750D01*
G37*
G04 #@! TD.AperFunction*
D12*
X213037827Y-52700327D02*
X213037827Y-52700327D01*
G04 #@! TA.AperFunction,ComponentPad*
D13*
G36*
X209212379Y-50006250D02*
G01*
X210343750Y-48874879D01*
X211475121Y-50006250D01*
X210343750Y-51137621D01*
X209212379Y-50006250D01*
G37*
G04 #@! TD.AperFunction*
D12*
X199544077Y-43175327D02*
X199544077Y-43175327D01*
G04 #@! TA.AperFunction,ComponentPad*
D13*
G36*
X195718629Y-40481250D02*
G01*
X196850000Y-39349879D01*
X197981371Y-40481250D01*
X196850000Y-41612621D01*
X195718629Y-40481250D01*
G37*
G04 #@! TD.AperFunction*
D12*
X200337827Y-47937827D02*
X200337827Y-47937827D01*
G04 #@! TA.AperFunction,ComponentPad*
D13*
G36*
X196512379Y-45243750D02*
G01*
X197643750Y-44112379D01*
X198775121Y-45243750D01*
X197643750Y-46375121D01*
X196512379Y-45243750D01*
G37*
G04 #@! TD.AperFunction*
D12*
X201131577Y-52700327D02*
X201131577Y-52700327D01*
G04 #@! TA.AperFunction,ComponentPad*
D13*
G36*
X197306129Y-50006250D02*
G01*
X198437500Y-48874879D01*
X199568871Y-50006250D01*
X198437500Y-51137621D01*
X197306129Y-50006250D01*
G37*
G04 #@! TD.AperFunction*
D12*
X186844077Y-38412827D02*
X186844077Y-38412827D01*
G04 #@! TA.AperFunction,ComponentPad*
D13*
G36*
X183018629Y-35718750D02*
G01*
X184150000Y-34587379D01*
X185281371Y-35718750D01*
X184150000Y-36850121D01*
X183018629Y-35718750D01*
G37*
G04 #@! TD.AperFunction*
D12*
X187637827Y-43175327D02*
X187637827Y-43175327D01*
G04 #@! TA.AperFunction,ComponentPad*
D13*
G36*
X183812379Y-40481250D02*
G01*
X184943750Y-39349879D01*
X186075121Y-40481250D01*
X184943750Y-41612621D01*
X183812379Y-40481250D01*
G37*
G04 #@! TD.AperFunction*
D12*
X188431577Y-47937827D02*
X188431577Y-47937827D01*
G04 #@! TA.AperFunction,ComponentPad*
D13*
G36*
X184606129Y-45243750D02*
G01*
X185737500Y-44112379D01*
X186868871Y-45243750D01*
X185737500Y-46375121D01*
X184606129Y-45243750D01*
G37*
G04 #@! TD.AperFunction*
D12*
X189225327Y-52700327D02*
X189225327Y-52700327D01*
G04 #@! TA.AperFunction,ComponentPad*
D13*
G36*
X185399879Y-50006250D02*
G01*
X186531250Y-48874879D01*
X187662621Y-50006250D01*
X186531250Y-51137621D01*
X185399879Y-50006250D01*
G37*
G04 #@! TD.AperFunction*
D12*
X174937827Y-38412827D02*
X174937827Y-38412827D01*
G04 #@! TA.AperFunction,ComponentPad*
D13*
G36*
X171112379Y-35718750D02*
G01*
X172243750Y-34587379D01*
X173375121Y-35718750D01*
X172243750Y-36850121D01*
X171112379Y-35718750D01*
G37*
G04 #@! TD.AperFunction*
D12*
X175731577Y-43175327D02*
X175731577Y-43175327D01*
G04 #@! TA.AperFunction,ComponentPad*
D13*
G36*
X171906129Y-40481250D02*
G01*
X173037500Y-39349879D01*
X174168871Y-40481250D01*
X173037500Y-41612621D01*
X171906129Y-40481250D01*
G37*
G04 #@! TD.AperFunction*
D12*
X176525327Y-47937827D02*
X176525327Y-47937827D01*
G04 #@! TA.AperFunction,ComponentPad*
D13*
G36*
X172699879Y-45243750D02*
G01*
X173831250Y-44112379D01*
X174962621Y-45243750D01*
X173831250Y-46375121D01*
X172699879Y-45243750D01*
G37*
G04 #@! TD.AperFunction*
D12*
X177319077Y-52700327D02*
X177319077Y-52700327D01*
G04 #@! TA.AperFunction,ComponentPad*
D13*
G36*
X173493629Y-50006250D02*
G01*
X174625000Y-48874879D01*
X175756371Y-50006250D01*
X174625000Y-51137621D01*
X173493629Y-50006250D01*
G37*
G04 #@! TD.AperFunction*
D12*
X163031577Y-38412827D02*
X163031577Y-38412827D01*
G04 #@! TA.AperFunction,ComponentPad*
D13*
G36*
X159206129Y-35718750D02*
G01*
X160337500Y-34587379D01*
X161468871Y-35718750D01*
X160337500Y-36850121D01*
X159206129Y-35718750D01*
G37*
G04 #@! TD.AperFunction*
D12*
X163825327Y-43175327D02*
X163825327Y-43175327D01*
G04 #@! TA.AperFunction,ComponentPad*
D13*
G36*
X159999879Y-40481250D02*
G01*
X161131250Y-39349879D01*
X162262621Y-40481250D01*
X161131250Y-41612621D01*
X159999879Y-40481250D01*
G37*
G04 #@! TD.AperFunction*
D12*
X164619077Y-47937827D02*
X164619077Y-47937827D01*
G04 #@! TA.AperFunction,ComponentPad*
D13*
G36*
X160793629Y-45243750D02*
G01*
X161925000Y-44112379D01*
X163056371Y-45243750D01*
X161925000Y-46375121D01*
X160793629Y-45243750D01*
G37*
G04 #@! TD.AperFunction*
D12*
X165412827Y-52700327D02*
X165412827Y-52700327D01*
G04 #@! TA.AperFunction,ComponentPad*
D13*
G36*
X161587379Y-50006250D02*
G01*
X162718750Y-48874879D01*
X163850121Y-50006250D01*
X162718750Y-51137621D01*
X161587379Y-50006250D01*
G37*
G04 #@! TD.AperFunction*
D12*
X151125327Y-38412827D02*
X151125327Y-38412827D01*
G04 #@! TA.AperFunction,ComponentPad*
D13*
G36*
X147299879Y-35718750D02*
G01*
X148431250Y-34587379D01*
X149562621Y-35718750D01*
X148431250Y-36850121D01*
X147299879Y-35718750D01*
G37*
G04 #@! TD.AperFunction*
D12*
X151919077Y-43175327D02*
X151919077Y-43175327D01*
G04 #@! TA.AperFunction,ComponentPad*
D13*
G36*
X148093629Y-40481250D02*
G01*
X149225000Y-39349879D01*
X150356371Y-40481250D01*
X149225000Y-41612621D01*
X148093629Y-40481250D01*
G37*
G04 #@! TD.AperFunction*
D12*
X152712827Y-47937827D02*
X152712827Y-47937827D01*
G04 #@! TA.AperFunction,ComponentPad*
D13*
G36*
X148887379Y-45243750D02*
G01*
X150018750Y-44112379D01*
X151150121Y-45243750D01*
X150018750Y-46375121D01*
X148887379Y-45243750D01*
G37*
G04 #@! TD.AperFunction*
D12*
X153506577Y-52700327D02*
X153506577Y-52700327D01*
G04 #@! TA.AperFunction,ComponentPad*
D13*
G36*
X149681129Y-50006250D02*
G01*
X150812500Y-48874879D01*
X151943871Y-50006250D01*
X150812500Y-51137621D01*
X149681129Y-50006250D01*
G37*
G04 #@! TD.AperFunction*
D12*
X139219077Y-38412827D02*
X139219077Y-38412827D01*
G04 #@! TA.AperFunction,ComponentPad*
D13*
G36*
X135393629Y-35718750D02*
G01*
X136525000Y-34587379D01*
X137656371Y-35718750D01*
X136525000Y-36850121D01*
X135393629Y-35718750D01*
G37*
G04 #@! TD.AperFunction*
D12*
X140012827Y-43175327D02*
X140012827Y-43175327D01*
G04 #@! TA.AperFunction,ComponentPad*
D13*
G36*
X136187379Y-40481250D02*
G01*
X137318750Y-39349879D01*
X138450121Y-40481250D01*
X137318750Y-41612621D01*
X136187379Y-40481250D01*
G37*
G04 #@! TD.AperFunction*
D12*
X140806577Y-47937827D02*
X140806577Y-47937827D01*
G04 #@! TA.AperFunction,ComponentPad*
D13*
G36*
X136981129Y-45243750D02*
G01*
X138112500Y-44112379D01*
X139243871Y-45243750D01*
X138112500Y-46375121D01*
X136981129Y-45243750D01*
G37*
G04 #@! TD.AperFunction*
D12*
X141600327Y-52700327D02*
X141600327Y-52700327D01*
G04 #@! TA.AperFunction,ComponentPad*
D13*
G36*
X137774879Y-50006250D02*
G01*
X138906250Y-48874879D01*
X140037621Y-50006250D01*
X138906250Y-51137621D01*
X137774879Y-50006250D01*
G37*
G04 #@! TD.AperFunction*
D12*
X127312827Y-38412827D02*
X127312827Y-38412827D01*
G04 #@! TA.AperFunction,ComponentPad*
D13*
G36*
X123487379Y-35718750D02*
G01*
X124618750Y-34587379D01*
X125750121Y-35718750D01*
X124618750Y-36850121D01*
X123487379Y-35718750D01*
G37*
G04 #@! TD.AperFunction*
D12*
X128106577Y-43175327D02*
X128106577Y-43175327D01*
G04 #@! TA.AperFunction,ComponentPad*
D13*
G36*
X124281129Y-40481250D02*
G01*
X125412500Y-39349879D01*
X126543871Y-40481250D01*
X125412500Y-41612621D01*
X124281129Y-40481250D01*
G37*
G04 #@! TD.AperFunction*
D12*
X128900327Y-47937827D02*
X128900327Y-47937827D01*
G04 #@! TA.AperFunction,ComponentPad*
D13*
G36*
X125074879Y-45243750D02*
G01*
X126206250Y-44112379D01*
X127337621Y-45243750D01*
X126206250Y-46375121D01*
X125074879Y-45243750D01*
G37*
G04 #@! TD.AperFunction*
D12*
X129694077Y-52700327D02*
X129694077Y-52700327D01*
G04 #@! TA.AperFunction,ComponentPad*
D13*
G36*
X125868629Y-50006250D02*
G01*
X127000000Y-48874879D01*
X128131371Y-50006250D01*
X127000000Y-51137621D01*
X125868629Y-50006250D01*
G37*
G04 #@! TD.AperFunction*
D12*
X115406577Y-38412827D02*
X115406577Y-38412827D01*
G04 #@! TA.AperFunction,ComponentPad*
D13*
G36*
X111581129Y-35718750D02*
G01*
X112712500Y-34587379D01*
X113843871Y-35718750D01*
X112712500Y-36850121D01*
X111581129Y-35718750D01*
G37*
G04 #@! TD.AperFunction*
D12*
X116200327Y-43175327D02*
X116200327Y-43175327D01*
G04 #@! TA.AperFunction,ComponentPad*
D13*
G36*
X112374879Y-40481250D02*
G01*
X113506250Y-39349879D01*
X114637621Y-40481250D01*
X113506250Y-41612621D01*
X112374879Y-40481250D01*
G37*
G04 #@! TD.AperFunction*
D12*
X116994077Y-47937827D02*
X116994077Y-47937827D01*
G04 #@! TA.AperFunction,ComponentPad*
D13*
G36*
X113168629Y-45243750D02*
G01*
X114300000Y-44112379D01*
X115431371Y-45243750D01*
X114300000Y-46375121D01*
X113168629Y-45243750D01*
G37*
G04 #@! TD.AperFunction*
D12*
X117787827Y-52700327D02*
X117787827Y-52700327D01*
G04 #@! TA.AperFunction,ComponentPad*
D13*
G36*
X113962379Y-50006250D02*
G01*
X115093750Y-48874879D01*
X116225121Y-50006250D01*
X115093750Y-51137621D01*
X113962379Y-50006250D01*
G37*
G04 #@! TD.AperFunction*
D12*
X103500327Y-38412827D02*
X103500327Y-38412827D01*
G04 #@! TA.AperFunction,ComponentPad*
D13*
G36*
X99674879Y-35718750D02*
G01*
X100806250Y-34587379D01*
X101937621Y-35718750D01*
X100806250Y-36850121D01*
X99674879Y-35718750D01*
G37*
G04 #@! TD.AperFunction*
D12*
X104294077Y-43175327D02*
X104294077Y-43175327D01*
G04 #@! TA.AperFunction,ComponentPad*
D13*
G36*
X100468629Y-40481250D02*
G01*
X101600000Y-39349879D01*
X102731371Y-40481250D01*
X101600000Y-41612621D01*
X100468629Y-40481250D01*
G37*
G04 #@! TD.AperFunction*
D12*
X105087827Y-47937827D02*
X105087827Y-47937827D01*
G04 #@! TA.AperFunction,ComponentPad*
D13*
G36*
X101262379Y-45243750D02*
G01*
X102393750Y-44112379D01*
X103525121Y-45243750D01*
X102393750Y-46375121D01*
X101262379Y-45243750D01*
G37*
G04 #@! TD.AperFunction*
D12*
X105881577Y-52700327D02*
X105881577Y-52700327D01*
G04 #@! TA.AperFunction,ComponentPad*
D13*
G36*
X102056129Y-50006250D02*
G01*
X103187500Y-48874879D01*
X104318871Y-50006250D01*
X103187500Y-51137621D01*
X102056129Y-50006250D01*
G37*
G04 #@! TD.AperFunction*
D12*
X91594077Y-38412827D02*
X91594077Y-38412827D01*
G04 #@! TA.AperFunction,ComponentPad*
D13*
G36*
X87768629Y-35718750D02*
G01*
X88900000Y-34587379D01*
X90031371Y-35718750D01*
X88900000Y-36850121D01*
X87768629Y-35718750D01*
G37*
G04 #@! TD.AperFunction*
D12*
X92387827Y-43175327D02*
X92387827Y-43175327D01*
G04 #@! TA.AperFunction,ComponentPad*
D13*
G36*
X88562379Y-40481250D02*
G01*
X89693750Y-39349879D01*
X90825121Y-40481250D01*
X89693750Y-41612621D01*
X88562379Y-40481250D01*
G37*
G04 #@! TD.AperFunction*
D12*
X93181577Y-47937827D02*
X93181577Y-47937827D01*
G04 #@! TA.AperFunction,ComponentPad*
D13*
G36*
X89356129Y-45243750D02*
G01*
X90487500Y-44112379D01*
X91618871Y-45243750D01*
X90487500Y-46375121D01*
X89356129Y-45243750D01*
G37*
G04 #@! TD.AperFunction*
D12*
X93975327Y-52700327D02*
X93975327Y-52700327D01*
G04 #@! TA.AperFunction,ComponentPad*
D13*
G36*
X90149879Y-50006250D02*
G01*
X91281250Y-48874879D01*
X92412621Y-50006250D01*
X91281250Y-51137621D01*
X90149879Y-50006250D01*
G37*
G04 #@! TD.AperFunction*
D12*
X79687827Y-38412827D02*
X79687827Y-38412827D01*
G04 #@! TA.AperFunction,ComponentPad*
D13*
G36*
X75862379Y-35718750D02*
G01*
X76993750Y-34587379D01*
X78125121Y-35718750D01*
X76993750Y-36850121D01*
X75862379Y-35718750D01*
G37*
G04 #@! TD.AperFunction*
D12*
X80481577Y-43175327D02*
X80481577Y-43175327D01*
G04 #@! TA.AperFunction,ComponentPad*
D13*
G36*
X76656129Y-40481250D02*
G01*
X77787500Y-39349879D01*
X78918871Y-40481250D01*
X77787500Y-41612621D01*
X76656129Y-40481250D01*
G37*
G04 #@! TD.AperFunction*
D12*
X81275327Y-47937827D02*
X81275327Y-47937827D01*
G04 #@! TA.AperFunction,ComponentPad*
D13*
G36*
X77449879Y-45243750D02*
G01*
X78581250Y-44112379D01*
X79712621Y-45243750D01*
X78581250Y-46375121D01*
X77449879Y-45243750D01*
G37*
G04 #@! TD.AperFunction*
D12*
X82069077Y-52700327D02*
X82069077Y-52700327D01*
G04 #@! TA.AperFunction,ComponentPad*
D13*
G36*
X78243629Y-50006250D02*
G01*
X79375000Y-48874879D01*
X80506371Y-50006250D01*
X79375000Y-51137621D01*
X78243629Y-50006250D01*
G37*
G04 #@! TD.AperFunction*
D12*
X67781577Y-38412827D02*
X67781577Y-38412827D01*
G04 #@! TA.AperFunction,ComponentPad*
D13*
G36*
X63956129Y-35718750D02*
G01*
X65087500Y-34587379D01*
X66218871Y-35718750D01*
X65087500Y-36850121D01*
X63956129Y-35718750D01*
G37*
G04 #@! TD.AperFunction*
D12*
X68575327Y-43175327D02*
X68575327Y-43175327D01*
G04 #@! TA.AperFunction,ComponentPad*
D13*
G36*
X64749879Y-40481250D02*
G01*
X65881250Y-39349879D01*
X67012621Y-40481250D01*
X65881250Y-41612621D01*
X64749879Y-40481250D01*
G37*
G04 #@! TD.AperFunction*
D12*
X69369077Y-47937827D02*
X69369077Y-47937827D01*
G04 #@! TA.AperFunction,ComponentPad*
D13*
G36*
X65543629Y-45243750D02*
G01*
X66675000Y-44112379D01*
X67806371Y-45243750D01*
X66675000Y-46375121D01*
X65543629Y-45243750D01*
G37*
G04 #@! TD.AperFunction*
D12*
X70162827Y-52700327D02*
X70162827Y-52700327D01*
G04 #@! TA.AperFunction,ComponentPad*
D13*
G36*
X66337379Y-50006250D02*
G01*
X67468750Y-48874879D01*
X68600121Y-50006250D01*
X67468750Y-51137621D01*
X66337379Y-50006250D01*
G37*
G04 #@! TD.AperFunction*
D18*
X342900000Y-15875000D03*
X342106250Y-16668750D03*
X339725000Y-19050000D03*
X339725000Y7143750D03*
X341312500Y5556250D03*
X342106250Y4762500D03*
X340518750Y6350000D03*
X340518750Y-18256250D03*
X341312500Y-17462500D03*
X342900000Y3968750D03*
X327818750Y-6350000D03*
D19*
X48418750Y-30956250D02*
X67468750Y-50006250D01*
X-24606250Y-30956250D02*
X48418750Y-30956250D01*
X-24288750Y-35242500D02*
X-24288750Y-32067500D01*
X-24606250Y-31750000D02*
X-24606250Y-30956250D01*
X-24288750Y-32067500D02*
X-24606250Y-31750000D01*
X91281250Y-50006250D02*
X79375000Y-50006250D01*
X79375000Y-50006250D02*
X67468750Y-50006250D01*
X91281250Y-50006250D02*
X103187500Y-50006250D01*
X103187500Y-50006250D02*
X115093750Y-50006250D01*
X115093750Y-50006250D02*
X127000000Y-50006250D01*
X127000000Y-50006250D02*
X138906250Y-50006250D01*
X138906250Y-50006250D02*
X150812500Y-50006250D01*
X150812500Y-50006250D02*
X162718750Y-50006250D01*
X162718750Y-50006250D02*
X174625000Y-50006250D01*
X222250000Y-50006250D02*
X210343750Y-50006250D01*
X210343750Y-50006250D02*
X198437500Y-50006250D01*
X198437500Y-50006250D02*
X186531250Y-50006250D01*
X186531250Y-50006250D02*
X174625000Y-50006250D01*
X51593750Y-30162500D02*
X-26193750Y-30162500D01*
X-26193750Y-30162500D02*
X-26987500Y-30956250D01*
X-26987500Y-31750000D02*
X-26828750Y-31908750D01*
X-26828750Y-31908750D02*
X-26828750Y-35242500D01*
X-26987500Y-30956250D02*
X-26987500Y-31750000D01*
X51593750Y-30162500D02*
X66675000Y-45243750D01*
X66675000Y-45243750D02*
X78581250Y-45243750D01*
X78581250Y-45243750D02*
X90487500Y-45243750D01*
X161925000Y-45243750D02*
X150018750Y-45243750D01*
X150018750Y-45243750D02*
X138112500Y-45243750D01*
X138112500Y-45243750D02*
X126206250Y-45243750D01*
X126206250Y-45243750D02*
X114300000Y-45243750D01*
X114300000Y-45243750D02*
X102393750Y-45243750D01*
X90487500Y-45243750D02*
X102393750Y-45243750D01*
X173831250Y-45243750D02*
X161925000Y-45243750D01*
X173831250Y-45243750D02*
X185737500Y-45243750D01*
X185737500Y-45243750D02*
X197643750Y-45243750D01*
X197643750Y-45243750D02*
X209550000Y-45243750D01*
X209550000Y-45243750D02*
X221456250Y-45243750D01*
X-29368750Y-35242500D02*
X-29368750Y-30956250D01*
X-27781250Y-29368750D02*
X54768750Y-29368750D01*
X-29368750Y-30956250D02*
X-27781250Y-29368750D01*
X54768750Y-29368750D02*
X65881250Y-40481250D01*
X77787500Y-40481250D02*
X65881250Y-40481250D01*
X77787500Y-40481250D02*
X89693750Y-40481250D01*
X89693750Y-40481250D02*
X101600000Y-40481250D01*
X101600000Y-40481250D02*
X113506250Y-40481250D01*
X113506250Y-40481250D02*
X125412500Y-40481250D01*
X125412500Y-40481250D02*
X137318750Y-40481250D01*
X137318750Y-40481250D02*
X149225000Y-40481250D01*
X149225000Y-40481250D02*
X161925000Y-40481250D01*
X161925000Y-40481250D02*
X173037500Y-40481250D01*
X173037500Y-40481250D02*
X184943750Y-40481250D01*
X184943750Y-40481250D02*
X196850000Y-40481250D01*
X220662500Y-40481250D02*
X196850000Y-40481250D01*
X-31908750Y-31908750D02*
X-31908750Y-35242500D01*
X57943750Y-28575000D02*
X-29368750Y-28575000D01*
X-29368750Y-28575000D02*
X-31750000Y-30956250D01*
X-31750000Y-31750000D02*
X-31908750Y-31908750D01*
X-31750000Y-30956250D02*
X-31750000Y-31750000D01*
X57943750Y-28575000D02*
X65087500Y-35718750D01*
X88900000Y-35718750D02*
X76993750Y-35718750D01*
X76993750Y-35718750D02*
X65087500Y-35718750D01*
X184150000Y-35718750D02*
X172243750Y-35718750D01*
X172243750Y-35718750D02*
X160337500Y-35718750D01*
X160337500Y-35718750D02*
X148431250Y-35718750D01*
X148431250Y-35718750D02*
X136525000Y-35718750D01*
X136525000Y-35718750D02*
X124618750Y-35718750D01*
X124618750Y-35718750D02*
X112712500Y-35718750D01*
X112712500Y-35718750D02*
X100806250Y-35718750D01*
X100806250Y-35718750D02*
X88900000Y-35718750D01*
X184150000Y-35718750D02*
X219868750Y-35718750D01*
X61118750Y-27781250D02*
X64293750Y-30956250D01*
X-34448750Y-35242500D02*
X-34448750Y-32067500D01*
X-34448750Y-32067500D02*
X-34131250Y-31750000D01*
X-34131250Y-31750000D02*
X-34131250Y-30956250D01*
X-30956250Y-27781250D02*
X61118750Y-27781250D01*
X-34131250Y-30956250D02*
X-30956250Y-27781250D01*
X64293750Y-30956250D02*
X76200000Y-30956250D01*
X76200000Y-30956250D02*
X88106250Y-30956250D01*
X88106250Y-30956250D02*
X135731250Y-30956250D01*
X135731250Y-30956250D02*
X183356250Y-30956250D01*
X195262500Y-30956250D02*
X183356250Y-30956250D01*
X219075000Y-30956250D02*
X207168750Y-30956250D01*
X207168750Y-30956250D02*
X195262500Y-30956250D01*
X342900000Y-15875000D02*
X344487500Y-17462500D01*
X344487500Y-17462500D02*
X347662500Y-17462500D01*
X347980000Y-17145000D02*
X347980000Y-15748000D01*
X347662500Y-17462500D02*
X347980000Y-17145000D01*
X347980000Y-15748000D02*
X347980000Y-13970000D01*
X342106250Y-16668750D02*
X343693750Y-18256250D01*
X343693750Y-18256250D02*
X350043750Y-18256250D01*
X350043750Y-18256250D02*
X350837500Y-17462500D01*
X350520000Y-17145000D02*
X350520000Y-13970000D01*
X350837500Y-17462500D02*
X350520000Y-17145000D01*
X318293750Y-50006250D02*
X306387500Y-50006250D01*
X282575000Y-50006250D02*
X294481250Y-50006250D01*
X294481250Y-50006250D02*
X306387500Y-50006250D01*
X246856250Y-50006250D02*
X258762500Y-50006250D01*
X258762500Y-50006250D02*
X270668750Y-50006250D01*
X270668750Y-50006250D02*
X282575000Y-50006250D01*
X318293750Y-50006250D02*
X328612500Y-50006250D01*
X344487500Y-34131250D02*
X347662500Y-34131250D01*
X328612500Y-50006250D02*
X344487500Y-34131250D01*
X347662500Y-34131250D02*
X348456250Y-34925000D01*
X347980000Y-35401250D02*
X347980000Y-38646100D01*
X348456250Y-34925000D02*
X347980000Y-35401250D01*
X305593750Y-45243750D02*
X317500000Y-45243750D01*
X293687500Y-45243750D02*
X305593750Y-45243750D01*
X281781250Y-45243750D02*
X293687500Y-45243750D01*
X246062500Y-45243750D02*
X257968750Y-45243750D01*
X257968750Y-45243750D02*
X269875000Y-45243750D01*
X269875000Y-45243750D02*
X281781250Y-45243750D01*
X349250000Y-33337500D02*
X350520000Y-34607500D01*
X344487500Y-33337500D02*
X349250000Y-33337500D01*
X317500000Y-45243750D02*
X332581250Y-45243750D01*
X350520000Y-34607500D02*
X350520000Y-38417500D01*
X332581250Y-45243750D02*
X344487500Y-33337500D01*
X243681250Y-30956250D02*
X255587500Y-30956250D01*
X255587500Y-30956250D02*
X267493750Y-30956250D01*
X267493750Y-30956250D02*
X279400000Y-30956250D01*
X279400000Y-30956250D02*
X303212500Y-30956250D01*
X358140000Y-35083750D02*
X358140000Y-36639500D01*
X303212500Y-30956250D02*
X354012500Y-30956250D01*
X354012500Y-30956250D02*
X358140000Y-35083750D01*
X358140000Y-38417500D02*
X358140000Y-36639500D01*
X315912500Y-35718750D02*
X304006250Y-35718750D01*
X304006250Y-35718750D02*
X292100000Y-35718750D01*
X256381250Y-35718750D02*
X280193750Y-35718750D01*
X280193750Y-35718750D02*
X292100000Y-35718750D01*
X355600000Y-34925000D02*
X355600000Y-38417500D01*
X344487500Y-31750000D02*
X352425000Y-31750000D01*
X315912500Y-35718750D02*
X340518750Y-35718750D01*
X352425000Y-31750000D02*
X355600000Y-34925000D01*
X340518750Y-35718750D02*
X344487500Y-31750000D01*
X292893750Y-40481250D02*
X304800000Y-40481250D01*
X280987500Y-40481250D02*
X292893750Y-40481250D01*
X353060000Y-37178225D02*
X353060000Y-38417500D01*
X353060000Y-34764500D02*
X353060000Y-37178225D01*
X350917920Y-32622420D02*
X353060000Y-34764500D01*
X350917920Y-32622420D02*
X350916170Y-32622420D01*
X350916170Y-32622420D02*
X350837500Y-32543750D01*
X350837500Y-32543750D02*
X344487500Y-32543750D01*
X344487500Y-32543750D02*
X338137500Y-38893750D01*
X304800000Y-40481250D02*
X336550000Y-40481250D01*
X336550000Y-40481250D02*
X338137500Y-38893750D01*
X-49053750Y-82002500D02*
X-42981250Y-88075000D01*
X-49053750Y-70485000D02*
X-49053750Y-82002500D01*
X-44291250Y-103433750D02*
X-40600000Y-107125000D01*
X-44291250Y-89535000D02*
X-44291250Y-103433750D01*
X-41910000Y-120102500D02*
X-35837500Y-126175000D01*
X-41910000Y-108585000D02*
X-41910000Y-120102500D01*
X-37147500Y-137010000D02*
X-45362500Y-145225000D01*
X-37147500Y-127635000D02*
X-37147500Y-137010000D01*
X-49053750Y-69691250D02*
X-49053750Y-70485000D01*
X-45243750Y-65881250D02*
X-49053750Y-69691250D01*
X-38893750Y-65881250D02*
X-45243750Y-65881250D01*
X-39528750Y-50482500D02*
X-39528750Y-53340000D01*
X-39528750Y-53340000D02*
X-38893750Y-53975000D01*
X-38893750Y-53975000D02*
X-38893750Y-65881250D01*
X358140000Y-15209275D02*
X358140000Y-13970000D01*
X358140000Y-17623000D02*
X358140000Y-15209275D01*
X339725000Y-19050000D02*
X340124999Y-19449999D01*
X-11271250Y-8096250D02*
X7778750Y-8096250D01*
X24058750Y-8096250D02*
X26828750Y-8096250D01*
X7778750Y-8096250D02*
X24058750Y-8096250D01*
X43108750Y-8096250D02*
X45878750Y-8096250D01*
X26828750Y-8096250D02*
X43108750Y-8096250D01*
X45878750Y-8096250D02*
X74453750Y-8096250D01*
X90733750Y-8096250D02*
X93503750Y-8096250D01*
X74453750Y-8096250D02*
X90733750Y-8096250D01*
X109783750Y-8096250D02*
X112553750Y-8096250D01*
X93503750Y-8096250D02*
X109783750Y-8096250D01*
X-11271250Y-8096250D02*
X-41433750Y-8096250D01*
X340124999Y-19449999D02*
X341312500Y-20637500D01*
X341312500Y-20637500D02*
X356393750Y-20637500D01*
X356393750Y-20637500D02*
X357981250Y-19050000D01*
X358140000Y-18891250D02*
X357981250Y-19050000D01*
X358140000Y-17623000D02*
X358140000Y-18891250D01*
X-20478750Y-82391250D02*
X-20478750Y-89535000D01*
X-30003750Y-72866250D02*
X-20478750Y-82391250D01*
X-30003750Y-70485000D02*
X-30003750Y-72866250D01*
X-20478750Y-101052500D02*
X-14406250Y-107125000D01*
X-20478750Y-89535000D02*
X-20478750Y-101052500D01*
X-15716250Y-118110000D02*
X-6191250Y-127635000D01*
X-15716250Y-108585000D02*
X-15716250Y-118110000D01*
X-21550000Y-143634010D02*
X-21550000Y-145225000D01*
X-21550000Y-142487748D02*
X-21550000Y-143634010D01*
X-6697252Y-127635000D02*
X-21550000Y-142487748D01*
X-6191250Y-127635000D02*
X-6697252Y-127635000D01*
X-36988750Y-52260500D02*
X-36988750Y-53498750D01*
X-36988750Y-53498750D02*
X-36512500Y-53975000D01*
X-30162500Y-70643750D02*
X-30003750Y-70485000D01*
X-36512500Y-65087500D02*
X-30956250Y-70643750D01*
X-30956250Y-70643750D02*
X-30162500Y-70643750D01*
X-36512500Y-53975000D02*
X-36512500Y-65087500D01*
X123983750Y-3016250D02*
X152558750Y-3016250D01*
X152558750Y-3016250D02*
X171608750Y-3016250D01*
X171608750Y-3016250D02*
X190658750Y-3016250D01*
X190658750Y-3016250D02*
X209708750Y-3016250D01*
X209708750Y-3016250D02*
X246221250Y-3016250D01*
X246221250Y-3016250D02*
X265271250Y-3016250D01*
X265271250Y-3016250D02*
X284321250Y-3016250D01*
X358140000Y4603750D02*
X358140000Y1270000D01*
X354806250Y7937500D02*
X358140000Y4603750D01*
X339725000Y7143750D02*
X340518750Y7937500D01*
X340518750Y7937500D02*
X354806250Y7937500D01*
X-10953750Y-77240000D02*
X-118750Y-88075000D01*
X-10953750Y-70485000D02*
X-10953750Y-77240000D01*
X-1428750Y-101052500D02*
X4643750Y-107125000D01*
X-1428750Y-89535000D02*
X-1428750Y-101052500D01*
X3333750Y-115340000D02*
X14168750Y-126175000D01*
X3333750Y-108585000D02*
X3333750Y-115340000D01*
X2262500Y-137725248D02*
X2262500Y-143634010D01*
X11012749Y-128974999D02*
X2262500Y-137725248D01*
X2262500Y-143634010D02*
X2262500Y-145225000D01*
X12164751Y-128974999D02*
X11012749Y-128974999D01*
X12858750Y-128281000D02*
X12164751Y-128974999D01*
X12858750Y-127635000D02*
X12858750Y-128281000D01*
X-13493750Y-70643750D02*
X-11112500Y-70643750D01*
X-19050000Y-65087500D02*
X-13493750Y-70643750D01*
X-34448750Y-50482500D02*
X-34448750Y-53657500D01*
X-34448750Y-53657500D02*
X-34131250Y-53975000D01*
X-11112500Y-70643750D02*
X-10953750Y-70485000D01*
X-34131250Y-64293750D02*
X-33337500Y-65087500D01*
X-34131250Y-53975000D02*
X-34131250Y-64293750D01*
X-33337500Y-65087500D02*
X-19050000Y-65087500D01*
X8096250Y-77240000D02*
X18931250Y-88075000D01*
X8096250Y-70485000D02*
X8096250Y-77240000D01*
X17621250Y-101052500D02*
X23693750Y-107125000D01*
X17621250Y-89535000D02*
X17621250Y-101052500D01*
X22383750Y-115340000D02*
X33218750Y-126175000D01*
X22383750Y-108585000D02*
X22383750Y-115340000D01*
X7778750Y-70485000D02*
X8096250Y-70485000D01*
X-18256250Y-64293750D02*
X-16668750Y-65881250D01*
X-31908750Y-53816250D02*
X-31750000Y-53975000D01*
X3175000Y-65881250D02*
X7778750Y-70485000D01*
X-31908750Y-50482500D02*
X-31908750Y-53816250D01*
X-16668750Y-65881250D02*
X3175000Y-65881250D01*
X-31750000Y-53975000D02*
X-31750000Y-63500000D01*
X-31750000Y-63500000D02*
X-30956250Y-64293750D01*
X-30956250Y-64293750D02*
X-18256250Y-64293750D01*
X27146250Y-77240000D02*
X37981250Y-88075000D01*
X27146250Y-70485000D02*
X27146250Y-77240000D01*
X36671250Y-101052500D02*
X42743750Y-107125000D01*
X36671250Y-89535000D02*
X36671250Y-101052500D01*
X41433750Y-115340000D02*
X52268750Y-126175000D01*
X41433750Y-108585000D02*
X41433750Y-115340000D01*
X-29368750Y-62706250D02*
X-29368750Y-50482500D01*
X-28575000Y-63500000D02*
X-29368750Y-62706250D01*
X27146250Y-70485000D02*
X26828750Y-70485000D01*
X-17462500Y-63500000D02*
X-28575000Y-63500000D01*
X-17462500Y-63500000D02*
X-15875000Y-65087500D01*
X3968750Y-65087500D02*
X4762500Y-65881250D01*
X-15875000Y-65087500D02*
X3968750Y-65087500D01*
X4762500Y-65881250D02*
X22225000Y-65881250D01*
X26828750Y-70485000D02*
X22225000Y-65881250D01*
X46196250Y-77240000D02*
X57031250Y-88075000D01*
X46196250Y-70485000D02*
X46196250Y-77240000D01*
X55721250Y-101052500D02*
X61793750Y-107125000D01*
X55721250Y-89535000D02*
X55721250Y-101052500D01*
X60483750Y-115340000D02*
X71318750Y-126175000D01*
X60483750Y-108585000D02*
X60483750Y-115340000D01*
X45878750Y-70485000D02*
X46196250Y-70485000D01*
X-26828750Y-53816250D02*
X-26987500Y-53975000D01*
X-26987500Y-53975000D02*
X-26987500Y-61912500D01*
X-26828750Y-50482500D02*
X-26828750Y-53816250D01*
X-26987500Y-61912500D02*
X-26193750Y-62706250D01*
X-16668750Y-62706250D02*
X-15081250Y-64293750D01*
X-26193750Y-62706250D02*
X-16668750Y-62706250D01*
X4762500Y-64293750D02*
X5556250Y-65087500D01*
X-15081250Y-64293750D02*
X4762500Y-64293750D01*
X5556250Y-65087500D02*
X23018750Y-65087500D01*
X23812500Y-65881250D02*
X41275000Y-65881250D01*
X23018750Y-65087500D02*
X23812500Y-65881250D01*
X41275000Y-65881250D02*
X45878750Y-70485000D01*
X65246250Y-77240000D02*
X76081250Y-88075000D01*
X65246250Y-70485000D02*
X65246250Y-77240000D01*
X74771250Y-101052500D02*
X80843750Y-107125000D01*
X74771250Y-89535000D02*
X74771250Y-101052500D01*
X79533750Y-115340000D02*
X90368750Y-126175000D01*
X79533750Y-108585000D02*
X79533750Y-115340000D01*
X73700000Y-143634010D02*
X73700000Y-145225000D01*
X73700000Y-142487748D02*
X73700000Y-143634010D01*
X88552748Y-127635000D02*
X73700000Y-142487748D01*
X89058750Y-127635000D02*
X88552748Y-127635000D01*
X65246250Y-70008750D02*
X65246250Y-70485000D01*
X64928750Y-70485000D02*
X65246250Y-70485000D01*
X60325000Y-65881250D02*
X64928750Y-70485000D01*
X42862500Y-65881250D02*
X60325000Y-65881250D01*
X-15875000Y-61912500D02*
X-14287500Y-63500000D01*
X42068750Y-65087500D02*
X42862500Y-65881250D01*
X5556250Y-63500000D02*
X6350000Y-64293750D01*
X23812500Y-64293750D02*
X24606250Y-65087500D01*
X-23812500Y-61912500D02*
X-15875000Y-61912500D01*
X-24288750Y-50482500D02*
X-24288750Y-53657500D01*
X24606250Y-65087500D02*
X42068750Y-65087500D01*
X-24606250Y-53975000D02*
X-24606250Y-61118750D01*
X-14287500Y-63500000D02*
X5556250Y-63500000D01*
X-24288750Y-53657500D02*
X-24606250Y-53975000D01*
X-24606250Y-61118750D02*
X-23812500Y-61912500D01*
X6350000Y-64293750D02*
X23812500Y-64293750D01*
X84296250Y-77240000D02*
X95131250Y-88075000D01*
X84296250Y-70485000D02*
X84296250Y-77240000D01*
X93821250Y-101052500D02*
X99893750Y-107125000D01*
X93821250Y-89535000D02*
X93821250Y-101052500D01*
X98583750Y-115340000D02*
X109418750Y-126175000D01*
X98583750Y-108585000D02*
X98583750Y-115340000D01*
X83978750Y-70485000D02*
X84296250Y-70485000D01*
X-22225000Y-60325000D02*
X-21431250Y-61118750D01*
X-21748750Y-53498750D02*
X-22225000Y-53975000D01*
X-21748750Y-50253900D02*
X-21748750Y-53498750D01*
X-22225000Y-53975000D02*
X-22225000Y-60325000D01*
X-15081250Y-61118750D02*
X-13493750Y-62706250D01*
X-21431250Y-61118750D02*
X-15081250Y-61118750D01*
X-13493750Y-62706250D02*
X6350000Y-62706250D01*
X6350000Y-62706250D02*
X7143750Y-63500000D01*
X7143750Y-63500000D02*
X24606250Y-63500000D01*
X24606250Y-63500000D02*
X25400000Y-64293750D01*
X25400000Y-64293750D02*
X42862500Y-64293750D01*
X42862500Y-64293750D02*
X43656250Y-65087500D01*
X43656250Y-65087500D02*
X61118750Y-65087500D01*
X61118750Y-65087500D02*
X61912500Y-65881250D01*
X61912500Y-65881250D02*
X79375000Y-65881250D01*
X79375000Y-65881250D02*
X83978750Y-70485000D01*
X103346250Y-77240000D02*
X114181250Y-88075000D01*
X103346250Y-70485000D02*
X103346250Y-77240000D01*
X112871250Y-101052500D02*
X118943750Y-107125000D01*
X112871250Y-89535000D02*
X112871250Y-101052500D01*
X117633750Y-115340000D02*
X128468750Y-126175000D01*
X117633750Y-108585000D02*
X117633750Y-115340000D01*
X103028750Y-70485000D02*
X103346250Y-70485000D01*
X98425000Y-65881250D02*
X103028750Y-70485000D01*
X80962500Y-65881250D02*
X98425000Y-65881250D01*
X80168750Y-65087500D02*
X80962500Y-65881250D01*
X62706250Y-65087500D02*
X80168750Y-65087500D01*
X44450000Y-64293750D02*
X61912500Y-64293750D01*
X26193750Y-63500000D02*
X43656250Y-63500000D01*
X-14287500Y-50800000D02*
X-14287500Y-60325000D01*
X25400000Y-62706250D02*
X26193750Y-63500000D01*
X-17462500Y-47625000D02*
X-14287500Y-50800000D01*
X61912500Y-64293750D02*
X62706250Y-65087500D01*
X-12700000Y-61912500D02*
X7143750Y-61912500D01*
X7143750Y-61912500D02*
X7937500Y-62706250D01*
X43656250Y-63500000D02*
X44450000Y-64293750D01*
X-14287500Y-60325000D02*
X-12700000Y-61912500D01*
X7937500Y-62706250D02*
X25400000Y-62706250D01*
X-17462500Y-47625000D02*
X-18256250Y-47625000D01*
X-18573750Y-47942500D02*
X-21748750Y-47942500D01*
X-18256250Y-47625000D02*
X-18573750Y-47942500D01*
X122396250Y-77240000D02*
X133231250Y-88075000D01*
X122396250Y-70485000D02*
X122396250Y-77240000D01*
X131921250Y-101052500D02*
X137993750Y-107125000D01*
X131921250Y-89535000D02*
X131921250Y-101052500D01*
X136683750Y-115340000D02*
X147518750Y-126175000D01*
X136683750Y-108585000D02*
X136683750Y-115340000D01*
X117475000Y-65881250D02*
X122078750Y-70485000D01*
X100012500Y-65881250D02*
X117475000Y-65881250D01*
X99218750Y-65087500D02*
X100012500Y-65881250D01*
X80962500Y-64293750D02*
X81756250Y-65087500D01*
X63500000Y-64293750D02*
X80962500Y-64293750D01*
X-13493750Y-49212500D02*
X-13493750Y-59531250D01*
X81756250Y-65087500D02*
X99218750Y-65087500D01*
X-11906250Y-61118750D02*
X7937500Y-61118750D01*
X122078750Y-70485000D02*
X122396250Y-70485000D01*
X62706250Y-63500000D02*
X63500000Y-64293750D01*
X-21748750Y-45402500D02*
X-17303750Y-45402500D01*
X-17303750Y-45402500D02*
X-13493750Y-49212500D01*
X8731250Y-61912500D02*
X26193750Y-61912500D01*
X26987500Y-62706250D02*
X44450000Y-62706250D01*
X7937500Y-61118750D02*
X8731250Y-61912500D01*
X26193750Y-61912500D02*
X26987500Y-62706250D01*
X44450000Y-62706250D02*
X45243750Y-63500000D01*
X-13493750Y-59531250D02*
X-11906250Y-61118750D01*
X45243750Y-63500000D02*
X62706250Y-63500000D01*
X141446250Y-77240000D02*
X152281250Y-88075000D01*
X141446250Y-70485000D02*
X141446250Y-77240000D01*
X150971250Y-101052500D02*
X157043750Y-107125000D01*
X150971250Y-89535000D02*
X150971250Y-101052500D01*
X155733750Y-115340000D02*
X166568750Y-126175000D01*
X155733750Y-108585000D02*
X155733750Y-115340000D01*
X162727500Y-127635000D02*
X145137500Y-145225000D01*
X165258750Y-127635000D02*
X162727500Y-127635000D01*
X141128750Y-70485000D02*
X141446250Y-70485000D01*
X136525000Y-65881250D02*
X141128750Y-70485000D01*
X118268750Y-65087500D02*
X119062500Y-65881250D01*
X100806250Y-65087500D02*
X118268750Y-65087500D01*
X100012500Y-64293750D02*
X100806250Y-65087500D01*
X82550000Y-64293750D02*
X100012500Y-64293750D01*
X81756250Y-63500000D02*
X82550000Y-64293750D01*
X64293750Y-63500000D02*
X81756250Y-63500000D01*
X63500000Y-62706250D02*
X64293750Y-63500000D01*
X119062500Y-65881250D02*
X136525000Y-65881250D01*
X-11112500Y-60325000D02*
X8731250Y-60325000D01*
X-12700000Y-47625000D02*
X-12700000Y-58737500D01*
X-17462500Y-42862500D02*
X-12700000Y-47625000D01*
X8731250Y-60325000D02*
X9525000Y-61118750D01*
X27781250Y-61912500D02*
X45243750Y-61912500D01*
X26987500Y-61118750D02*
X27781250Y-61912500D01*
X-21748750Y-42862500D02*
X-17462500Y-42862500D01*
X9525000Y-61118750D02*
X26987500Y-61118750D01*
X45243750Y-61912500D02*
X46037500Y-62706250D01*
X-12700000Y-58737500D02*
X-11112500Y-60325000D01*
X46037500Y-62706250D02*
X63500000Y-62706250D01*
X160496250Y-77240000D02*
X171331250Y-88075000D01*
X160496250Y-70485000D02*
X160496250Y-77240000D01*
X170021250Y-101052500D02*
X176093750Y-107125000D01*
X170021250Y-89535000D02*
X170021250Y-101052500D01*
X175348751Y-109150001D02*
X174783750Y-108585000D01*
X168950000Y-145225000D02*
X175348751Y-138826249D01*
X175348751Y-138826249D02*
X175348751Y-109150001D01*
X155575000Y-65881250D02*
X160178750Y-70485000D01*
X138112500Y-65881250D02*
X155575000Y-65881250D01*
X137318750Y-65087500D02*
X138112500Y-65881250D01*
X119062500Y-64293750D02*
X119856250Y-65087500D01*
X83343750Y-63500000D02*
X100806250Y-63500000D01*
X82550000Y-62706250D02*
X83343750Y-63500000D01*
X65087500Y-62706250D02*
X82550000Y-62706250D01*
X64293750Y-61912500D02*
X65087500Y-62706250D01*
X100806250Y-63500000D02*
X101600000Y-64293750D01*
X-10318750Y-59531250D02*
X9525000Y-59531250D01*
X-11906250Y-57943750D02*
X-10318750Y-59531250D01*
X-21748750Y-40322500D02*
X-17621250Y-40322500D01*
X-17621250Y-40322500D02*
X-11906250Y-46037500D01*
X9525000Y-59531250D02*
X10318750Y-60325000D01*
X46037500Y-61118750D02*
X46831250Y-61912500D01*
X10318750Y-60325000D02*
X27781250Y-60325000D01*
X160178750Y-70485000D02*
X160496250Y-70485000D01*
X27781250Y-60325000D02*
X28575000Y-61118750D01*
X119856250Y-65087500D02*
X137318750Y-65087500D01*
X-11906250Y-46037500D02*
X-11906250Y-57943750D01*
X46831250Y-61912500D02*
X64293750Y-61912500D01*
X101600000Y-64293750D02*
X119062500Y-64293750D01*
X28575000Y-61118750D02*
X46037500Y-61118750D01*
X179546250Y-77240000D02*
X190381250Y-88075000D01*
X179546250Y-70485000D02*
X179546250Y-77240000D01*
X195168401Y-142819099D02*
X193887499Y-144100001D01*
X193887499Y-144100001D02*
X192762500Y-145225000D01*
X195168401Y-98013401D02*
X195168401Y-142819099D01*
X189071250Y-91916250D02*
X195168401Y-98013401D01*
X189071250Y-89535000D02*
X189071250Y-91916250D01*
X179228750Y-70485000D02*
X179546250Y-70485000D01*
X174625000Y-65881250D02*
X179228750Y-70485000D01*
X120650000Y-64293750D02*
X138112500Y-64293750D01*
X28575000Y-59531250D02*
X29368750Y-60325000D01*
X11112500Y-59531250D02*
X28575000Y-59531250D01*
X102393750Y-63500000D02*
X119856250Y-63500000D01*
X10318750Y-58737500D02*
X11112500Y-59531250D01*
X46831250Y-60325000D02*
X47625000Y-61118750D01*
X-17780000Y-37782500D02*
X-11112500Y-44450000D01*
X156368750Y-65087500D02*
X157162500Y-65881250D01*
X-11112500Y-44450000D02*
X-11112500Y-57150000D01*
X47625000Y-61118750D02*
X65087500Y-61118750D01*
X83343750Y-61912500D02*
X84137500Y-62706250D01*
X-21748750Y-37782500D02*
X-17780000Y-37782500D01*
X-11112500Y-57150000D02*
X-9525000Y-58737500D01*
X157162500Y-65881250D02*
X174625000Y-65881250D01*
X29368750Y-60325000D02*
X46831250Y-60325000D01*
X-9525000Y-58737500D02*
X10318750Y-58737500D01*
X119856250Y-63500000D02*
X120650000Y-64293750D01*
X65087500Y-61118750D02*
X65881250Y-61912500D01*
X65881250Y-61912500D02*
X83343750Y-61912500D01*
X84137500Y-62706250D02*
X101600000Y-62706250D01*
X101600000Y-62706250D02*
X102393750Y-63500000D01*
X138112500Y-64293750D02*
X138906250Y-65087500D01*
X138906250Y-65087500D02*
X156368750Y-65087500D01*
X208121250Y-82002500D02*
X214193750Y-88075000D01*
X208121250Y-70485000D02*
X208121250Y-82002500D01*
X212883750Y-101291250D02*
X207050000Y-107125000D01*
X212883750Y-89535000D02*
X212883750Y-101291250D01*
X205740000Y-122722500D02*
X202287500Y-126175000D01*
X205740000Y-108585000D02*
X205740000Y-122722500D01*
X205679474Y-127635000D02*
X207962500Y-129918026D01*
X200977500Y-127635000D02*
X205679474Y-127635000D01*
X207962500Y-136612500D02*
X216575000Y-145225000D01*
X207962500Y-129918026D02*
X207962500Y-136612500D01*
X-21272500Y-35718750D02*
X-21748750Y-35242500D01*
X-17462500Y-35718750D02*
X-21272500Y-35718750D01*
X-10318750Y-42862500D02*
X-17462500Y-35718750D01*
X-10318750Y-56356250D02*
X-10318750Y-42862500D01*
X-8731250Y-57943750D02*
X-10318750Y-56356250D01*
X11112500Y-57943750D02*
X-8731250Y-57943750D01*
X138906250Y-63500000D02*
X121443750Y-63500000D01*
X157162500Y-64293750D02*
X139700000Y-64293750D01*
X157956250Y-65087500D02*
X157162500Y-64293750D01*
X176212500Y-65881250D02*
X175418750Y-65087500D01*
X11906250Y-58737500D02*
X11112500Y-57943750D01*
X175418750Y-65087500D02*
X157956250Y-65087500D01*
X48418750Y-60325000D02*
X47625000Y-59531250D01*
X208121250Y-70485000D02*
X207962500Y-70643750D01*
X200025000Y-70643750D02*
X195262500Y-65881250D01*
X195262500Y-65881250D02*
X176212500Y-65881250D01*
X207962500Y-70643750D02*
X200025000Y-70643750D01*
X65881250Y-60325000D02*
X48418750Y-60325000D01*
X121443750Y-63500000D02*
X120650000Y-62706250D01*
X139700000Y-64293750D02*
X138906250Y-63500000D01*
X103187500Y-62706250D02*
X102393750Y-61912500D01*
X84931250Y-61912500D02*
X84137500Y-61118750D01*
X120650000Y-62706250D02*
X103187500Y-62706250D01*
X102393750Y-61912500D02*
X84931250Y-61912500D01*
X84137500Y-61118750D02*
X66675000Y-61118750D01*
X66675000Y-61118750D02*
X65881250Y-60325000D01*
X47625000Y-59531250D02*
X30162500Y-59531250D01*
X29368750Y-58737500D02*
X11906250Y-58737500D01*
X30162500Y-59531250D02*
X29368750Y-58737500D01*
X247531250Y-71795000D02*
X247531250Y-88075000D01*
X246221250Y-70485000D02*
X247531250Y-71795000D01*
X247531250Y-90845000D02*
X247531250Y-145225000D01*
X246221250Y-89535000D02*
X247531250Y-90845000D01*
X247681250Y-69025000D02*
X254793750Y-61912500D01*
X247531250Y-69025000D02*
X247681250Y-69025000D01*
X254793750Y-61912500D02*
X347662500Y-61912500D01*
X347662500Y-61912500D02*
X348456250Y-61118750D01*
X348456250Y-61118750D02*
X348456250Y-57150000D01*
X347980000Y-56673750D02*
X347980000Y-55435500D01*
X348456250Y-57150000D02*
X347980000Y-56673750D01*
X347980000Y-55435500D02*
X347980000Y-53657500D01*
X266581250Y-71795000D02*
X266581250Y-88075000D01*
X265271250Y-70485000D02*
X266581250Y-71795000D01*
X266581250Y-90845000D02*
X266581250Y-126175000D01*
X265271250Y-89535000D02*
X266581250Y-90845000D01*
X266581250Y-128945000D02*
X266581250Y-145225000D01*
X265271250Y-127635000D02*
X266581250Y-128945000D01*
X350837500Y-55753000D02*
X350520000Y-55435500D01*
X267493750Y-68262500D02*
X267493750Y-68112500D01*
X272900000Y-62706250D02*
X350043750Y-62706250D01*
X265271250Y-70485000D02*
X267493750Y-68262500D01*
X350043750Y-62706250D02*
X350837500Y-61912500D01*
X350837500Y-61912500D02*
X350837500Y-55753000D01*
X267493750Y-68112500D02*
X272900000Y-62706250D01*
X350520000Y-53657500D02*
X350520000Y-55435500D01*
X285631250Y-71795000D02*
X285631250Y-88075000D01*
X284321250Y-70485000D02*
X285631250Y-71795000D01*
X285631250Y-90845000D02*
X285631250Y-145225000D01*
X284321250Y-89535000D02*
X285631250Y-90845000D01*
X353218750Y-55594250D02*
X353060000Y-55435500D01*
X285631250Y-69025000D02*
X285781250Y-69025000D01*
X352425000Y-63500000D02*
X353218750Y-62706250D01*
X291306250Y-63500000D02*
X352425000Y-63500000D01*
X285781250Y-69025000D02*
X291306250Y-63500000D01*
X353218750Y-62706250D02*
X353218750Y-55594250D01*
X353060000Y-55435500D02*
X353060000Y-53657500D01*
X312618750Y-71795000D02*
X312618750Y-88075000D01*
X311308750Y-70485000D02*
X312618750Y-71795000D01*
X312618750Y-90845000D02*
X312618750Y-107125000D01*
X311308750Y-89535000D02*
X312618750Y-90845000D01*
X312618750Y-109895000D02*
X312618750Y-124584010D01*
X312618750Y-124584010D02*
X312618750Y-126175000D01*
X311308750Y-108585000D02*
X312618750Y-109895000D01*
X311308750Y-134390000D02*
X322143750Y-145225000D01*
X311308750Y-127635000D02*
X311308750Y-134390000D01*
X355600000Y-63500000D02*
X355600000Y-57150000D01*
X316556250Y-65087500D02*
X316706250Y-65087500D01*
X355600000Y-57150000D02*
X355600000Y-53657500D01*
X312618750Y-69025000D02*
X316556250Y-65087500D01*
X317500000Y-64293750D02*
X354806250Y-64293750D01*
X316706250Y-65087500D02*
X317500000Y-64293750D01*
X354806250Y-64293750D02*
X355600000Y-63500000D01*
X331668750Y-71795000D02*
X331668750Y-88075000D01*
X330358750Y-70485000D02*
X331668750Y-71795000D01*
X331668750Y-90845000D02*
X331668750Y-107125000D01*
X330358750Y-89535000D02*
X331668750Y-90845000D01*
X331668750Y-109895000D02*
X331668750Y-126175000D01*
X330358750Y-108585000D02*
X331668750Y-109895000D01*
X357981250Y-55594250D02*
X358140000Y-55435500D01*
X330358750Y-70485000D02*
X335756250Y-65087500D01*
X357981250Y-64293750D02*
X357981250Y-55594250D01*
X357187500Y-65087500D02*
X357981250Y-64293750D01*
X335756250Y-65087500D02*
X357187500Y-65087500D01*
X358140000Y-55435500D02*
X358140000Y-53657500D01*
X350718750Y-71795000D02*
X350718750Y-88075000D01*
X349408750Y-70485000D02*
X350718750Y-71795000D01*
X350718750Y-90845000D02*
X350718750Y-107125000D01*
X349408750Y-89535000D02*
X350718750Y-90845000D01*
X350718750Y-109895000D02*
X350718750Y-126175000D01*
X349408750Y-108585000D02*
X350718750Y-109895000D01*
X350718750Y-128945000D02*
X350718750Y-145225000D01*
X349408750Y-127635000D02*
X350718750Y-128945000D01*
X360362500Y-54165500D02*
X360680000Y-53848000D01*
X360680000Y-52070000D02*
X360680000Y-53848000D01*
X359568750Y-65881250D02*
X360362500Y-65087500D01*
X360362500Y-65087500D02*
X360362500Y-55753000D01*
X349408750Y-70485000D02*
X354012500Y-65881250D01*
X360362500Y-55753000D02*
X360680000Y-55435500D01*
X354012500Y-65881250D02*
X359568750Y-65881250D01*
X360680000Y-55435500D02*
X360680000Y-53657500D01*
X369728750Y-102640000D02*
X368268750Y-104100000D01*
X369728750Y-76835000D02*
X369728750Y-102640000D01*
X369728750Y-140740000D02*
X368268750Y-142200000D01*
X369728750Y-105410000D02*
X369728750Y-140740000D01*
X362743750Y-55911750D02*
X363220000Y-55435500D01*
X368268750Y-75525000D02*
X362743750Y-70000000D01*
X362743750Y-70000000D02*
X362743750Y-55911750D01*
X363220000Y-53657500D02*
X363220000Y-55435500D01*
X1468750Y-10993750D02*
X1468750Y-10056250D01*
X7143750Y-16668750D02*
X1468750Y-10993750D01*
X325437500Y-16668750D02*
X7143750Y-16668750D01*
X332894077Y-11593423D02*
X332894077Y-11425327D01*
X325437500Y-16668750D02*
X327818750Y-16668750D01*
X327818750Y-16668750D02*
X332894077Y-11593423D01*
X336862827Y-11593423D02*
X336862827Y-11425327D01*
X330993750Y-17462500D02*
X336862827Y-11593423D01*
X-11112500Y-17462500D02*
X330993750Y-17462500D01*
X-17621250Y-10636250D02*
X-17621250Y-10953750D01*
X-17621250Y-10953750D02*
X-11112500Y-17462500D01*
X39568750Y-10993750D02*
X39568750Y-10056250D01*
X43656250Y-15081250D02*
X39568750Y-10993750D01*
X319087500Y-15081250D02*
X43656250Y-15081250D01*
X324956577Y-11593423D02*
X324956577Y-11425327D01*
X319087500Y-15081250D02*
X321468750Y-15081250D01*
X321468750Y-15081250D02*
X324956577Y-11593423D01*
X324643750Y-3175000D02*
X324643750Y-6350000D01*
X324643750Y-6350000D02*
X322262500Y-8731250D01*
X353060000Y2509275D02*
X353060000Y1270000D01*
X353060000Y4923000D02*
X353060000Y2509275D01*
X351633000Y6350000D02*
X353060000Y4923000D01*
X341312500Y5556250D02*
X342106250Y6350000D01*
X342106250Y6350000D02*
X351633000Y6350000D01*
X21748750Y-11906250D02*
X20478750Y-10636250D01*
X22225000Y-11906250D02*
X21748750Y-11906250D01*
X26193750Y-15875000D02*
X22225000Y-11906250D01*
X322262500Y-15875000D02*
X26193750Y-15875000D01*
X322262500Y-15875000D02*
X324643750Y-15875000D01*
X328925327Y-11593423D02*
X328925327Y-11425327D01*
X324643750Y-15875000D02*
X328925327Y-11593423D01*
X326231250Y-5556250D02*
X326231250Y-8731250D01*
X328612500Y-3175000D02*
X326231250Y-5556250D01*
X350520000Y4445000D02*
X350520000Y1270000D01*
X350837500Y4762500D02*
X350520000Y4445000D01*
X350043750Y5556250D02*
X350837500Y4762500D01*
X342106250Y4762500D02*
X342900000Y5556250D01*
X342900000Y5556250D02*
X350043750Y5556250D01*
X341625327Y-11593423D02*
X341625327Y-11425327D01*
X334962500Y-18256250D02*
X341625327Y-11593423D01*
X-40481250Y-18256250D02*
X334962500Y-18256250D01*
X-47743750Y-10056250D02*
X-47743750Y-10993750D01*
X-47743750Y-10993750D02*
X-40481250Y-18256250D01*
X340518750Y6350000D02*
X341312500Y7143750D01*
X341312500Y7143750D02*
X353218750Y7143750D01*
X353218750Y7143750D02*
X355600000Y4762500D01*
X355600000Y4762500D02*
X355600000Y3048000D01*
X87193750Y-10993750D02*
X87193750Y-10056250D01*
X89693750Y-13493750D02*
X87193750Y-10993750D01*
X311150000Y-13493750D02*
X311943750Y-13493750D01*
X311150000Y-13493750D02*
X89693750Y-13493750D01*
X317019077Y-11593423D02*
X317019077Y-11425327D01*
X311943750Y-13493750D02*
X315118750Y-13493750D01*
X315118750Y-13493750D02*
X317019077Y-11593423D01*
X312737500Y-3175000D02*
X312737500Y-7143750D01*
X312737500Y-7143750D02*
X314325000Y-8731250D01*
X355600000Y-15209275D02*
X355600000Y-13970000D01*
X355600000Y-17623000D02*
X355600000Y-15209275D01*
X355600000Y-17462500D02*
X355600000Y-17623000D01*
X355600000Y-19050000D02*
X355600000Y-17462500D01*
X354806250Y-19843750D02*
X355600000Y-19050000D01*
X340518750Y-18256250D02*
X342106250Y-19843750D01*
X342106250Y-19843750D02*
X354806250Y-19843750D01*
X318293750Y-14287500D02*
X320987827Y-11593423D01*
X71437500Y-14287500D02*
X318293750Y-14287500D01*
X320987827Y-11593423D02*
X320987827Y-11425327D01*
X68103750Y-10636250D02*
X68103750Y-10953750D01*
X68103750Y-10953750D02*
X71437500Y-14287500D01*
X316706250Y-3175000D02*
X316706250Y-7143750D01*
X316706250Y-7143750D02*
X318293750Y-8731250D01*
X353060000Y-17303750D02*
X353060000Y-13970000D01*
X341312500Y-17462500D02*
X342900000Y-19050000D01*
X352425000Y-19050000D02*
X353218750Y-18256250D01*
X353218750Y-18256250D02*
X353218750Y-17462500D01*
X342900000Y-19050000D02*
X352425000Y-19050000D01*
X353218750Y-17462500D02*
X353060000Y-17303750D01*
X106203750Y-10953750D02*
X106203750Y-10636250D01*
X107950000Y-12700000D02*
X106203750Y-10953750D01*
X304800000Y-12700000D02*
X107950000Y-12700000D01*
X313050327Y-11593423D02*
X313050327Y-11425327D01*
X304800000Y-12700000D02*
X311943750Y-12700000D01*
X311943750Y-12700000D02*
X313050327Y-11593423D01*
X340518750Y-6350000D02*
X340518750Y-3175000D01*
X327818750Y-6350000D02*
X340518750Y-6350000D01*
X342900000Y3968750D02*
X343693750Y4762500D01*
X343693750Y4762500D02*
X348456250Y4762500D01*
X347980000Y4286250D02*
X347980000Y1041400D01*
X348456250Y4762500D02*
X347980000Y4286250D01*
X327818750Y5556250D02*
X333855923Y-480923D01*
X327818750Y5556250D02*
X165100000Y5556250D01*
X165100000Y5556250D02*
X160337500Y793750D01*
X158868750Y-516250D02*
X158868750Y-1056250D01*
X160178750Y793750D02*
X158868750Y-516250D01*
X160337500Y793750D02*
X160178750Y793750D01*
X179387500Y793750D02*
X179228750Y793750D01*
X329887173Y-480923D02*
X324643750Y4762500D01*
X179228750Y793750D02*
X177958750Y-476250D01*
X183356250Y4762500D02*
X179387500Y793750D01*
X324643750Y4762500D02*
X183356250Y4762500D01*
X219710000Y3175000D02*
X216058750Y-476250D01*
X321949673Y-480923D02*
X318293750Y3175000D01*
X318293750Y3175000D02*
X219710000Y3175000D01*
X321468750Y3968750D02*
X325918423Y-480923D01*
X321468750Y3968750D02*
X201612500Y3968750D01*
X201612500Y3968750D02*
X198437500Y793750D01*
X198278750Y793750D02*
X196968750Y-516250D01*
X196968750Y-516250D02*
X196968750Y-1056250D01*
X198437500Y793750D02*
X198278750Y793750D01*
X252531250Y-516250D02*
X252531250Y-1056250D01*
X315118750Y2381250D02*
X255428750Y2381250D01*
X255428750Y2381250D02*
X252531250Y-516250D01*
X317980923Y-480923D02*
X315118750Y2381250D01*
X291941250Y793750D02*
X290671250Y-476250D01*
X310043423Y-480923D02*
X308768750Y793750D01*
X308768750Y793750D02*
X291941250Y793750D01*
X273685000Y1587500D02*
X271621250Y-476250D01*
X314012173Y-480923D02*
X311943750Y1587500D01*
X311943750Y1587500D02*
X273685000Y1587500D01*
X130293750Y-516250D02*
X130293750Y-1056250D01*
X337824673Y-480923D02*
X330993750Y6350000D01*
X131762500Y793750D02*
X131603750Y793750D01*
X131603750Y793750D02*
X130293750Y-516250D01*
X330993750Y6350000D02*
X137318750Y6350000D01*
X137318750Y6350000D02*
X131762500Y793750D01*
M02*
